<?xml version="1.0" standalone="no"?>
<!DOCTYPE svg PUBLIC "-//W3C//DTD SVG 1.1//EN" "http://www.w3.org/Graphics/SVG/1.1/DTD/svg11.dtd" >
<svg xmlns="http://www.w3.org/2000/svg">
<metadata>Generated by IcoMoon</metadata>
<defs>
<font id="xesanbay" horiz-adv-x="1024">
<font-face units-per-em="1024" ascent="960" descent="-64" />
<missing-glyph horiz-adv-x="1024" />
<glyph unicode="&#x20;" horiz-adv-x="512" d="" />
<glyph unicode="&#xe900;" glyph-name="about" d="M128 64v768h264.532c9.958 25.6 25.6 46.222 46.936 61.867 21.332 15.645 45.509 23.467 72.532 23.467s51.2-7.822 72.532-23.467c21.336-15.645 36.977-36.267 46.936-61.867h264.532v-768h-768zM512 778.666c9.245 0 16.896 3.029 22.956 9.088 6.031 6.030 9.044 13.667 9.044 22.912s-3.013 16.896-9.044 22.955c-6.060 6.030-13.711 9.045-22.956 9.045s-16.881-3.015-22.912-9.045c-6.060-6.059-9.088-13.71-9.088-22.955s3.028-16.882 9.088-22.912c6.031-6.059 13.667-9.088 22.912-9.088zM512 405.332c41.245 0 76.445 14.577 105.6 43.736 29.155 29.155 43.732 64.355 43.732 105.6 0 41.243-14.577 76.443-43.732 105.599s-64.355 43.733-105.6 43.733c-41.245 0-76.445-14.578-105.6-43.733s-43.733-64.355-43.733-105.599c0-41.245 14.578-76.445 43.733-105.6 29.155-29.158 64.355-43.736 105.6-43.736zM213.333 149.332h597.335v49.068c-38.4 37.687-83.017 67.383-133.848 89.088-50.856 21.676-105.797 32.512-164.82 32.512s-113.949-10.836-164.779-32.512c-50.858-21.705-95.488-51.401-133.888-89.088v-49.068z" />
<glyph unicode="&#xe901;" glyph-name="account" d="M256 234.667c0 85.333 170.667 132.267 256 132.267s256-46.933 256-132.267v-42.667h-512zM640 576c0-33.948-13.487-66.505-37.491-90.509s-56.563-37.491-90.509-37.491c-33.946 0-66.505 13.487-90.51 37.491s-37.49 56.561-37.49 90.509c0 33.948 13.486 66.505 37.49 90.51s56.564 37.49 90.51 37.49c33.946 0 66.505-13.486 90.509-37.49s37.491-56.562 37.491-90.51zM128 746.667v-597.333c0-22.63 8.99-44.335 24.994-60.339s37.708-24.994 60.34-24.994h597.333c22.63 0 44.335 8.99 60.339 24.994s24.994 37.709 24.994 60.339v597.333c0 22.632-8.99 44.337-24.994 60.34s-37.709 24.994-60.339 24.994h-597.333c-22.632 0-44.337-8.99-60.34-24.994s-24.994-37.708-24.994-60.34v0z" />
<glyph unicode="&#xe902;" glyph-name="activity1" d="M601.472 192h-8.064c-16.253 1.51-31.568 7.846-43.722 18.080s-20.513 23.834-23.862 38.829l-102.912 447.331-105.984-230.509c-2.998-6.443-7.94-11.922-14.218-15.762s-13.616-5.873-21.11-5.848h-115.2c-10.184 0-19.951 3.795-27.153 10.549s-11.247 15.916-11.247 25.468c0 9.553 4.045 18.714 11.247 25.468s16.968 10.549 27.153 10.549h89.856l96.384 208.539c6.488 13.994 17.547 25.694 31.581 33.412s30.321 11.058 46.509 9.535c16.189-1.522 31.443-7.827 43.565-18.006s20.484-23.705 23.881-38.628l102.912-446.974 105.984 229.791c2.88 6.577 7.776 12.207 14.061 16.182s13.683 6.113 21.267 6.148h115.2c10.182 0 19.949-3.795 27.155-10.549 7.2-6.755 11.245-15.916 11.245-25.468s-4.045-18.713-11.245-25.468c-7.206-6.755-16.973-10.549-27.155-10.549h-89.856l-96.384-208.542c-5.888-12.838-15.629-23.795-28.038-31.533-12.407-7.738-26.948-11.923-41.85-12.045z" />
<glyph unicode="&#xe903;" glyph-name="analytics" d="M192.029 420.827h112.154v-292.827h-112.184l0.029 292.827zM452.616 598.96h112.184v-470.96h-112.184v470.96zM719.814 768h112.186v-640h-112.186v640z" />
<glyph unicode="&#xe904;" glyph-name="android" d="M367.384 741.539c6.564 0 12.205 2.359 16.924 7.077s7.076 10.358 7.076 16.923c0 6.564-2.358 12.205-7.076 16.923s-10.359 7.077-16.924 7.077c-6.564 0-12.102-2.359-16.615-7.077s-6.769-10.359-6.769-16.923c0-6.564 2.257-12.205 6.769-16.923s10.051-7.077 16.615-7.077zM627.077 741.539c6.564 0 12.102 2.359 16.615 7.077s6.769 10.358 6.769 16.923c0 6.564-2.256 12.205-6.769 16.923s-10.051 7.077-16.615 7.077c-6.564 0-12.205-2.359-16.924-7.077s-7.076-10.359-7.076-16.923c0-6.564 2.359-12.205 7.076-16.923s10.359-7.077 16.924-7.077zM127.385 628.308c17.231 0 32-6.154 44.308-18.461s18.461-27.077 18.461-44.308v-264.617c0-17.638-6.051-32.614-18.154-44.922s-26.974-18.464-44.615-18.464c-17.641 0-32.615 6.157-44.923 18.464s-18.462 27.283-18.462 44.922v264.617c0 17.231 6.154 32 18.462 44.308s27.282 18.461 44.923 18.461zM779.693 616.616v-409.844c0-18.874-6.566-34.874-19.693-48-13.126-13.133-28.922-19.693-47.386-19.693h-46.153v-139.693c0-17.645-6.154-32.614-18.461-44.922s-27.282-18.464-44.923-18.464c-17.641 0-32.616 6.157-44.924 18.464s-18.461 27.277-18.461 44.922v139.693h-84.923v-139.693c0-17.645-6.154-32.614-18.461-44.922s-27.282-18.464-44.924-18.464c-17.231 0-32 6.157-44.307 18.464s-18.461 27.277-18.461 44.922l-0.616 139.693h-45.539c-18.872 0-34.872 6.56-48 19.693-13.128 13.126-19.692 29.126-19.692 48v409.844h564.924zM636.923 865.846c43.898-22.564 78.975-54.052 105.234-94.462 26.253-40.41 39.379-84.615 39.379-132.615h-569.228c0 48 13.128 92.205 39.384 132.615s61.539 71.898 105.846 94.462l-43.692 80.615c-2.872 5.333-1.846 9.436 3.076 12.308 5.334 2.462 9.436 1.231 12.308-3.692l44.308-81.231c38.974 17.231 80.205 25.846 123.692 25.846s84.718-8.615 123.692-25.846l44.308 81.231c2.872 4.923 6.975 6.154 12.308 3.692 4.923-2.872 5.949-6.974 3.077-12.308l-43.693-80.615zM930.464 565.539v-264.617c0-17.638-6.157-32.614-18.464-44.922s-27.283-18.464-44.922-18.464c-17.235 0-32 6.157-44.307 18.464s-18.464 27.283-18.464 44.922v264.617c0 17.641 6.157 32.513 18.464 44.615s27.072 18.154 44.307 18.154c17.638 0 32.614-6.051 44.922-18.154s18.464-26.974 18.464-44.615z" />
<glyph unicode="&#xe905;" glyph-name="arrow-down-fill" d="M512 192c-13.613 0.070-27.040 3.379-39.306 9.677s-23.066 15.43-31.613 26.733l-224.49 290.132c-13.117 17.467-21.372 38.514-23.823 60.742s1 44.744 9.96 64.982c7.267 17.588 19.125 32.573 34.159 43.166s32.609 16.343 50.624 16.567h448.976c18.016-0.224 35.59-5.975 50.624-16.567 15.040-10.593 26.893-25.578 34.163-43.166 8.96-20.238 12.41-42.754 9.958-64.982s-10.707-43.276-23.821-60.742l-224.492-290.132c-8.548-11.302-19.347-20.435-31.613-26.733s-25.693-9.606-39.306-9.677z" />
<glyph unicode="&#xe906;" glyph-name="arrowLeft" d="M643.334 78.547l60.666 61.466-311.167 315.26 311.167 315.261-60.666 61.466-369.88-376.727 369.88-376.726z" />
<glyph unicode="&#xe907;" glyph-name="arrowLeftFillCircle" d="M512 960c-135.791 0-266.020-53.943-362.039-149.961s-149.961-226.248-149.961-362.039c0-135.788 53.943-266.018 149.961-362.041 96.019-96.017 226.248-149.959 362.039-149.959 135.788 0 266.018 53.942 362.041 149.959 96.017 96.023 149.959 226.253 149.959 362.041 0 135.791-53.942 266.020-149.959 362.039-96.023 96.019-226.253 149.961-362.041 149.961v0zM736 480c8.488 0 16.629-3.371 22.625-9.372 6.002-6.001 9.375-14.141 9.375-22.628s-3.374-16.626-9.375-22.628c-5.996-6.001-14.137-9.372-22.625-9.372h-370.752l137.408-137.341c2.975-2.975 5.335-6.508 6.946-10.399 1.61-3.886 2.439-8.050 2.439-12.26s-0.829-8.374-2.439-12.26c-1.611-3.891-3.97-7.424-6.946-10.399-2.975-2.97-6.508-5.33-10.395-6.94s-8.054-2.441-12.261-2.441c-4.208 0-8.374 0.831-12.261 2.441s-7.419 3.971-10.395 6.94l-192 192.003c-2.98 2.972-5.344 6.504-6.958 10.391s-2.444 8.055-2.444 12.265c0 4.209 0.831 8.377 2.444 12.265s3.978 7.419 6.958 10.391l192 192c6.009 6.009 14.159 9.384 22.656 9.384s16.647-3.376 22.656-9.384c6.009-6.009 9.384-14.159 9.384-22.656s-3.376-16.647-9.384-22.656l-137.408-137.344h370.752z" />
<glyph unicode="&#xe908;" glyph-name="arrowRight" d="M334.123 832l-60.668-61.466 311.167-315.261-311.167-315.26 60.668-61.466 369.877 376.726-369.877 376.727z" />
<glyph unicode="&#xe909;" glyph-name="art" d="M512 832c-101.843 0-199.515-40.457-271.529-112.471s-112.471-169.686-112.471-271.529c0-101.843 40.457-199.514 112.471-271.526 72.014-72.019 169.686-112.474 271.529-112.474 35.413 0 64 28.589 64 64 0 16.64-6.4 31.571-16.64 43.091-9.813 11.098-16.213 26.029-16.213 42.24 0 35.418 28.586 64 64 64h75.522c117.76 0 213.331 95.576 213.331 213.336 0 188.586-171.949 341.333-384 341.333zM277.333 448c-35.413 0-64 28.587-64 64s28.587 64 64 64c35.414 0 64-28.587 64-64s-28.586-64-64-64zM405.333 618.667c-35.413 0-64 28.586-64 64s28.587 64 64 64c35.414 0 64-28.587 64-64s-28.586-64-64-64zM618.667 618.667c-35.414 0-64 28.586-64 64s28.586 64 64 64c35.413 0 64.002-28.587 64.002-64s-28.589-64-64.002-64zM746.669 448c-35.418 0-64 28.587-64 64s28.582 64 64 64c35.411 0 64-28.587 64-64s-28.589-64-64-64z" />
<glyph unicode="&#xe90a;" glyph-name="availability" d="M531.812 106.667c123.73 0 234.988 69.461 293.077 181.385l-259.806 159.949 259.806 159.949c-58.089 111.923-169.347 181.385-293.077 181.385-183.451 0-332.701-153.122-332.701-341.333s149.25-341.333 332.701-341.333zM515.177 652.8c13.24-0.005 25.936-5.405 35.295-15.013s14.615-22.638 14.61-36.221c-0.005-13.583-5.268-26.609-14.634-36.211s-22.065-14.994-35.305-14.989c-13.24 0.005-25.936 5.405-35.296 15.013s-14.614 22.638-14.61 36.221c0.004 13.583 5.268 26.609 14.634 36.211s22.064 14.994 35.305 14.989v0z" />
<glyph unicode="&#xe90b;" glyph-name="beta-game" d="M839.117 585.498c-59.41 118.209-178.366 191.645-310.495 191.645-191.571 0-347.427-155.466-347.427-346.558s155.856-346.558 347.427-346.558c132.129 0 251.085 73.435 310.495 191.649 3.983 7.918 4.773 17.057 2.205 25.541-2.564 8.481-8.291 15.66-15.996 20.063l-191.883 109.305 191.846 109.272c16.018 9.147 22.096 29.177 13.828 45.641v0zM546.132 460.665c-5.321-3.024-9.746-7.398-12.826-12.683s-4.699-11.286-4.699-17.397c0-6.111 1.62-12.112 4.699-17.397 3.079-5.281 7.504-9.659 12.826-12.683l214.466-122.163c-25.15-38.477-59.553-70.067-100.067-91.897-40.514-21.833-85.859-33.214-131.909-33.104-153.249 0-277.941 124.379-277.941 277.244 0 152.869 124.692 277.247 277.941 277.247 46.047 0.108 91.388-11.268 131.902-33.093s74.917-53.408 100.074-91.877l-214.466-122.196zM512 525.1c26.101 0 47.258 21.16 47.258 47.258 0 26.101-21.157 47.259-47.258 47.259s-47.258-21.158-47.258-47.259c0-26.097 21.157-47.258 47.258-47.258z" />
<glyph unicode="&#xe90c;" glyph-name="bid" d="M625.345 460.62l-80.455-80.454 281.585-281.583c22.215-22.221 58.237-22.221 80.452 0 22.215 22.215 22.215 58.237 0 80.452l-281.583 281.585zM625.323 460.599l-80.411-80.411c-22.217-22.221-58.256-22.238-80.473-0.023-22.216 22.217-22.216 58.237 0 80.453l80.453 80.453c22.216 22.216 58.239 22.216 80.454 0s22.198-58.256-0.023-80.473c0.006 0.006-0.006-0.007 0 0zM544.892 701.979l-241.359-241.359 40.226-40.226 241.36 241.359-40.227 40.226zM142.627 460.62l201.132-201.132 402.265 402.265-201.132 201.132-402.265-402.265zM223.079 541.072c-22.217 22.217-58.237 22.217-80.453 0s-22.216-58.237 0-80.453l201.133-201.132c22.216-22.215 58.237-22.215 80.453 0s22.217 58.237 0 80.452l-201.132 201.132zM544.891 862.884c-22.217 22.217-58.237 22.217-80.453 0s-22.216-58.237 0-80.453l201.134-201.133c22.215-22.216 58.237-22.216 80.452 0s22.215 58.237 0 80.453l-201.132 201.132zM170.667 49.778c-0.019 0 0.019 0 0 0-31.419 0-56.889-25.469-56.889-56.889s25.47-56.889 56.889-56.889h455.111c31.42 0 56.889 25.469 56.889 56.889s-25.469 56.889-56.889 56.889h-455.111zM85.333-7.111c-15.709 0-28.444-12.737-28.444-28.444s12.735-28.444 28.444-28.444h625.778c15.707 0 28.444 12.737 28.444 28.444s-12.737 28.444-28.444 28.444h-625.778z" />
<glyph unicode="&#xe90d;" glyph-name="book" d="M834.831 758.782c-69.588-4.316-207.901-20.025-293.288-77.145-5.892-3.941-9.231-10.949-9.231-18.277v-504.959c0-16.029 16.037-26.16 29.561-18.721 87.852 48.318 214.901 61.502 277.72 65.112 21.449 1.236 38.122 20.027 38.122 42.547v468.838c0.011 24.577-19.493 44.047-42.884 42.604zM482.458 681.637c-85.372 57.119-223.687 72.815-293.276 77.145-23.391 1.443-42.896-18.027-42.896-42.604v-468.849c0-22.539 16.673-41.329 38.121-42.551 62.845-3.606 189.96-16.805 277.808-65.156 13.484-7.424 29.473 2.695 29.473 18.681v505.307c0 7.341-3.328 14.072-9.231 18.027z" />
<glyph unicode="&#xe90e;" glyph-name="boxer" d="M775.314 612.571h-39.793c4.827 16.003 7.15 32.658 6.879 49.371 0 63.525-51.675 115.2-115.2 115.2-53.387 0-89.033-48.779-112.040-101.541-22.678 49.865-60.134 101.541-118.36 101.541-63.525 0-115.2-51.675-115.2-115.2 0-19.617 2.6-35.844 6.879-49.371h-39.793c-36.304 0-65.829-29.524-65.829-65.829v-65.829c0-36.304 29.524-65.829 65.829-65.829v-230.4c0-36.304 29.524-65.829 65.829-65.829h394.971c36.304 0 65.829 29.524 65.829 65.829v230.4c36.304 0 65.829 29.524 65.829 65.829v65.829c0 36.304-29.524 65.829-65.829 65.829zM627.2 711.314c27.22 0 49.371-22.151 49.371-49.371 0-49.371-20.604-49.371-32.914-49.371h-81.562c16.819 51.873 41.242 98.743 65.104 98.743zM347.429 661.943c0 27.22 22.151 49.371 49.371 49.371 29.228 0 56.415-50.194 72.346-98.743h-88.803c-12.31 0-32.914 0-32.914 49.371zM248.686 546.743h230.4v-65.829h-230.4v65.829zM314.514 184.686v230.4h164.571v-230.4h-164.571zM709.486 184.686h-164.571v230.4h164.571v-230.4zM544.914 480.914v63.031l0.56 2.798h229.84l0.033-65.829h-230.433z" />
<glyph unicode="&#xe90f;" glyph-name="brrowing" d="M283.429 576h-91.429v109.718c0 43.881 22.857 87.766 91.428 87.766l91.428-0.001 0.001 58.516 137.142-102.397-137.142-102.401v58.516l-91.428 0.001-0.001-58.516v-51.201zM219.141 473.441c36.395 17.338 97.916 38.559 165.43 38.559 66.244 0 126.284-20.439 162.485-37.592 8.711-4.031 17.148-8.577 25.26-13.612l-39.16-54.461-22.121-10.924c-76.184-36.568-178.329-36.568-254.497 0l-19.491 7.382-41.402 58.003c3.827 2.404 8.639 5.135 14.289 8.065 2.854 1.48 5.919 3.016 9.207 4.58zM244.909 456.7c14.219-4.286 28.699-7.744 43.36-10.355 32.255-5.676 64.749-6.5 92.55 1.152 35.334 9.715 72.417 17.608 107.168 22.259-29.654 9.302-65.512 16.642-103.431 16.642-54.735 0-105.554-15.29-139.647-29.699zM523.156 372.554l3.662 1.764c124.893-126.989 223.351-374.317-142.248-374.317-365.626 0-269.519 242.79-143.638 374.232l3.468-1.679c83.805-40.223 194.949-40.223 278.755 0zM347.889 247.648c5.606 5.331 13.21 8.333 21.138 8.333v-56.896c-7.928 0-15.532 2.995-21.138 8.333-5.606 5.331-8.756 12.57-8.756 20.115s3.149 14.778 8.756 20.115zM398.92 298.65v-14.227c12.365 0 24.427-3.648 34.524-10.438s17.732-16.397 21.855-27.494c0.719-1.773 1.057-3.667 0.993-5.568s-0.527-3.77-1.363-5.498c-0.836-1.728-2.028-3.277-3.504-4.557s-3.208-2.272-5.093-2.906c-1.884-0.634-3.883-0.896-5.878-0.787-1.995 0.115-3.946 0.608-5.736 1.453s-3.386 2.022-4.69 3.462c-1.304 1.446-2.291 3.117-2.904 4.928-4.125 11.066-15.201 18.963-28.204 18.963v-56.896c15.857 0 31.064-5.997 42.276-16.666s17.511-25.139 17.511-40.23c0-15.085-6.299-29.555-17.511-40.23-11.212-10.669-26.419-16.659-42.276-16.659v-14.227h-29.893v14.227c-12.366 0-24.428 3.648-34.524 10.438-10.097 6.797-17.732 16.403-21.855 27.494-1.32 3.558-1.101 7.469 0.609 10.874 1.71 3.398 4.771 6.016 8.509 7.277 3.738 1.254 7.848 1.043 11.424-0.582s6.328-4.538 7.648-8.096c2.061-5.549 5.88-10.349 10.928-13.741 5.048-3.398 11.079-5.222 17.261-5.216v56.89c-15.857 0-31.064 5.997-42.276 16.666s-17.511 25.139-17.511 40.23c0 15.091 6.299 29.562 17.511 40.23s26.419 16.659 42.276 16.659v14.227h29.893zM398.92 113.747v56.89c7.928 0 15.532-2.995 21.138-8.333 5.606-5.331 8.755-12.57 8.755-20.115 0-7.539-3.149-14.778-8.755-20.115-5.606-5.331-13.21-8.326-21.138-8.326zM896 384h-91.43v-109.715h-27.43v58.514l-137.139-102.399 137.139-102.4 0.006 58.515h27.424c68.576 0 91.43 43.885 91.43 87.77v109.715zM611.556 832h248.886c9.434 0 18.477-3.746 25.146-10.414s10.413-15.711 10.413-25.142v-248.888c0-19.734-15.821-35.556-35.558-35.556h-248.886c-9.43 0-18.474 3.746-25.142 10.414s-10.414 15.711-10.414 25.142v248.888c0 19.734 15.822 35.556 35.556 35.556zM711.11 728.356c0 17.6-14.042 31.644-31.469 31.644-17.6 0-31.642-14.044-31.642-31.644 0-17.423 14.042-31.467 31.642-31.467 17.427 0 31.469 14.044 31.469 31.467zM761.779 614.756c0-17.423 14.042-31.645 31.462-31.645 17.427 0 31.648 14.222 31.648 31.645s-14.221 31.466-31.648 31.466c-17.421 0-31.462-14.044-31.462-31.466zM647.11 609.244l26.669-26.666 151.642 151.644-26.662 26.667-151.648-151.645z" />
<glyph unicode="&#xe910;" glyph-name="business" d="M554.668 277.332h-85.336c-23.464 0-42.664 19.2-42.664 42.668h-298.241v-170.668c0-46.932 38.4-85.332 85.333-85.332h596.908c46.932 0 85.332 38.4 85.332 85.332v170.668h-298.668c0-23.468-19.2-42.668-42.664-42.668zM853.332 661.333h-170.664c0 94.294-76.376 170.667-170.668 170.667s-170.666-76.373-170.666-170.667h-170.667c-46.933 0-85.333-38.4-85.333-85.333v-128c0-47.36 37.973-85.332 85.333-85.332h256.001v42.664c0 23.468 19.2 42.668 42.664 42.668h85.336c23.464 0 42.664-19.2 42.664-42.668v-42.664h256c46.936 0 85.336 38.4 85.336 85.332v128c0 46.933-38.4 85.333-85.336 85.333zM426.668 661.333c0 46.934 38.4 85.334 85.332 85.334s85.332-38.4 85.332-85.334h-170.664z" />
<glyph unicode="&#xe911;" glyph-name="buy" d="M128 736c-8.487 0-16.627-3.372-22.627-9.372s-9.373-14.141-9.373-22.628c0-8.487 3.372-16.626 9.373-22.627s14.14-9.373 22.627-9.373h71.040l83.968-336c7.136-28.48 32.64-48 61.984-48h399.040c28.896 0 53.44 19.2 61.024 47.040l82.944 304.96h-67.008l-76.992-288h-399.040l-83.936 336c-3.468 13.785-11.46 26.007-22.698 34.71s-25.072 13.383-39.286 13.29h-71.040zM704 288c-52.64 0-96-43.36-96-96s43.36-96 96-96c52.64 0 96 43.36 96 96s-43.36 96-96 96zM416 288c-52.64 0-96-43.36-96-96s43.36-96 96-96c52.64 0 96 43.36 96 96s-43.36 96-96 96zM512 736v-160h-96l128-128 128 128h-96v160h-64zM416 224c18.048 0 32-13.952 32-32s-13.952-32-32-32c-18.048 0-32 13.952-32 32s13.952 32 32 32zM704 224c18.048 0 32-13.952 32-32s-13.952-32-32-32c-18.048 0-32 13.952-32 32s13.952 32 32 32z" />
<glyph unicode="&#xe912;" glyph-name="switchaccount" d="M539.429 489.143c34.286 0 63.429 11.999 87.428 36.001 24.002 23.998 36.001 53.142 36.001 87.428s-11.999 63.429-36.001 87.429c-23.998 24-53.142 36-87.428 36s-63.429-12-87.428-36c-24.002-24-36.001-53.143-36.001-87.429s11.999-63.429 36.001-87.428c23.998-24.002 53.142-36.001 87.428-36.001zM292.571 293.716c30.171 34.97 66.514 62.563 109.027 82.779 42.514 20.242 88.459 30.362 137.83 30.362s95.312-10.119 137.827-30.362c42.514-20.217 78.859-47.81 109.030-82.779v483.427h-493.714v-483.427zM210.286 201.143v658.286h658.286v-658.286h-658.286zM45.714 36.571v658.286h82.286v-576h576v-82.286h-658.286zM539.429 571.429c-11.659 0-21.424 3.95-29.294 11.849-7.899 7.874-11.849 17.637-11.849 29.294s3.95 21.436 11.849 29.335c7.87 7.872 17.635 11.808 29.294 11.808 11.655 0 21.435-3.936 29.334-11.808 7.874-7.899 11.809-17.678 11.809-29.335s-3.935-21.42-11.809-29.294c-7.899-7.899-17.679-11.849-29.334-11.849zM403.657 283.429h271.543c-19.888 13.714-41.307 24.002-64.267 30.859-22.985 6.857-46.819 10.284-71.504 10.284s-48.508-3.427-71.464-10.284c-22.985-6.857-44.423-17.145-64.307-30.859z" />
<glyph unicode="&#xe913;" glyph-name="card-switch" d="M182.857 557.714h365.714c40.396 0 73.143-32.747 73.143-73.143v-329.143c0-40.396-32.747-73.143-73.143-73.143h-365.714c-40.396 0-73.143 32.747-73.143 73.143v329.143c0 40.396 32.747 73.143 73.143 73.143zM402.286 740.571c0 40.396 32.746 73.143 73.143 73.143h365.714c40.397 0 73.143-32.747 73.143-73.143v-292.571c0-40.397-32.746-73.143-73.143-73.143h-146.286v73.143h109.714c20.198 0 36.571 16.373 36.571 36.571v219.429c0 20.198-16.373 36.571-36.571 36.571h-292.571c-20.198 0-36.571-16.374-36.571-36.571v-73.143h-73.143v109.714zM109.714 594.286c36.571 0 41.984 0 73.144 0v91.432l73.143-0.001v-48.763l109.714 85.335-109.714 85.332-0.001-48.764-73.143 0.001c-54.857 0-73.143-36.571-73.143-73.139v-91.432zM914.286 301.714c-36.571 0-41.984 0-73.143 0v-91.432h-73.143v48.764l-109.714-85.336 109.714-85.332v48.764h73.143c54.857 0 73.143 36.571 73.143 73.139v91.432z" />
<glyph unicode="&#xe914;" glyph-name="careers" d="M387.657 64l-69.486 117.029-131.657 29.257 12.8 135.314-89.6 102.4 89.6 102.4-12.8 135.314 131.657 29.257 69.486 117.029 124.343-53.029 124.343 53.029 69.486-117.029 131.657-29.257-12.8-135.314 89.6-102.4-89.6-102.4 12.8-135.314-131.657-29.257-69.486-117.029-124.343 53.029-124.343-53.029zM473.6 318.171l206.629 206.629-51.2 53.029-155.429-155.429-78.629 76.8-51.2-51.2 129.829-129.829z" />
<glyph unicode="&#xe915;" glyph-name="cash" d="M560 832c26.55 0 48-21.495 48-48v-96c0-26.55-21.45-48-48-48h-120v-48h324.147c48.755 0 89.101-34.65 96.154-81.6l34.048-224.55c1.050-7.053 1.651-14.246 1.651-21.446v-104.403c0-52.947-43.053-96-96-96h-576c-53.025 0-96 43.053-96 96v104.403c0 7.2 0.543 14.394 1.624 21.446l34.016 224.55c7.11 46.95 47.444 81.6 94.905 81.6h84.105v48h-120c-25.155 0-48 21.45-48 48v96c0 26.505 22.845 48 48 48h337.35zM272 760c-13.26 0-24-10.74-24-24s10.74-24 24-24h240c13.2 0 24 10.74 24 24s-10.8 24-24 24h-240zM248 160h528c13.203 0 24 10.797 24 24s-10.797 24-24 24h-528c-13.26 0-24-10.797-24-24s10.74-24 24-24zM296 508c-19.875 0-36-16.050-36-36s16.125-36 36-36c19.95 0 36 16.050 36 36s-16.050 36-36 36zM440 436c19.95 0 36 16.050 36 36s-16.050 36-36 36c-19.95 0-36-16.050-36-36s16.050-36 36-36zM368 388c-19.95 0-36-16.050-36-36s16.050-36 36-36c19.95 0 36 16.050 36 36s-16.050 36-36 36zM584 436c19.95 0 36 16.050 36 36s-16.050 36-36 36c-19.95 0-36-16.050-36-36s16.050-36 36-36zM512 388c-19.95 0-36-16.050-36-36s16.050-36 36-36c19.95 0 36 16.050 36 36s-16.050 36-36 36zM728 436c19.949 0 36 16.050 36 36s-16.051 36-36 36c-19.949 0-36-16.050-36-36s16.051-36 36-36zM656 388c-19.95 0-36-16.050-36-36s16.050-36 36-36c19.949 0 36 16.050 36 36s-16.051 36-36 36z" />
<glyph unicode="&#xe916;" glyph-name="circle" d="M512 228.571c-121.187 0-219.429 98.242-219.429 219.429s98.242 219.429 219.429 219.429c121.187 0 219.429-98.242 219.429-219.429s-98.242-219.429-219.429-219.429zM512 155.429c161.584 0 292.571 130.988 292.571 292.571s-130.988 292.571-292.571 292.571c-161.583 0-292.571-130.989-292.571-292.571s130.989-292.571 292.571-292.571z" />
<glyph unicode="&#xe917;" glyph-name="coinMetafi" d="M512 82.286c-201.979 0-365.714 163.738-365.714 365.714 0 201.979 163.736 365.714 365.714 365.714 201.977 0 365.714-163.736 365.714-365.714 0-201.977-163.738-365.714-365.714-365.714zM393.885 550.744c11.004 15.901 38.491 15.784 49.306-0.205l49.865-73.735-71.793-103.749c-21.928-31.685 5.402-71.34 49.167-71.34h87.139c43.513 0 70.872 39.248 49.445 70.934l-70.316 103.973 50.805 73.421c11.070 15.993 38.762 15.762 49.445-0.413l127.309-192.724c6.974-10.558-2.154-23.504-16.574-23.504h-63.623c-10.459 0-18.937-7.095-18.937-15.843s8.477-15.843 18.937-15.843h63.623c43.26 0 70.645 38.839 49.723 70.517l-127.309 192.724c-24.927 37.737-89.545 38.276-115.368 0.962l-39.662-57.311-38.912 57.534c-25.231 37.313-89.37 37.579-115.044 0.479l-133.95-193.565c-21.927-31.685 5.402-71.34 49.166-71.34h66.869c10.458 0 18.937 7.095 18.937 15.843s-8.478 15.843-18.937 15.843h-66.869c-14.588 0-23.697 13.217-16.388 23.779l133.949 193.565zM454.038 357.179c-7.307-10.562 1.803-23.779 16.391-23.779h87.139c14.504 0 23.625 13.082 16.483 23.643l-59.363 87.775-60.65-87.64z" />
<glyph unicode="&#xe918;" glyph-name="collection" d="M358.401 806.401c-13.58 0-26.602-5.395-36.204-14.996s-14.996-22.625-14.996-36.204c0-13.58 5.394-26.602 14.996-36.204s22.625-14.996 36.204-14.996h307.199c13.581 0 26.605 5.394 36.205 14.996s14.995 22.625 14.995 36.204c0 13.579-5.395 26.602-14.995 36.204s-22.624 14.996-36.205 14.996h-307.199zM204.801 601.601c0 13.579 5.394 26.602 14.996 36.204s22.625 14.996 36.204 14.996h511.999c13.581 0 26.605-5.395 36.205-14.996s14.995-22.625 14.995-36.204c0-13.58-5.395-26.602-14.995-36.204s-22.624-14.996-36.205-14.996h-511.999c-13.58 0-26.602 5.394-36.204 14.996s-14.996 22.625-14.996 36.204zM102.401 396.801c0 27.158 10.788 53.204 29.992 72.408s45.249 29.992 72.408 29.992h614.399c27.162 0 53.203-10.789 72.41-29.992 19.2-19.204 29.99-45.25 29.99-72.408v-204.801c0-27.155-10.79-53.203-29.99-72.41-19.206-19.2-45.248-29.99-72.41-29.99h-614.399c-27.158 0-53.204 10.79-72.408 29.99-19.204 19.206-29.992 45.254-29.992 72.41v204.801z" />
<glyph unicode="&#xe919;" glyph-name="colspand" d="M128 334.122l61.466-60.669 315.261 311.169 315.26-311.169 61.466 60.669-376.726 369.878-376.727-369.878z" />
<glyph unicode="&#xe91a;" glyph-name="comd" d="M139.822 896h744.357v-731.693l-372.412-181.318-371.945 181.318v731.693zM831.008 429.189v65.018l-319.244-143.428-318.772 143.428v-65.018l318.772-142.885 319.244 142.885zM831.008 353.956l-319.244-143.428-318.772 143.428v-143.428l318.772-142.886 319.244 142.886v143.428zM460.804 685.879h-79.866c-27.441 0-38.909-36.074-16.792-52.853l64.301-47.82-24.574-77.182c-8.6-26.846 21.708-49.498 43.824-32.719l64.301 47.82 64.302-47.82c22.526-16.36 52.425 5.873 43.824 32.719l-24.574 77.182 64.301 47.82c22.118 16.779 10.65 52.853-16.794 52.853h-79.044l-24.574 77.183c-8.601 26.846-45.462 26.846-54.063 0l-24.574-77.183z" />
<glyph unicode="&#xe91b;" glyph-name="comic" d="M885.043 365.172l-57.51 11.204c1.734 9.878 2.906 19.877 3.52 29.996l54.778 8.794c3.123 0.521 5.933 2.35 7.814 5.090s2.682 6.171 2.234 9.547c-0.947 7.048-6.982 11.746-13.568 10.842l-50.643-8.192c-0.109 6.204-0.282 12.348-0.672 18.552-2.899 46.862-19.821 94.507-47.29 135.285-3.853 64.21-18.093 219.312-66.611 243.165-38.022 18.673-104.135-82.46-129.149-125.708-17.030 2.409-34.339 3.614-51.537 3.614-16.415 0-32.887-1.145-49.135-3.373-25.070 43.61-90.565 144.26-128.533 125.768-47.851-23.31-62.815-174.136-67.17-239.972-28.867-41.501-46.735-90.532-49.75-138.779-0.335-5.361-0.558-10.782-0.67-16.143l-35.512 5.722c-6.477 0.904-12.563-3.795-13.512-10.842s3.517-13.553 10.050-14.637l39.42-6.324c0.67-11.926 1.954-23.732 4.188-35.297l-42.881-8.312c-1.54-0.3-3.010-0.925-4.326-1.839s-2.452-2.097-3.345-3.484c-0.892-1.388-1.521-2.95-1.853-4.6s-0.359-3.354-0.080-5.015c0.508-2.956 1.958-5.628 4.099-7.553s4.839-2.982 7.626-2.988c0.67 0 1.396 0.060 2.122 0.181l44.836 8.733c3.741-12.047 8.655-23.732 14.797-34.938l-43.050-14.752c-2.915-1.12-5.315-3.411-6.692-6.4s-1.625-6.438-0.69-9.619c0.934-3.181 2.978-5.843 5.699-7.43s5.907-1.971 8.886-1.069l50.14 17.165c8.543-11.142 18.593-21.683 30.598-31.322 33.78-27.162 75.769-45.594 119.097-55.597 16.472-3.795 58.963-12.646 103.575-12.646s91.292 8.851 107.763 12.646c43.27 10.003 85.318 28.435 119.098 55.597 13.459 10.842 24.454 22.771 33.555 35.482l62.317-21.382c3.008-1.030 6.278-0.73 9.088 0.845 2.803 1.568 4.915 4.275 5.875 7.526 1.952 6.746-1.51 14.035-7.763 16.141l-55.891 19.155c5.472 10.721 9.939 21.865 13.286 33.309l59.13-11.505c0.73-0.121 1.453-0.181 2.125-0.181 5.638 0 10.662 4.337 11.725 10.541 1.171 6.988-3.123 13.674-9.606 14.998v0zM392.912 421.793c-30.598 0-55.501 25.358-55.501 56.68 0 7.107 1.396 13.853 3.797 20.118l98.94-49.693c-9.827-16.203-27.247-27.105-47.236-27.105zM701.011 306.566c-0.998-3.194-2.899-5.965-5.434-7.93-2.528-1.965-5.568-3.027-8.691-3.034-1.562 0-3.181 0.243-4.749 0.845-13.229 4.819-23.392 11.264-31.264 18.246-38.193-25.958-74.71-34.394-105.531-34.394-50.922 0-86.378 22.406-88.723 23.917-3.311 2.227-5.679 5.773-6.595 9.862-0.916 4.096-0.306 8.413 1.698 12.026s5.242 6.235 9.019 7.3c3.777 1.065 7.789 0.489 11.177-1.604 3.126-1.988 75.657-46.74 159.69 7.951-5.863 11.565-7.091 20.781-7.203 21.624-1.060 8.794 4.634 16.865 12.842 18.070 8.096 1.084 15.52-4.94 16.698-13.613 0.218-1.505 4.742-26.924 37.741-38.911 7.763-2.831 11.949-11.929 9.325-20.358v0zM679.904 421.793c-22.445 0-41.651 13.673-50.417 33.249l99.332 49.873c4.128-7.891 6.701-16.805 6.701-26.382-0.058-31.382-24.96-56.74-55.616-56.74z" />
<glyph unicode="&#xe91c;" glyph-name="comment" d="M819.2 832h-614.4c-42.355 0-76.8-34.445-76.8-76.8v-691.2l153.6 153.6h537.6c42.355 0 76.8 34.445 76.8 76.8v460.8c0 42.355-34.445 76.8-76.8 76.8z" />
<glyph unicode="&#xe91d;" glyph-name="comment-dots" d="M853.331 874.667h-682.664c-47.062 0-85.334-38.272-85.334-85.333v-768.003l170.667 170.669h597.331c47.066 0 85.338 38.272 85.338 85.331v512.003c0 47.061-38.272 85.333-85.338 85.333zM384.001 448.001c-11.209 0.003-22.308 2.213-32.662 6.505s-19.763 10.582-27.686 18.509c-7.924 7.928-14.209 17.339-18.495 27.696s-6.492 21.457-6.489 32.666c0.003 11.209 2.213 22.307 6.505 32.662s10.582 19.763 18.509 27.686c7.928 7.924 17.339 14.209 27.696 18.496s21.457 6.492 32.666 6.489c22.637-0.006 44.346-9.004 60.348-25.015s24.991-37.724 24.985-60.361c-0.006-22.637-9.004-44.346-25.015-60.349s-37.724-24.99-60.361-24.984v0zM640 448.001c-11.208 0.003-22.307 2.213-32.662 6.505s-19.763 10.582-27.686 18.509c-7.924 7.928-14.209 17.339-18.495 27.696s-6.492 21.457-6.489 32.666c0.003 11.209 2.213 22.307 6.505 32.662s10.582 19.763 18.509 27.686c7.928 7.924 17.339 14.209 27.696 18.496s21.457 6.492 32.667 6.489c22.637-0.006 44.346-9.004 60.346-25.015 16.006-16.011 24.992-37.724 24.986-60.361s-9.005-44.346-25.011-60.349c-16.013-16.003-37.728-24.99-60.365-24.984v0z" />
<glyph unicode="&#xe91e;" glyph-name="community" d="M629.334 320c41.213 0 74.666-33.453 74.666-74.669l-0.045-41.043c4.992-93.44-64.467-140.672-189.096-140.672-124.16 0-194.859 46.509-194.859 139.053v42.662c0 41.216 33.451 74.669 74.667 74.669h234.667zM629.334 256h-234.667c-2.829 0-5.542-1.126-7.542-3.123-2.001-2.003-3.124-4.717-3.124-7.546v-42.662c0-50.176 37.846-75.053 130.859-75.053 92.501 0 127.784 24.064 125.141 74.963v42.752c0 2.829-1.124 5.542-3.124 7.546-2.001 1.997-4.714 3.123-7.542 3.123zM160 533.333h186.71c-5.376-20.886-6.751-42.602-4.054-64h-182.656c-2.829 0-5.542-1.124-7.542-3.124s-3.124-4.714-3.124-7.542v-42.667c0-50.176 37.845-75.051 130.858-75.051 19.712 0 36.822 1.11 51.499 3.286-24.413-15.466-42.24-39.416-50.048-67.243l-1.451-0.045c-124.16 0-194.858 46.509-194.858 139.053v42.667c0 41.216 33.45 74.666 74.666 74.666zM864 533.333c41.216 0 74.669-33.45 74.669-74.666l-0.045-41.046c4.992-93.44-64.467-140.674-189.101-140.674l-7.206 0.090c-8.045 28.582-26.611 53.064-51.968 68.52 16.512-3.072 36.134-4.608 59.174-4.608 92.506 0 127.789 24.064 125.146 74.966v42.752c0 2.829-1.126 5.542-3.123 7.542-2.003 2-4.717 3.124-7.546 3.124h-182.611c2.637 21.402 1.248 43.109-4.096 64h186.707zM512 618.667c16.81 0 33.454-3.311 48.984-9.743s29.64-15.861 41.526-27.747c11.885-11.886 21.314-25.997 27.747-41.526s9.743-32.174 9.743-48.983c0-16.81-3.311-33.454-9.743-48.984s-15.861-29.64-27.747-41.526c-11.886-11.885-25.997-21.314-41.526-27.747s-32.174-9.743-48.984-9.743c-33.948 0-66.505 13.485-90.509 37.49s-37.491 56.562-37.491 90.51c0 33.948 13.486 66.505 37.491 90.509s56.562 37.491 90.509 37.491v0zM512 554.667c-8.404 0-16.727-1.656-24.492-4.872s-14.82-7.931-20.763-13.874c-5.943-5.943-10.657-12.998-13.874-20.763s-4.872-16.087-4.872-24.492c0-8.405 1.656-16.727 4.872-24.492s7.931-14.82 13.874-20.763c5.942-5.943 12.998-10.657 20.763-13.873s16.087-4.872 24.492-4.872c16.974 0 33.252 6.742 45.255 18.745s18.745 28.281 18.745 45.255c0 16.973-6.742 33.252-18.745 45.254s-28.281 18.746-45.255 18.746zM277.334 832c33.948 0 66.505-13.485 90.509-37.491s37.491-56.562 37.491-90.509c0-33.948-13.486-66.505-37.491-90.509s-56.562-37.491-90.509-37.491c-33.948 0-66.505 13.485-90.51 37.491s-37.49 56.562-37.49 90.509c0 33.948 13.485 66.505 37.49 90.509s56.562 37.491 90.51 37.491v0zM746.669 832c33.946 0 66.502-13.485 90.509-37.491s37.491-56.562 37.491-90.509c0-33.948-13.485-66.505-37.491-90.509s-56.563-37.491-90.509-37.491c-33.952 0-66.509 13.485-90.509 37.491-24.008 24.004-37.493 56.562-37.493 90.509s13.485 66.505 37.493 90.509c24 24.005 56.557 37.491 90.509 37.491zM277.334 768c-16.974 0-33.252-6.743-45.255-18.745s-18.745-28.281-18.745-45.255c0-16.974 6.742-33.252 18.745-45.255s28.281-18.745 45.255-18.745c16.973 0 33.252 6.743 45.254 18.745s18.746 28.281 18.746 45.255c0 16.974-6.743 33.252-18.746 45.255s-28.281 18.745-45.254 18.745zM746.669 768c-16.973 0-33.254-6.743-45.254-18.745-12.006-12.003-18.746-28.281-18.746-45.255s6.739-33.252 18.746-45.255c12-12.002 28.282-18.745 45.254-18.745s33.248 6.743 45.254 18.745c12 12.003 18.746 28.281 18.746 45.255s-6.746 33.252-18.746 45.255c-12.006 12.002-28.282 18.745-45.254 18.745z" />
<glyph unicode="&#xe91f;" glyph-name="contact" d="M585.143 557.823c0.007-9.61-1.878-19.127-5.549-28.008s-9.055-16.953-15.846-23.753c-6.79-6.801-14.853-12.197-23.729-15.881s-18.39-5.585-28-5.592c-9.61-0.007-19.128 1.878-28.009 5.549s-16.952 9.055-23.753 15.846c-6.8 6.79-12.196 14.853-15.881 23.729s-5.584 18.39-5.592 28.001c-0.014 19.409 7.682 38.028 21.395 51.762s32.321 21.458 51.729 21.473c19.409 0.014 38.028-7.682 51.762-21.395s21.458-32.321 21.473-51.73v0zM640 418.267v-19.748c0-39.68-54.492-69.376-128-69.376s-128 29.732-128 69.34v19.785c-0.014 3.894 0.739 7.751 2.216 11.353s3.651 6.877 6.396 9.639c2.744 2.761 6.006 4.955 9.599 6.454s7.446 2.277 11.34 2.286h196.937c3.89-0.014 7.74-0.794 11.328-2.296s6.846-3.696 9.587-6.457c2.74-2.761 4.91-6.035 6.386-9.635s2.225-7.454 2.212-11.345zM283.428 868.572c-31.523 0-61.755-12.523-84.045-34.813s-34.812-52.522-34.812-84.045v-603.429c0-31.52 12.522-61.754 34.812-84.045s52.522-34.81 84.045-34.81h548.572c7.277 0 14.253 2.886 19.392 8.032 5.146 5.146 8.038 12.122 8.038 19.392 0 7.277-2.893 14.253-8.038 19.398-5.139 5.146-12.115 8.032-19.392 8.032h-548.572c-15.389 0-30.264 5.549-41.897 15.622s-19.246 24.006-21.445 39.238h611.914c7.277 0 14.253 2.886 19.392 8.032 5.146 5.146 8.038 12.122 8.038 19.392v585.144c0 31.523-12.525 61.755-34.816 84.045s-52.518 34.813-84.045 34.813h-457.141zM804.57 749.714v-557.714h-585.141v557.714c0 35.328 28.672 64 64 64h457.141c35.366 0 64-28.672 64-64z" />
<glyph unicode="&#xe920;" glyph-name="copy" d="M597.334 618.666h-426.667c-47.061 0-85.333-38.272-85.333-85.334v-426.664c0-47.066 38.272-85.338 85.333-85.338h426.667c47.063 0 85.335 38.272 85.335 85.338v426.664c0 47.062-38.272 85.334-85.335 85.334zM853.331 874.667h-426.665c-22.632 0-44.337-8.99-60.34-24.993s-24.993-37.708-24.993-60.34v-85.333h341.336c22.63 0 44.333-8.991 60.339-24.994 16-16.003 24.992-37.708 24.992-60.34v-341.336h85.331c22.63 0 44.339 8.992 60.339 24.998 16.006 16 24.998 37.706 24.998 60.337v426.667c0 22.632-8.992 44.337-24.998 60.34-16 16.003-37.709 24.993-60.339 24.993z" />
<glyph unicode="&#xe921;" glyph-name="coupon" d="M527.539 625.888l59.948-16.063-91.026-339.712-59.948 16.062 91.026 339.713zM112.34 555.088l506.748 292.572c35.156 20.297 79.62 8.384 99.917-26.772l73.143-126.687c-16.801-9.699-29.060-25.675-34.081-44.413s-2.392-38.702 7.307-55.502c9.699-16.798 25.677-29.057 44.412-34.078 18.739-5.021 38.704-2.392 55.504 7.307l73.143-126.687c20.297-35.156 8.382-79.62-26.774-99.917l-506.748-292.571c-16.801-9.699-36.765-12.328-55.502-7.307s-34.714 17.28-44.413 34.081l-73.143 126.687c35.156 20.297 47.069 64.757 26.772 99.913-9.699 16.801-25.675 29.060-44.413 34.081s-38.702 2.392-55.502-7.307l-73.143 126.687c-9.699 16.797-12.328 36.765-7.307 55.501 5.021 18.739 17.279 34.714 34.079 44.412zM148.912 491.747l46.446-80.446c25.653 0.015 50.858-6.729 73.078-19.551 22.22-12.818 40.672-31.265 53.499-53.482s19.576-47.422 19.569-73.073c-0.007-25.655-6.77-50.853-19.609-73.062l46.446-80.446 506.748 292.571-46.446 80.446c-25.655-0.015-50.86 6.729-73.077 19.547-22.221 12.822-40.675 31.269-53.5 53.486s-19.577 47.419-19.569 73.072c0.007 25.653 6.769 50.853 19.61 73.062l-46.446 80.446-506.748-292.57zM359.678 528.973c26.286 15.177 59.76 6.21 74.937-20.078s6.206-59.761-20.081-74.939c-26.288-15.177-59.758-6.206-74.935 20.081s-6.208 59.758 20.079 74.935zM609.467 462.043c26.288 15.177 59.758 6.21 74.935-20.078s6.21-59.761-20.078-74.939c-26.288-15.177-59.761-6.206-74.939 20.081s-6.206 59.758 20.081 74.935z" />
<glyph unicode="&#xe922;" glyph-name="credit" d="M0 704c0 33.948 13.486 66.505 37.49 90.509s56.562 37.491 90.51 37.491h768c33.946 0 66.502-13.485 90.509-37.491s37.491-56.562 37.491-90.509v-320h-1024v320zM736 640c-8.486 0-16.627-3.372-22.63-9.373-5.997-6.001-9.37-14.14-9.37-22.627v-64c0-8.487 3.373-16.627 9.37-22.627 6.003-6.001 14.144-9.373 22.63-9.373h128c8.486 0 16.627 3.372 22.63 9.373 5.997 6.001 9.37 14.14 9.37 22.627v64c0 8.487-3.373 16.627-9.37 22.627-6.003 6.001-14.144 9.373-22.63 9.373h-128zM0 256v-64c0-33.946 13.486-66.502 37.49-90.509s56.562-37.491 90.51-37.491h768c33.946 0 66.502 13.485 90.509 37.491s37.491 56.563 37.491 90.509v64h-1024z" />
<glyph unicode="&#xe923;" glyph-name="currency" d="M0 639.999c0.016-74.061 25.71-145.826 72.705-203.067s112.383-96.417 185.023-110.853c4.137 45.854 15.905 90.695 34.816 132.672-56.064 18.944-92.096 61.952-100.544 123.008h-32v27.264h29.824v27.776c0 2.944 0 5.952 0.256 8.64h-30.080v27.328h32.704c14.4 79.872 76.928 127.232 170.88 127.232 20.224 0 37.76-1.984 52.416-5.44v-46.912c-17.117 3.809-34.627 5.57-52.16 5.248-58.816 0-98.432-29.824-110.976-80.128h122.688v-27.328h-126.72c-0.192-2.944-0.192-6.208-0.192-9.408v-27.008h126.912v-27.328h-124.032c7.552-38.528 29.952-65.92 64.32-78.656 33.699 55.811 80.043 102.919 135.294 137.526s117.864 55.744 182.786 61.706c-15.696 77.727-59.681 146.863-123.435 194.015s-142.739 68.965-221.656 61.213c-78.916-7.752-152.147-44.518-205.507-103.174s-83.051-135.030-83.322-214.326v0zM1024 288c0-93.357-37.088-182.893-103.098-248.902-66.016-66.016-155.546-103.098-248.902-103.098s-182.889 37.082-248.902 103.098c-66.013 66.010-103.098 155.546-103.098 248.902s37.085 182.888 103.098 248.901 155.546 103.098 248.902 103.098c93.357 0 182.886-37.085 248.902-103.098 66.010-66.013 103.098-155.546 103.098-248.901v0zM528 203.392c4.416-53.44 47.744-95.040 125.696-99.968v-39.424h34.56v39.68c80.576 5.504 127.744 47.36 127.744 108.16 0 55.36-36.032 83.84-100.48 98.56l-27.264 6.4v107.263c34.56-3.84 56.576-22.208 61.824-47.68h60.672c-4.48 51.456-49.856 91.712-122.496 96.128v39.488h-34.56v-40.256c-68.864-6.592-115.712-46.848-115.712-103.808 0-50.367 34.816-82.431 92.8-95.551l22.912-5.44v-113.92c-35.456 5.12-58.88 24.064-64.192 50.368h-61.504zM653.44 324.671c-34.048 7.68-52.48 23.296-52.48 46.848 0 26.24 19.904 46.016 52.736 51.776v-98.56h-0.32l0.064-0.064zM693.248 257.856c41.28-9.28 60.352-24.32 60.352-50.944 0-30.336-23.68-51.2-65.28-55.040v107.136l4.928-1.152z" />
<glyph unicode="&#xe924;" glyph-name="chart" d="M888 168h-688v624c0 4.4-3.6 8-8 8h-56c-4.4 0-8-3.6-8-8v-688c0-4.403 3.6-8 8-8h752c4.403 0 8 3.597 8 8v56c0 4.403-3.597 8-8 8zM272 232h536c4.403 0 8 3.597 8 8v436c0 7.2-8.698 10.7-13.702 5.7l-210.298-210.3-125.4 124c-1.504 1.489-3.534 2.324-5.651 2.324s-4.146-0.835-5.65-2.324l-189-189.6c-0.734-0.735-1.315-1.608-1.71-2.57s-0.595-1.991-0.59-3.030v-160.2c0-4.403 3.6-8 8-8z" />
<glyph unicode="&#xe925;" glyph-name="dashboad" d="M687.159 313.264h76.992v-76.992h-76.992v76.992zM571.67 390.254h76.992v-153.985h-76.992v153.985zM456.181 313.264h76.992v-76.992h-76.992v76.992zM544.395 473.852c17.905 33.499 27.275 70.897 27.275 108.884h-76.994c0-85.043-68.941-153.988-153.984-153.988s-153.985 68.944-153.985 153.988c0 42.521 17.235 81.017 45.101 108.883l-54.442 54.442c-26.859-26.859-46.679-59.928-57.706-96.277s-12.918-74.856-5.508-112.112c7.41-37.255 23.894-72.104 47.991-101.467s55.064-52.33 90.157-66.867c35.093-14.533 73.23-20.191 111.031-16.468s74.103 16.713 105.686 37.815c31.583 21.102 57.472 49.668 75.377 83.167zM438.268 792.091c-47.642 22.205-101.43 27.497-152.485 15.002l18.294-74.751c11.735 2.862 23.998 4.38 36.614 4.38 60.566 0 112.97-34.969 138.112-85.818l69.010 34.061c-23.263 47.133-61.904 84.923-109.546 107.127zM302.196 277.149c-26.895 3.354-52.713 10.174-76.992 20.001v-214.864h692.933v654.435h-310.674c13.784-23.83 24.466-49.678 31.495-76.992h202.185v-500.453h-538.947v117.873zM417.684 582.736c0-42.522-34.471-76.992-76.992-76.992s-76.992 34.471-76.992 76.992c0 42.522 34.471 76.992 76.992 76.992s76.992-34.471 76.992-76.992z" />
<glyph unicode="&#xe926;" glyph-name="delete" d="M256.001 149.331c0-46.931 38.4-85.331 85.333-85.331h341.335c46.931 0 85.331 38.4 85.331 85.331v512.002h-511.999v-512.002zM810.669 789.333h-149.338l-42.664 42.667h-213.334l-42.666-42.667h-149.334v-85.333h597.335v85.333z" />
<glyph unicode="&#xe927;" glyph-name="developer" d="M657.069 251.731l-59.736 61.869 134.399 134.401-134.399 134.4 59.736 61.867 196.262-196.267-196.262-196.269zM366.932 251.731l-196.266 196.269 196.266 196.267 59.734-61.867-134.4-134.4 134.4-134.401-59.734-61.869zM298.666 661.334h-85.334v170.667c0 23.467 8.363 43.563 25.088 60.288 16.697 16.697 36.779 25.045 60.246 25.045h426.665c23.469 0 43.565-8.348 60.288-25.045 16.698-16.725 25.050-36.821 25.050-60.288v-170.667h-85.338v42.667h-426.665v-42.667zM213.332 234.669h85.334v-42.669h426.665v42.669h85.338v-170.669c0-23.469-8.352-43.565-25.050-60.288-16.723-16.698-36.819-25.043-60.288-25.043h-426.665c-23.467 0-43.549 8.346-60.246 25.043-16.725 16.723-25.088 36.819-25.088 60.288v170.669z" />
<glyph unicode="&#xe928;" glyph-name="docs" d="M518.235 362.448c-20.685 0-32.753-19.679-32.753-46.029 0-26.518 12.438-45.257 32.955-45.257 20.685 0 32.552 19.712 32.552 46.062 0 24.338-11.666 45.224-32.753 45.224v0zM579.046 783.238h-268.189c-17.782 0-34.836-7.064-47.41-19.638s-19.638-29.628-19.638-47.41v-536.38c0-17.785 7.064-34.838 19.638-47.411s29.628-19.639 47.41-19.639h402.286c17.781 0 34.834 7.066 47.411 19.639 12.573 12.573 19.635 29.627 19.635 47.411v402.286l-201.143 201.142zM416.625 265.161c-14.281-11.867-35.972-17.467-62.489-17.467-15.924 0-27.154 1.006-34.798 2.011v133.124c13.71 1.975 27.551 2.904 41.402 2.783 25.746 0 42.441-4.626 55.483-14.482 14.080-10.459 22.93-27.154 22.93-51.024 0-25.98-9.454-43.882-22.528-54.945v0zM516.86 246.857c-40.229 0-63.729 30.373-63.729 68.992 0 40.598 25.915 70.938 65.942 70.938 41.604 0 64.333-31.144 64.333-68.557-0.033-44.42-26.986-71.373-66.545-71.373v0zM672.914 272.402c9.22 0 19.478 2.044 25.545 4.425l4.626-23.903c-5.632-2.816-18.304-5.833-34.765-5.833-46.833 0-70.971 29.133-70.971 67.752 0 46.23 32.955 71.943 73.988 71.943 15.89 0 27.926-3.218 33.357-6.034l-6.235-24.338c-8.163 3.372-16.914 5.080-25.746 5.029-24.338 0-43.246-14.683-43.246-44.855 0-27.121 16.091-44.186 43.447-44.186v0zM579.046 548.571h-33.521v167.619l167.618-167.619h-134.096zM363.959 362.079c-6.805 0-11.23-0.603-13.845-1.207v-88.671c2.615-0.603 6.839-0.603 10.627-0.603 27.758-0.201 45.828 15.053 45.828 47.437 0.201 28.16-16.26 43.045-42.609 43.045v0z" />
<glyph unicode="&#xe929;" glyph-name="dots" d="M512 576c-70.4 0-128-57.6-128-128s57.6-128 128-128c70.4 0 128 57.6 128 128s-57.6 128-128 128zM512 960c-70.4 0-128-57.6-128-128s57.6-128 128-128c70.4 0 128 57.6 128 128s-57.6 128-128 128zM512 192c-70.4 0-128-57.6-128-128s57.6-128 128-128c70.4 0 128 57.6 128 128s-57.6 128-128 128z" />
<glyph unicode="&#xe92a;" glyph-name="dress" d="M634.050 888.625c5.39-1.54 9.099-6.58 8.958-12.25-0.627-22.61-2.797-81.69-9.028-141.61-2.888-26.635-7.229-53.507-11.056-77.192-2.319-14.356-4.449-27.542-5.952-38.794-1.137 1.043-2.705 1.596-4.342 1.396-12.39-1.54-47.18-5.25-105-5.25-60.131 0-102.55 3.99-116.76 5.53-1.071 0.12-2.147-0.084-3.090-0.575-1.493 11.007-3.56 23.802-5.804 37.693-3.826 23.685-8.167 50.557-11.055 77.192-6.51 59.92-8.68 119.069-9.31 141.68-0.21 5.67 3.5 10.71 8.96 12.25l24.22 6.86c1.677 0.462 3.432 0.566 5.152 0.306s3.366-0.879 4.831-1.816c1.465-0.937 2.717-2.172 3.674-3.624s1.599-3.089 1.883-4.805l12.040-73.92c0 0 37.94-6.3 79.030-39.76l2.73-0.070c41.090 33.46 78.19 39.83 78.19 39.83l11.97 73.85c1.19 7.35 8.4 11.97 15.54 9.94l24.22-6.86zM612.070 595.116c0 0 39.898-58.8 81.127-150.92 88.48-197.61 169.126-230.442 169.126-230.442s-6.931-77.139-112.422-98.771c-19.546-4.013-35.021-4.96-49.229-5.83-7.328-0.448-14.323-0.877-21.37-1.696 0.166 0.026 0.25 0.038 0.25 0.038-55.791 110.182-94.641 271.111-94.641 271.111-4.97-85.402 5.32-190.682 22.47-296.449 0 0 22.4 11.898 35.070 16.307 0.198 0.070 0.397 0.141 0.595 0.205-3.108-1.19-6.308-2.534-9.626-4.051-10.138-4.634-18.881-8.954-26.877-12.902-32.143-15.891-52.215-25.811-102.273-25.811-55.46 0-81.827 14.714-112.832 32.013-3.941 2.202-7.958 4.442-12.118 6.701-3.703 2.010-7.196 3.776-10.522 5.344 0.694-0.307 1.402-0.621 2.122-0.941 18.27-8.045 38.22-20.646 38.22-20.646 5.11 199.987 28.070 403.13 28.070 403.13s-68.67-172.339-94.78-369.952c0 0 6.724-2.944 19.014-8.352-17.967 7.354-31.412 8.595-48.724 10.202-11.086 1.030-23.759 2.202-40.22 5.222-75.32 13.792-80.5 44.454-80.5 44.454s88.48 232.047 127.61 304.147c32.2 59.29 54.6 101.78 67.97 127.96l224.49-0.070z" />
<glyph unicode="&#xe92b;" glyph-name="earth" d="M896 448c0-212.102-171.898-384-384-384-212.1 0-384 171.898-384 384 0 212.1 171.9 384 384 384 212.102 0 384-171.9 384-384zM394.7 737.215l15-26.145c4.050-7.26 6.3-15.465 6.3-23.82v-62.1c0-5.85 2.4-11.55 6.45-15.6 9.45-9.45 24.75-7.2 33 1.8l20.4 25.5c7.050 8.85 19.35 11.55 29.55 6.45l22.799-11.4c5.1-2.55 9.45-3.9 16.5-3.9 9.75 0 19.2 3.9 26.1 10.8l5.85 5.85c4.35 5.7 11.1 5.55 16.5 2.7l43.95-21.9c11.553-5.85 18.9-17.7 18.9-30.6 0-15.75-10.65-29.55-25.95-33.3l-53.1-13.35c-11.1-2.7-22.65-2.25-34.8 1.35l-48 15.9c-3.6 1.65-8.85 2.55-13.949 2.55-10.5 0-22.051-3.45-29.1-9.75l-59.1-44.25c-15.15-11.4-24-29.1-24-48v-42c0-39.75 32.25-72 72-72h48c13.2 0 24-10.8 24-24v-72c0-26.547 21.45-48 48-48 15.15 0 29.4 7.053 38.4 19.2l38.4 51.149c12.448 18.003 19.2 36.902 19.2 57.601v18.15c0 5.85 3.898 10.95 9.6 12.3l7.949 1.95c17.85 4.5 30.451 20.55 30.451 39 0 12-4.198 20.85-11.699 28.35l-50.253 50.25c-6.898 6.9-6.898 14.55 0 20.1 8.55 8.55 21.152 11.55 32.704 7.65l21.146-7.050c18.451-4.8 38.554 2.25 47.251 19.65 5.254 10.5 16.8 16.050 27.002 13.8l42.451-8.25c-37.952 131.549-157.35 228.15-300.602 228.15-41.55 0-82.35-8.1-117.3-22.785z" />
<glyph unicode="&#xe92c;" glyph-name="ecosystem" d="M146.286 361.505v13.352h768v-13.352c0-215.333-171.399-388.933-384-388.933s-384 173.601-384 388.933zM362.196 338.286h-179.339v-10.375c0-121.282 91.429-227.339 147.897-245.625 0 13.378-8.41 27.761-15.594 40.046-5.354 9.154-10.026 17.145-10.026 22.685 0 19.456 9.317 25.94 9.317 25.94s16.304 12.972 31.442 25.944c15.139 12.972 25.618 25.94 16.304 37.617-2.949 3.694-8.35 6.74-13.984 9.918-12.163 6.861-25.417 14.336-17.458 30.292 12.81 24.645 31.442 63.557 31.442 63.557zM539.948 9.143c152.097 0 306.56 116.253 337.766 292.571l-200.126-60.065c0 0-31.543 11.205-32.976-26.613-0.223-5.881-0.307-11.589-0.388-17.035v-0.004c-0.439-29.583-0.757-51.376-22.554-50.191-25.808 1.401-68.82 0-68.82 0s-11.469 4.202-28.676-22.411c-14.336-23.812-38.711-67.229-48.746-110.651 22.941-4.202 43.012-5.603 64.519-5.603zM549.252 813.714c0 0-110.395-64.948-110.395-201.449 0-42.933 29.985-127.694 110.395-127.694 80.413 0 109.034 85.862 109.034 128.795s-5.453 121.089-109.034 200.348zM256.595 667.429c0 0-73.738-43.462-73.738-134.627 0-28.621 19.029-84.802 73.738-84.802s72.548 57.242 72.548 85.862c0 28.621-3.568 80.564-72.548 133.566zM805.168 704c0 0-73.739-50.705-73.739-157.063 0-33.39 19.028-98.937 73.739-98.937 54.707 0 72.547 66.783 72.547 100.173 0 33.393-3.569 93.991-72.547 155.827zM242.701 374.857v182.857h26.598v-182.857h-26.598zM535.274 374.857v182.857h26.598v-182.857h-26.598zM791.274 374.857v182.857h26.598v-182.857h-26.598zM400.457 856.484c-16.457 0-31.086-5.579-42.057-13.017 0 1.86 0 1.86 0 3.719 0 42.77-32.914 76.242-74.971 76.242-40.229-1.86-73.143-31.613-74.971-72.523-7.314 3.719-16.457 5.579-23.771 5.579-42.057 0-74.971-35.332-74.971-76.242 0-42.77 32.914-76.242 74.971-76.242h215.771c42.057 0 74.971 33.472 74.971 76.242 0 40.91-34.743 76.242-74.971 76.242z" />
<glyph unicode="&#xe92d;" glyph-name="ecosystem1" d="M253.388 740.571c-18.706 0-36.646-7.431-49.872-20.658s-20.658-31.167-20.658-49.872v-141.061c0-18.706 7.431-36.645 20.658-49.872s31.167-20.659 49.872-20.659h517.223c18.706 0 36.648 7.431 49.872 20.659 13.228 13.228 20.659 31.166 20.659 49.872v141.061c0 18.706-7.431 36.646-20.659 49.872-13.224 13.227-31.166 20.658-49.872 20.658h-517.223zM253.388 364.409c-18.706 0-36.646-7.431-49.872-20.659s-20.658-31.166-20.658-49.872v-47.020c0-18.706 7.431-36.645 20.658-49.872s31.167-20.659 49.872-20.659h141.061c18.706 0 36.645 7.431 49.872 20.659s20.659 31.166 20.659 49.872v47.020c0 18.706-7.431 36.645-20.659 49.872s-31.166 20.659-49.872 20.659h-141.061zM629.552 364.409c-18.706 0-36.645-7.431-49.872-20.659s-20.659-31.166-20.659-49.872v-47.020c0-18.706 7.431-36.645 20.659-49.872s31.166-20.659 49.872-20.659h141.060c18.706 0 36.648 7.431 49.872 20.659 13.228 13.228 20.659 31.166 20.659 49.872v47.020c0 18.706-7.431 36.645-20.659 49.872-13.224 13.228-31.166 20.659-49.872 20.659h-141.060z" />
<glyph unicode="&#xe92e;" glyph-name="email" d="M950.854 832h-877.711c-19.399 0-38.003-8.092-51.72-22.494s-21.423-33.937-21.423-54.306v-614.4c0-20.371 7.706-39.904 21.423-54.304 13.717-14.406 32.321-22.496 51.72-22.496h877.711c19.398 0 38.003 8.090 51.725 22.496 13.715 14.4 21.421 33.933 21.421 54.304v614.4c0 20.369-7.706 39.903-21.421 54.306-13.722 14.403-32.326 22.494-51.725 22.494v0zM870.4 755.2l-358.4-260.352-358.4 260.352h716.8zM73.143 140.8v579.456l418.012-303.744c6.122-4.46 13.395-6.849 20.845-6.849s14.724 2.389 20.845 6.849l418.009 303.744v-579.456h-877.711z" />
<glyph unicode="&#xe92f;" glyph-name="event" d="M329.143 790.857c0 6.062-2.408 11.876-6.695 16.162s-10.1 6.695-16.162 6.695c-6.062 0-11.876-2.408-16.162-6.695s-6.695-10.1-6.695-16.162v-22.857h-45.714c-24.248 0-47.504-9.633-64.65-26.779s-26.779-40.402-26.779-64.65v-45.714h731.429v45.714c0 24.248-9.633 47.504-26.778 64.65-17.148 17.146-40.404 26.779-64.651 26.779h-45.714v22.857c0 6.062-2.406 11.876-6.696 16.162-4.286 4.287-10.097 6.695-16.161 6.695s-11.875-2.408-16.161-6.695c-4.29-4.287-6.696-10.1-6.696-16.162v-22.857h-365.714v22.857zM877.714 173.714v411.429h-731.429v-411.429c0-24.247 9.633-47.503 26.779-64.651 17.146-17.145 40.402-26.778 64.65-26.778h548.571c24.247 0 47.503 9.633 64.651 26.778 17.145 17.148 26.778 40.404 26.778 64.651zM717.714 493.714h45.714c6.064 0 11.875-2.406 16.161-6.696 4.29-4.286 6.696-10.097 6.696-16.161v-45.714c0-6.064-2.406-11.875-6.696-16.161-4.286-4.29-10.097-6.696-16.161-6.696h-45.714c-6.064 0-11.875 2.406-16.161 6.696-4.29 4.286-6.696 10.097-6.696 16.161v45.714c0 6.064 2.406 11.875 6.696 16.161 4.286 4.29 10.097 6.696 16.161 6.696z" />
<glyph unicode="&#xe930;" glyph-name="evnets" d="M246.519 64c-20.859 0-38.723 7.514-53.589 22.541-14.842 15.053-22.263 33.139-22.263 54.259v537.6c0 21.12 7.421 39.194 22.263 54.221 14.867 15.053 32.73 22.579 53.589 22.579h37.926v76.8h75.852v-76.8h303.409v76.8h75.849v-76.8h37.926c20.86 0 38.724-7.526 53.589-22.579 14.844-15.027 22.263-33.101 22.263-54.221v-230.4h-75.853v76.8h-530.962v-384h265.481v-76.8h-265.481zM658.133 65.067l-90.667 90.667c-8.533 8.533-12.8 18.846-12.8 30.933s4.267 22.4 12.8 30.933c8.533 8.533 18.846 12.8 30.933 12.8s22.4-4.267 30.933-12.8l58.667-58.667 148.267 148.267c8.533 8.533 18.846 12.8 30.933 12.8s22.4-4.267 30.933-12.8c8.533-8.533 12.8-18.846 12.8-30.933s-4.267-22.4-12.8-30.933l-180.267-180.267c-7.821-7.821-17.779-11.733-29.867-11.733s-22.046 3.913-29.867 11.733zM298.667 448h85.333v-85.333h-85.333v85.333zM298.667 277.333h85.333v-85.333h-85.333v85.333zM469.333 448h85.333v-85.333h-85.333v85.333zM640 448h85.333v-85.333h-85.333v85.333z" />
<glyph unicode="&#xe931;" glyph-name="expand" d="M881.453 579.332l-61.466 60.668-315.26-311.167-315.261 311.167-61.466-60.668 376.728-369.88 376.726 369.88z" />
<glyph unicode="&#xe932;" glyph-name="eye" d="M396 448c0-29.704 11.8-58.192 32.804-79.196s49.492-32.804 79.196-32.804c29.704 0 58.192 11.8 79.196 32.804s32.804 49.492 32.804 79.196c0 29.704-11.8 58.192-32.804 79.196s-49.492 32.804-79.196 32.804c-29.704 0-58.192-11.8-79.196-32.804s-32.804-49.492-32.804-79.196v0zM942.202 473.8c-94.803 199.7-238.099 300.2-430.202 300.2-192.2 0-335.4-100.5-430.2-300.3-3.802-8.052-5.774-16.845-5.774-25.75s1.972-17.699 5.774-25.75c94.8-199.698 238.1-300.204 430.2-300.204 192.198 0 335.398 100.506 430.202 300.303 7.699 16.2 7.699 35 0 51.5v0zM508 272c-97.2 0-176 78.8-176 176s78.8 176 176 176c97.2 0 176-78.8 176-176s-78.8-176-176-176z" />
<glyph unicode="&#xe933;" glyph-name="facebook-messenger" d="M513.1 944c-280.060 0-497.1-204.68-497.1-481.14 0-144.601 59.42-269.561 156.14-355.878 16.7-15.021 13.26-23.725 16.1-116.461 0.223-6.496 2.033-12.838 5.271-18.477s7.805-10.394 13.304-13.862c5.499-3.462 11.763-5.53 18.244-6.016 6.481-0.493 12.984 0.614 18.941 3.213 105.82 46.598 107.18 50.278 125.12 45.402 306.579-84.378 638.88 111.821 638.88 462.079 0 276.46-214.822 481.14-494.9 481.14zM811.578 573.74l-145.997-231.14c-5.517-8.691-12.762-16.15-21.293-21.91s-18.16-9.695-28.282-11.557c-10.122-1.869-20.521-1.619-30.543 0.723s-19.454 6.726-27.702 12.884l-116.16 86.94c-5.193 3.894-11.509 6-18 6s-12.807-2.106-18-6l-156.74-118.883c-20.92-15.859-48.32 9.203-34.22 31.343l146 231.14c5.511 8.694 12.76 16.156 21.29 21.916s18.159 9.697 28.282 11.562c10.124 1.865 20.523 1.618 30.546-0.726s19.454-6.732 27.702-12.892l116.12-86.92c5.193-3.895 11.509-6 18-6s12.807 2.105 18 6l156.822 118.76c20.877 15.96 48.282-9.080 34.176-31.24v0z" />
<glyph unicode="&#xe934;" glyph-name="farm" d="M671.356 837.632h179.888c0 6.814-5.65 12.654-11.301 12.654h-156.343c-6.594 0-12.244-5.84-12.244-12.654zM594.128 535.881h-2.827c-1.883 9.735-5.65 18.494-11.301 25.311l1.883 1.946c2.823 1.946 2.823 5.84 0 8.759l-16.011 16.549c-1.883 2.922-5.65 2.922-8.477 0l-1.883-1.946c-7.534 4.868-16.011 8.76-25.428 10.706v2.92c0 2.92-1.883 5.84-5.65 5.84h-21.665c-2.823 0-5.65-1.947-5.65-5.84v-2.92c-9.417-1.947-17.894-5.839-25.428-10.706l-1.883 1.946c-1.883 2.922-5.65 2.922-8.477 0l-16.011-16.549c-2.823-1.946-2.823-5.84 0-8.759l1.883-1.946c-4.707-7.79-8.477-16.549-10.361-26.284h-2.823c-2.827 0-5.65-1.946-5.65-5.84v-22.385c0-2.922 1.883-5.84 5.65-5.84h2.823c1.883-9.735 5.654-18.494 10.361-26.284l-1.883-1.946c-2.823-1.946-2.823-5.84 0-8.759l16.011-16.549c1.883-2.922 5.65-2.922 8.477 0l2.823 2.918c7.537-4.864 16.011-8.759 25.432-10.704v-2.922c0-0.15 0.004-0.304 0.015-0.457-9.004-1.638-17.916-3.361-26.737-5.164-16.336 10.357-53.541 32.205-108.115 51.803v60.891c9.419 1.946 18.836 8.759 24.487 15.572 8.477 10.708 13.188 24.335 14.128 37.963 0.944 10.707 0 22.388-2.823 34.068-1.013 4.701-3.65 8.842-6.316 13.024-2.3 3.61-4.619 7.251-5.928 11.31-4.315 11.596-1.514 24.827 1.159 37.445l0.724 3.437c2.823 13.627 2.823 28.228-2.827 40.882-15.067 34.068-64.043 26.281-68.752-10.707-0.909-8.928 1.254-17.856 3.418-26.785 2.318-9.566 4.636-19.132 3.175-28.698-1.189-7.375-4.255-13.973-7.303-20.531-1.78-3.829-3.552-7.644-4.941-11.591-10.36-27.254-3.768-60.351 16.953-80.791 4.709-4.868 11.302-9.732 17.894-12.654v-57.019c-28.151 9.223-60.307 17.587-96.068 23.526v20.838c8.476 1.946 16.953 7.786 21.662 13.627 7.534 9.735 12.244 21.416 13.185 34.070 0.942 11.681 0 22.386-2.826 32.12-1.022 4.225-3.431 7.878-5.872 11.579-2.057 3.12-4.138 6.274-5.43 9.836-4.227 10.484-1.625 21.752 0.996 33.101v0.002c0.299 1.295 0.598 2.59 0.888 3.886 1.883 12.654 2.825 25.308-2.826 36.988-13.185 30.175-57.451 23.361-61.218-9.734-0.907-7.967 1.024-15.935 2.956-23.902 2.080-8.58 4.16-17.16 2.695-25.74-0.628-7.138-3.767-13.411-6.907-19.684-1.57-3.136-3.139-6.273-4.395-9.517-9.418-24.335-3.767-54.51 15.069-73.004 3.767-3.895 10.36-8.759 16.011-11.681v-20.323c-47.961 6.766-101.94 9.019-161.051 3.291 0-2.962 0-5.925 0.935-7.899 63.562-9.874 200.968-35.551 297.247-104.675l-0.212-0.066c-95.987 66.783-234.473 88.934-297.969 97.62l9.418-50.684 0.675-0.062c2.703-12.485 6.119-24.214 9.536-35.946 46.737-13.824 95.343-33.576 137.406-61.224-4.314-1.92-8.573-3.781-12.764-5.61l-0.004-0.004c-13.059-5.705-25.451-11.121-36.772-17.101-18.695 7.899-41.128 16.79-66.366 24.689 28.042-63.203 69.17-119.49 119.646-164.915 273.877 259.716 716.94 236.014 716.94 236.014-39.168 9.026-77.736 15.598-115.573 20.045 6.971 2.651 13.67 5.968 19.727 9.955l3.767-3.895c2.827-2.918 6.594-2.918 9.421 0l23.545 24.335c2.823 2.922 2.823 6.813 0 9.735l-3.767 3.891c6.59 10.708 11.301 23.362 14.128 36.016h5.65c3.767 0 6.59 2.922 6.59 6.813v34.070c0 3.895-2.823 6.813-9.417 7.786h-5.65c-2.827 12.654-7.534 25.309-14.128 36.016l3.767 3.893c2.827 2.92 2.827 6.814 0 9.734l-23.545 24.335c-2.827 2.92-6.594 2.92-9.417 0l-3.767-3.893c-10.361 6.814-22.605 11.681-34.849 14.601v5.84c0 3.893-2.827 6.814-6.594 6.814h-32.962c-3.767 0-6.594-2.92-6.594-6.814v-5.84c-12.244-2.92-24.488-7.787-34.849-14.601l-3.767 3.893c-2.823 2.92-6.59 2.92-9.417 0l-23.545-24.335c-2.827-2.92-2.827-6.814 0-9.734l4.71-5.84c-6.594-10.707-11.304-23.361-14.128-36.015h-5.654c-3.767 0-6.59-2.922-6.59-6.813v-34.070c0-3.891 2.823-6.813 6.59-6.813h5.654c2.823-12.654 7.534-25.307 14.128-36.016l-3.771-3.891c-2.823-2.922-2.823-6.817 0-9.735l21.387-22.1c-54.963 0.688-107.959-2.747-158.555-9.157 1.178 0.274 2.37 0.958 3.43 2.055l16.011 16.549c2.827 1.946 2.827 5.84 0 8.759l-1.883 1.949c4.71 7.786 8.477 16.545 10.361 26.28h2.827c2.823 0 5.65 1.946 5.65 5.84v22.389c0 2.918-1.883 5.837-5.65 5.837zM562.322 446.091c-1.569-0.033-3.021 0.695-3.983 2.187l-1.883 1.946c-3.877-2.501-8.002-4.747-12.376-6.605 6.045 0.867 12.127 1.69 18.242 2.472zM735.806 455.117c2.831-0.069 5.665-0.154 8.507-0.245-1.759 0.995-3.478 2.044-5.146 3.141l-3.361-2.896zM514.074 564.111c24.485 0 44.266-20.44 44.266-45.747 0-25.311-19.781-44.778-44.266-45.751-24.488 0-44.266 20.44-44.266 45.751 0 25.307 19.778 45.747 44.266 45.747zM486.758 518.363c0 15.572 12.244 28.226 27.315 28.226 15.067 0 27.312-12.654 27.312-28.226 0-15.576-12.244-28.229-27.312-28.229-15.071 0-27.315 12.654-27.315 28.229zM660.056 526.149c-2.827 16.549-3.767 34.066 0 52.56 13.184 67.165 71.578 116.808 137.505 115.835 18.834 0 36.729-4.867 52.74-11.681 5.654-1.947 12.244 1.947 11.304 8.76l-10.361 127.513c0 6.814-5.65 11.681-12.244 11.681h-158.226c-5.65 0-10.361-3.893-12.244-9.734l-29.195-99.285c-1.883-6.814-7.534-11.681-14.128-12.654l-61.217-9.734v85.658h4.707v9.734h-24.485v-9.734h4.707v-87.604l-20.718-2.92v61.323h4.707v8.761h-24.485v-8.761h4.707v-65.217l-47.089-6.814c-21.661-3.893-38.616-23.361-38.616-46.722v-44.775c0-3.895 5.65-5.84 8.477-2.922 19.778 22.389 47.089 36.016 78.171 36.016 54.623 0 99.833-43.802 103.6-99.284h42.383zM483.935 666.316c2.823 0 4.707-1.947 4.707-4.867v-23.361c0-2.92-1.883-4.867-4.707-4.867-2.827 0-4.71 1.947-4.71 4.867v23.361c0 2.92 1.883 4.867 4.71 4.867zM505.596 666.316c2.827 0 4.71-1.947 4.71-4.867v-23.361c0-2.92-1.883-4.867-4.71-4.867s-4.71 1.947-4.71 4.867v23.361c0 2.92 1.883 4.867 4.71 4.867zM526.318 666.316c2.823 0 4.707-1.947 4.707-4.867v-23.361c0-2.92-1.883-4.867-4.707-4.867-2.827 0-4.71 1.947-4.71 4.867v23.361c0 2.92 1.883 4.867 4.71 4.867zM547.979 666.316c2.823 0 4.707-1.947 4.707-4.867v-23.361c0-2.92-1.883-4.867-4.707-4.867-2.827 0-4.71 1.947-4.71 4.867v23.361c0 2.92 1.883 4.867 4.71 4.867zM569.64 666.316c2.823 0 4.71-1.947 4.71-4.867v-23.361c0-2.92-1.887-4.867-4.71-4.867-2.827 0-4.71 1.947-4.71 4.867v23.361c0 2.92 1.883 4.867 4.71 4.867zM591.301 666.316c2.827 0 4.71-1.947 4.71-4.867v-23.361c0-2.92-1.883-4.867-4.71-4.867s-4.71 1.947-4.71 4.867v23.361c0 2.92 1.883 4.867 4.71 4.867zM758.945 713.039c-3.767 0-6.594 2.92-6.594 6.814v88.578c0 3.894 2.827 6.814 6.594 6.814h71.578c3.767 0 6.594-2.92 6.594-5.84l5.65-89.551c0-3.893-2.823-6.814-6.59-6.814h-77.232zM735.4 713.039h-72.521c-3.767 0-6.59 4.867-5.65 8.76l21.661 89.551c0 2.92 2.827 4.867 5.65 4.867h50.86c3.767 0 6.594-2.92 6.594-6.814v-89.551c0-3.893-2.827-6.814-6.594-6.814zM785.317 613.753c41.439 6.814 76.288-29.203 69.694-72.032-3.767-26.28-24.488-46.72-48.973-50.615-41.443-6.813-76.288 29.202-69.698 72.031 3.771 25.307 23.548 46.722 48.976 50.616zM758.005 551.457c0 21.416 16.951 38.934 37.672 38.934 20.718 0 37.672-17.518 37.672-38.934 0-21.413-16.955-38.934-37.672-38.934-20.721 0-37.672 17.521-37.672 38.934zM961.276 383.060h-2.823v-0.973c0.468 0 0.94 0.245 1.412 0.486 0.472 0.245 0.94 0.486 1.412 0.486zM879.342 246.788c-12.244-12.654-23.545-24.335-33.905-36.988 12.244 11.681 23.545 24.335 33.905 36.988zM950.857 372.549v0.94c-33.979 2.831-378.353 21.676-621.714-242.198 50.509-26.386 107.447-44.295 167.139-49.006 35.814 54.66 165.299 219.582 454.576 290.264zM947.152 354.834c-17.898-38.938-40.499-75.926-67.814-108.047-12.24-11.681-23.545-24.335-33.905-36.988-64.984-63.272-148.805-107.074-241.104-122.646 106.427 146.981 243.931 226.798 342.824 267.681z" />
<glyph unicode="&#xe935;" glyph-name="feedback" d="M853.336 874.667h-682.669c-46.934 0-84.906-38.4-84.906-85.334l-0.427-767.998 170.667 170.664h597.335c46.928 0 85.328 38.4 85.328 85.334v512c0 46.934-38.4 85.334-85.328 85.334zM853.336 277.334h-632.749l-49.92-49.918v561.918h682.669v-512zM469.334 448h85.334v-85.333h-85.334v85.333zM469.334 704h85.334v-170.666h-85.334v170.666z" />
<glyph unicode="&#xe936;" glyph-name="filter" d="M174.079 816.724h675.841c8.038-0.005 15.904-2.279 22.707-6.561s12.256-10.397 15.731-17.642c3.475-7.245 4.838-15.324 3.923-23.308-0.909-7.984-4.058-15.548-9.082-21.821l-276.481-345.643c-6.068-7.564-9.379-16.969-9.386-26.666v-219.69c0-6.624-1.542-13.158-4.505-19.085-2.962-5.92-7.263-11.072-12.562-15.046l-85.333-64c-6.339-4.755-13.877-7.654-21.768-8.365s-15.826 0.787-22.913 4.333c-7.087 3.546-13.048 8.992-17.213 15.731s-6.372 14.509-6.372 22.432v283.732c-0.017 9.683-3.327 19.072-9.387 26.624l-276.48 345.643c-5.023 6.273-8.172 13.837-9.084 21.821s0.449 16.063 3.926 23.308c3.478 7.245 8.931 13.36 15.731 17.642s14.672 6.556 22.708 6.561v0z" />
<glyph unicode="&#xe937;" glyph-name="fire" d="M834.099 490.8c-19.411 43.694-47.635 82.912-82.899 115.2l-29.101 26.7c-0.986 0.881-2.176 1.507-3.462 1.822s-2.63 0.309-3.917-0.017c-1.28-0.326-2.464-0.962-3.443-1.852s-1.728-2.007-2.176-3.254l-12.998-37.3c-8.102-23.4-23.002-47.3-44.102-70.8-1.402-1.5-3.002-1.9-4.102-2-1.094-0.1-2.797 0.1-4.301 1.5-1.395 1.2-2.099 3-1.997 4.8 3.699 60.2-14.3 128.1-53.7 202-32.6 61.4-77.9 109.3-134.5 142.7l-41.3 24.3c-5.4 3.2-12.3-1-12-7.3l2.2-48c1.5-32.8-2.3-61.8-11.3-85.9-11-29.5-26.8-56.9-47-81.5-14.058-17.096-29.991-32.56-47.5-46.1-42.17-32.417-76.458-73.953-100.3-121.5-23.782-47.962-36.171-100.766-36.2-154.3 0-47.203 9.3-92.899 27.7-136.003 17.767-41.491 43.406-79.155 75.5-110.899 32.4-32 70-57.197 111.9-74.701 43.4-18.195 89.4-27.398 136.9-27.398s93.5 9.203 136.902 27.302c41.792 17.395 79.802 42.771 111.898 74.701 32.397 32 57.798 69.395 75.501 110.899 18.374 42.982 27.795 89.254 27.699 135.999 0 48.8-10.003 96.2-29.901 140.9v0z" />
<glyph unicode="&#xe938;" glyph-name="game" d="M405.332 704c-68.702 0-134.592-25.045-183.173-69.625s-75.873-105.044-75.873-168.089c0-63.045 27.293-123.509 75.873-168.090s114.471-69.625 183.173-69.625h213.336c68.703 0 134.594 25.044 183.172 69.625 48.581 44.581 75.875 105.044 75.875 168.090s-27.293 123.509-75.875 168.089c-48.578 44.58-114.469 69.625-183.172 69.625h-213.336zM633.904 396.368c0-11.125-4.816-21.793-13.389-29.663-8.572-7.867-20.198-12.284-32.325-12.284-12.123 0-23.749 4.418-32.325 12.284-8.572 7.87-13.389 18.538-13.389 29.663 0 11.129 4.816 21.797 13.389 29.663 8.576 7.867 20.202 12.288 32.325 12.288 12.127 0 23.753-4.421 32.325-12.288s13.389-18.534 13.389-29.663zM679.618 466.286c-6.001 0-11.948 1.086-17.492 3.193-5.548 2.11-10.587 5.2-14.83 9.095-4.246 3.895-7.614 8.517-9.911 13.608s-3.482 10.544-3.482 16.055c0 5.508 1.185 10.964 3.482 16.051 2.297 5.091 5.665 9.713 9.911 13.612 4.242 3.895 9.282 6.985 14.83 9.092 5.544 2.107 11.491 3.193 17.492 3.193 12.127 0 23.753-4.418 32.325-12.284 8.572-7.87 13.389-18.538 13.389-29.663 0-11.129-4.816-21.797-13.389-29.663s-20.198-12.288-32.325-12.288v0zM252.953 473.278c0 5.563 2.408 10.898 6.694 14.83 4.287 3.935 10.101 6.144 16.163 6.144h53.333v48.94c0 5.566 2.408 10.898 6.695 14.833 4.287 3.931 10.1 6.144 16.162 6.144s11.876-2.213 16.161-6.144c4.29-3.935 6.696-9.267 6.696-14.833v-48.94h53.332c6.064 0 11.878-2.209 16.165-6.144 4.286-3.931 6.693-9.267 6.693-14.83s-2.406-10.898-6.693-14.833c-4.286-3.931-10.101-6.144-16.165-6.144h-53.332v-48.94c0-5.563-2.406-10.898-6.696-14.83-4.285-3.935-10.099-6.144-16.161-6.144s-11.876 2.209-16.162 6.144c-4.287 3.931-6.695 9.267-6.695 14.83v48.94h-53.333c-6.062 0-11.876 2.213-16.163 6.144-4.287 3.935-6.694 9.271-6.694 14.833z" />
<glyph unicode="&#xe939;" glyph-name="gold" d="M64 68.269l64 213.331h298.667l64-213.331h-426.667zM576 68.269l64 213.331h298.669l64-213.331h-426.669zM277.333 366.933l64 213.334h298.667l64-213.334h-426.667zM1002.669 748.8l-164.698-46.507-46.502-164.693-46.509 164.693-164.693 46.507 164.693 46.507 46.509 164.693 46.502-164.693 164.698-46.507zM788.032 549.121l-23.066-65.613-46.125-20.566 46.125-20.557 23.066-61.661 23.072 61.67 46.125 20.557-46.125 20.548-23.072 65.622zM170.58 640l-10.645-36.351-31.935-9.088 31.935-9.088 10.645-36.351 10.645 36.351 31.935 9.088-31.935 9.088-10.645 36.351z" />
<glyph unicode="&#xe93a;" glyph-name="grid" d="M640 832h-427.349c-47.062 0-85.334-38.272-85.334-85.333v-598.014c0-47.066 38.272-85.338 85.334-85.338h598.018c47.059 0 85.331 38.272 85.331 85.338v598.014c0 47.061-38.272 85.333-85.331 85.333h-170.669zM810.669 618.667h-128v128h128v-128zM212.651 533.333h128v-171.349h-128v171.349zM425.984 533.333h171.349v-171.349h-171.349v171.349zM682.669 533.333h128v-171.349h-128v171.349zM597.333 746.667v-128h-171.349v128h171.349zM340.651 746.667v-128h-128v128h128zM212.651 276.653h128v-128h-128v128zM425.984 148.653v128h171.349v-128h-171.349zM682.669 148.653v128h128.038v-128h-128.038z" />
<glyph unicode="&#xe93b;" glyph-name="ginsen" d="M79.107 774.946c2.355-7.534 8.193-24.015 12.714-29.665 5.651-7.063 9.889-21.189 7.063-28.252 6.781 5.65 22.602 2.354 29.665 0h31.078c-10.83-11.301-34.186-33.903-40.966-33.903 14.127-1.412 139.85-33.903 199.181-168.102-5.651 49.442-15.539 190.705 63.568 307.953-9.889-2.826-25.427 1.412-33.903 7.063-6.78 4.52-32.961 7.534-45.204 8.476 7.063 1.884 24.015 7.628 35.316 15.539 4.070 2.849 7.436 6.050 10.64 9.096 7.915 7.525 14.835 14.105 28.913 12.093-6.136 6.136-5.875 21.868-5.701 32.375 0.026 1.588 0.051 3.056 0.051 4.354 0 1.402 0.029 3.173 0.061 5.209 0.197 12.322 0.55 34.334-4.299 42.821 14.126-14.126 31.078-31.078 39.553-35.316s18.364-16.952 18.364-24.015c4.238 11.301 18.364 16.951 26.84 18.364 0.16 0.027 0.323 0.054 0.49 0.081 8.679 1.442 26.776 4.449 48.952 19.695-12.714-22.602-16.951-36.728-18.364-42.379s-9.888-26.84-18.364-31.078c8.476-4.238 18.364-15.539 25.427-26.84 5.651-9.041 24.015-26.369 32.49-33.903-11.301 1.412-36.728 4.237-48.029 4.237-14.126 0-22.602 0-32.49 7.064 1.268-10.15-6.578-20.3-11.26-26.356-0.531-0.687-1.022-1.321-1.453-1.897-0.675-0.899-1.813-2.298-3.258-4.073-7.635-9.381-23.807-29.252-24.995-41.131-1.412 21.189-5.651 36.728-9.888 45.204s-8.476 21.189-4.238 28.253c-15.495-23.947-88.58-140.6-55.378-324.748l18.65 6.907c-0.471-4.238 2.543-12.431 18.364-11.301 19.777 1.412 94.646-18.364 96.059-108.772 0-22.602 14.126-111.598 153.976-104.532 139.848 7.059 218.959 0 257.096-43.795-39.552 24.019-104.531 35.315-159.622 22.605-44.077-10.17-114.426-12.717-144.091-12.717 32.019-15.066 117.531-44.352 203.419-40.966l0.083 0.006c25.51 1.421 100.256 5.568 136.941-62.157 2.131-3.469 4.621-7.891 7.43-12.896 12.070-21.485 30.125-53.606 51.898-66.214-29.664 15.539-67.802 53.683-87.578 79.11-8.48 9.888-33.907 25.427-63.571 22.598 24.013-15.539 111.597-93.235 87.584-221.779 0 18.362-18.368 170.925-161.043 182.227-12.429 1.126-105.946-1.414-151.148-2.829-31.078-0.941-107.36 6.502-163.865 43.795 8.476-18.368 39.554-70.63 139.85-91.821 16.952-2.829 114.42-29.664 108.769-111.597-0.339 1.254-0.666 2.874-1.050 4.781-4.358 21.734-16.365 81.619-150.099 84.211 28.253-15.539 59.331-33.901 42.379-107.36 0 1.722 0.125 3.904 0.273 6.451 1.059 18.368 3.215 55.808-32.763 76.896-40.966 24.013-53.68 32.493-53.68 39.552-19.777 7.066-97.471 46.618-110.185 142.675-31.078 22.605-101.709 114.426-104.534 182.23 0 25.427 12.714 64.98 32.49 74.869 0 0.794 0.334 1.809 0.721 2.986 0.991 3.012 2.327 7.076-0.721 11.14-3.39 4.52 4.238 7.534 8.476 8.476l5.489 2.033c-13.034 49.709-70.724 155.748-199.020 187.259 0-9.041 8.476-35.786 12.714-48.029-7.534 5.651-24.579 17.234-32.49 18.364s-14.597 9.888-16.952 14.126c-2.354-3.767-9.888-12.714-21.189-18.364s-23.544-16.481-28.253-21.19c2.354 3.767 7.346 14.127 8.476 25.428 0.378 3.781 0.351 7.359 0.326 10.736-0.069 9.237-0.127 16.96 8.15 23.167-10.356 1.151-19.775 11.675-25.966 18.592-1.409 1.574-2.651 2.963-3.699 4.010-4.52 4.52-15.068 10.359-19.777 12.714 8.005-0.471 25.71-0.283 32.49 4.238s21.66 1.884 28.253 0c-0.471 8.004 0.565 25.992 8.476 33.903s9.889 19.306 9.889 24.015z" />
<glyph unicode="&#xe93c;" glyph-name="hand-money" d="M496.85 554.667v128h-129.855v85.333h129.855v128h86.57v-128h129.853v-85.333h-129.853v-128h-86.57zM323.71 0c-23.807 0-44.18 8.346-61.119 25.043-16.968 16.73-25.452 36.826-25.452 60.288 0 23.469 8.484 43.565 25.452 60.288 16.939 16.698 37.312 25.050 61.119 25.050s44.18-8.352 61.119-25.050c16.968-16.723 25.452-36.819 25.452-60.288 0-23.462-8.484-43.558-25.452-60.288-16.939-16.698-37.312-25.043-61.119-25.043zM756.563 0c-23.808 0-44.186 8.346-61.12 25.043-16.966 16.73-25.453 36.826-25.453 60.288 0 23.469 8.486 43.565 25.453 60.288 16.934 16.698 37.312 25.050 61.12 25.050 23.802 0 44.192-8.352 61.158-25.050 16.941-16.723 25.408-36.819 25.408-60.288 0-23.462-8.467-43.558-25.408-60.288-16.966-16.698-37.357-25.043-61.158-25.043zM843.13 213.331h-665.507l128.773 230.402-155.826 324.267h-86.57v85.333h141.759l183.961-384h304.079l167.731 298.667h98.47l-215.341-384h-373.336l-47.613-85.331h519.42v-85.338z" />
<glyph unicode="&#xe93d;" d="M380.41 402.157c-8.949-4.107-16.349-10.178-22.888-17.677-2.065-0.536-3.786-3.036-6.367-1.786-7.056 27.676-23.577 42.139-47.498 41.246-15.144-0.536-26.846-8.035-35.451-20.534-3.614-5.178-5.852-5.178-10.154-0.536-22.544 24.462-45.432 48.746-68.321 72.851-3.27 3.393-3.442 5.535-0.86 9.464 40.269 62.852 80.367 125.882 120.464 188.913 2.41 3.749 4.303 4.999 8.949 3.928 54.209-13.391 108.59-26.605 162.971-39.818 2.41-0.536 5.852-0.179 6.024-3.75 0.172-2.678-3.098-3.036-4.991-4.107-15.316-8.749-30.46-17.856-46.121-25.713-11.014-5.535-18.93-14.106-25.125-24.641-10.842-18.57-21.684-37.14-32.698-55.531-8.605-14.285-9.637-28.57-0.344-42.675 9.637-14.463 23.921-17.677 39.581-14.463 19.619 4.107 35.795 15.356 51.628 27.319 2.925 2.321 6.367 4.285 8.776 7.142 16.521 20.177 40.442 24.998 62.986 31.962 11.014 3.393 22.544-1.786 33.902-3.036 2.753-1.606 6.195 0.179 8.948-1.428 8.777-1.071 17.553-2.321 26.33-3.214 3.442-0.357 5.851-2.143 8.26-4.107 50.592-41.068 101.363-82.315 151.955-123.383 6.714-5.535 11.878-11.964 12.39-21.248-1.722-5.892-2.234-11.785-1.888-17.856-8.435-19.82-29.088-26.248-46.982-13.927-30.291 20.891-60.403 42.139-90.522 63.209-6.196 4.285-12.391 8.749-18.586 13.034-4.474 3.214-9.465 7.678-14.111 1.071-4.646-6.785 1.204-9.999 5.679-13.213 31.838-22.32 63.672-44.639 95.339-66.959 13.594-9.642 18.931-22.858 15.142-37.495-3.955-14.822-20.48-29.286-34.074-29.997-8.429-0.538-15.661 2.317-22.368 7.315-26.848 19.642-53.868 39.285-80.886 58.927-1.204 0.893-2.41 1.607-3.614 2.5-3.958 3.214-8.433 5-12.047 0-3.786-5.535-0.344-9.285 4.131-12.499 11.702-8.392 23.576-16.787 35.279-25.535 14.8-11.245 30.635-20.71 44.228-33.389 4.992-4.64 7.744-9.997 8.090-16.781-1.21-3.571-1.21-7.142 0-10.714-2.067-14.464-11.706-24.646-25.644-26.784-3.958 0-7.916 0.89-12.047 0.173-5.851 0.179-9.981 3.75-14.456 6.97-19.102 13.926-38.204 27.674-57.135 41.958-4.646 3.571-9.637 4.288-13.079 0.179-3.098-3.571-0.516-8.218 2.582-11.61 0.344-3.213 3.098-2.854 4.991-3.744 2.409-1.786 4.646-3.571 7.055-5.184 0.172-0.89-2.581-1.248-0.86-2.317 2.581-1.427 4.991-3.392 8.26-3.571 1.893-1.254 3.613-2.502 5.507-3.93 1.205-3.213 3.098-5.178 6.024-6.784 2.065-1.075 5.162-2.323 5.507-4.998 1.377-10.362 8.26-8.038 14.628-7.142 1.033-0.717 1.893-1.606 2.925-2.323 0-4.819 6.712-9.286 0.516-14.285-1.032 0.89-1.377 2.144-2.409 3.213 0.86-1.069 1.549-2.144 2.409-3.034 8.949-2.861 3.958-10.176 3.786-15.181 0-4.461 0.172-9.101-0.516-13.747-2.581-2.675-4.991-5.536-7.572-8.211-4.646 1.786-4.819-2.682-6.367-5.178-7.745-3.75-15.661-6.074-24.265-2.502-2.237 0.717 3.613 3.034-0.861 3.93-4.991 1.069-9.465 3.75-14.111 5.536h-0.172c-1.893 5.178-5.679 7.674-10.842 8.57-0.516 0.358-1.033 0.717-1.549 1.069-0.344 8.749 2.581 16.787 7.4 23.034 2.753 3.571 3.958 7.68 6.712 11.251-3.098 0.538-3.786-4.288-6.367-3.034-2.753 1.427-1.204 4.819-1.377 7.142-0.516 4.102 0.688 8.211-0.689 12.32-0.172 0.89-0.344 1.965-0.516 2.854-1.377 1.606 0.861 4.467-1.892 5.357-10.326 20.179-25.47 31.424-48.358 29.286-3.786-0.358-4.991 0.71-4.474 4.998 4.991 40.531-13.767 61.958-53.176 59.994 9.293 17.32 8.433 34.283-1.032 50.889-10.67 18.748-27.191 25.176-47.498 23.391-1.893 0.714-4.474 1.428-6.195-1.428z" />
<glyph unicode="&#xe93e;" d="M387.123 507.506c0 0.536-0.172 1.25 0 1.786 14.628 26.069 28.051 53.032 46.637 76.422 6.54 8.214 15.489 13.928 25.126 18.391 24.781 11.249 49.391 23.391 74.688 33.748 18.586 7.677 38.893 9.463 58.339 13.927 38.721 8.749 77.444 16.963 116.337 25.355 0.858 0.179 1.722 0 2.579 0 2.24-1.25 4.646 0.536 6.886-0.179 16.691-26.248 33.555-52.317 50.246-78.743 24.269-38.211 48.186-76.601 72.627-114.812 2.752-4.464 3.098-6.964-0.864-11.071-18.758-19.641-37.171-39.64-55.238-59.995-4.307-4.821-6.195-1.25-8.954 0.893-45.773 37.14-91.898 73.923-137.155 111.777-13.079 11.070-26.674 17.498-43.367 18.034-2.753 0-5.507 1.071-8.26 1.607 0.516 1.071 1.721 0.714 2.41 1.25-1.721-0.536-3.786 0.357-5.507-0.893-7.572 0.893-15.316 1.428-22.888 2.678-11.186 1.964-21.512 1.25-32.698-2.321-22.544-7.142-43.367-16.427-61.092-33.747-14.111-13.749-30.46-25.176-50.251-29.105-5.163-0.357-10.326 0.714-15.488-0.179-7.745 1.607-12.563 6.071-13.768 14.284 0.516 3.75-0.516 7.321-0.344 10.892z" />
<glyph unicode="&#xe93f;" d="M959.674 538.932c1.203-4.463-1.203-5.178-2.752-6.249-29.427-20.177-58.854-40.175-88.109-60.531-5.338-3.75-6.195 0.536-8.090 3.571-44.403 69.637-88.8 139.274-133.203 208.911-8.774 13.928-8.947 13.928 4.307 22.856 25.984 17.855 52.141 35.533 78.125 53.745 4.646 3.214 6.541 3.036 9.638-1.964 45.606-71.958 91.552-143.917 137.331-215.697 1.203-1.964 2.406-4.107 2.752-4.643z" />
<glyph unicode="&#xe940;" d="M214.673 764.271c1.377-0.893 2.581-1.786 3.786-2.678 28.74-19.82 57.479-39.64 86.39-59.102 4.474-3.036 5.507-5 2.065-10.178-46.293-72.316-92.413-144.631-138.362-217.125-3.098-4.821-4.991-5.357-9.809-2.143-28.051 19.82-56.618 39.461-85.185 58.566-5.335 3.571-4.991 5.892-1.893 10.892 45.948 71.78 91.725 143.738 137.674 215.697 1.377 2.143 2.065 5.535 5.335 6.071z" />
<glyph unicode="&#xe941;" d="M428.424 346.805c-0.172-6.071-3.27-10.535-6.712-14.999-20.479-25.713-40.786-51.422-61.437-77.137-5.507-6.784-12.218-11.424-21.167-11.424-2.753 1.427-5.679 1.248-8.604 0.173-15.316 2.144-23.749 11.789-27.535 26.605 1.549 2.323 0.688 5.005 0.86 8.576-0.516-3.219 0.86-5.536-1.204-7.322-3.614 10.355-1.549 20.173 4.991 28.39 20.995 26.961 42.163 53.744 63.674 80.171 9.121 11.249 21.684 13.927 34.935 9.284 12.735-4.464 19.791-14.463 22.028-28.212 0.689-4.643-0.86-9.464 0.172-14.106z" />
<glyph unicode="&#xe942;" d="M395.9 195.034c-14.8 2.496-24.437 13.21-25.814 28.57 1.205 3.571 0.861 7.142 0.172 10.714 0 6.784 3.614 11.782 7.572 16.602 13.767 17.498 27.535 35.002 41.646 52.32 12.735 15.891 33.041 18.39 47.325 6.246 14.456-12.32 16.004-33.030 3.27-49.28-13.94-17.677-27.879-35.174-41.991-52.672-4.819-6.074-10.497-10.893-18.413-11.968-4.646-0.173-9.293 0.358-13.768-0.531z" />
<glyph unicode="&#xe943;" d="M275.437 311.27c-23.921 3.213-36.484 31.428-22.372 51.962 8.948 13.035 19.102 25.355 29.428 37.14 12.046 13.749 31.492 14.106 44.916 2.143 12.907-11.606 15.144-31.426 4.474-45.889-8.948-11.963-18.242-23.569-27.879-34.997-5.163-6.249-11.702-10.537-20.134-10.358-2.754 1.254-5.507 1.075-8.433 0z" />
<glyph unicode="&#xe944;" d="M529.789 207.533c-0.516-5.005-3.614-8.576-6.367-12.32-7.916-10.182-15.832-20.179-23.921-30.176-4.303-5.184-9.121-9.824-16.004-11.072-1.033 0.358 0.344 0.179-0.689 0.531-1.204 0.358-2.581 0-3.786 0.358 1.033-0.531 2.41 0 3.098-1.248-5.507-2.502-11.014-2.502-16.52-0.179 0.344 0.896 1.032 1.069 1.892 0.896 0 0.352-0.516 0.352-1.204 0.352-2.409 0-4.474 1.965-7.056 0.896-9.637 4.461-15.66 11.962-17.209 23.034 0.172 4.819 0.172 9.466 0 14.285 0 0.358-0.172 0.71 0 0.89 10.154 21.965 24.437 40.358 43.539 54.464 5.679 4.282 13.251 4.998 20.479 1.965-1.721-1.965-3.958-0.538-7.056-1.434 3.614 0.538 6.023-0.352 8.433 1.075 18.070-4.819 28.051-22.854 22.544-41.248-1.204 0.717-0.516 2.144-1.204 3.213 0.688-1.069 0-2.854 1.032-4.282z" />
<glyph unicode="&#xe945;" d="M544.072 227.174c3.27-5.715 0.344-12.147 2.41-19.462 1.72 6.067 5.679 6.426 10.669 6.605-3.614-5.178-7.744-9.645-4.302-17.146-7.228 6.432-5.335-3.571-8.777-3.213 2.065-7.142-4.646-11.424-5.507-17.677-7.228 3.571-9.121 7.322-2.581 14.643 8.605 9.997 8.948 23.213 8.088 36.25z" />
<glyph unicode="&#xe946;" d="M600.518 202.176c4.474 4.64-3.098 9.28 0 13.926 12.563-12.678 13.939-28.749 3.786-43.034-2.409 3.93-3.614 8.038-1.377 12.499 1.032 2.144 2.237 4.467-1.377 5.357-0.344 0-0.516 2.144-0.516 2.144 10.498 3.571-3.27 6.067-0.516 9.107z" />
<glyph unicode="&#xe947;" d="M597.591 218.419c-1.893-1.606-1.549-8.39-6.54-2.854-1.205 1.427-3.27 0.896-4.991 0.358-3.958-1.248-6.367-1.606-3.958 4.282 1.204 2.861-1.204 5.357-3.958 7.68s-8.949 3.213-6.712 9.466c8.776-5.894 17.898-11.61 26.158-18.931z" />
<glyph unicode="&#xe948;" d="M550.955 166.643c7.228 1.069 12.907-3.392 19.103-6.074-1.549-1.248-2.754-2.323-3.958-3.392-6.023 1.606-10.842 5.178-15.144 9.466z" />
<glyph unicode="&#xe949;" d="M539.939 175.213c7.572 1.965 10.154 0 10.842-8.57-4.131 2.138-7.745 4.998-10.842 8.57z" />
<glyph unicode="&#xe94a;" d="M401.062 482.33c5.163 4.464 10.326 1.786 15.489 0.179-5.163-1.964-10.326-2.678-15.489-0.179z" />
<glyph unicode="&#xe94b;" d="M781.043 359.304c-4.474 6.428-0.691 12.142 1.894 17.856 1.549-6.25 1.030-12.142-1.894-17.856z" />
<glyph unicode="&#xe94c;" d="M565.756 241.459c-5.507-3.398-8.088 1.786-11.875 4.102 1.032 2.323 3.098 0.896 4.474 1.606 2.753-1.427 5.679-2.854 7.4-5.709z" />
<glyph unicode="&#xe94d;" d="M590.193 159.68c-1.721 4.64 2.926 6.963 2.926 11.066 3.441-1.248 1.204-4.819 3.441-5.888-1.377-2.682-3.786-4.109-6.367-5.178z" />
<glyph unicode="&#xe94e;" d="M442.364 193.248c2.581-4.826 2.581-9.466 0-14.285-2.065 4.819-1.893 9.459 0 14.285z" />
<glyph unicode="&#xe94f;" d="M428.426 346.805c-2.41 4.82-2.41 9.463 0 14.284 1.893-4.821 1.721-9.642 0-14.284z" />
<glyph unicode="&#xe950;" d="M395.9 195.034c4.475 2.854 9.121 2.496 13.596 0.179-4.474-1.613-9.121-1.965-13.596-0.179z" />
<glyph unicode="&#xe951;" d="M387.124 507.506c2.753-3.571 2.753-7.142 0-10.713-1.721 3.392-1.893 7.142 0 10.713z" />
<glyph unicode="&#xe952;" d="M628.227 218.426c4.13 2.496 8.088 2.675 12.049-0.179-4.132-1.965-8.090-1.254-12.049 0.179z" />
<glyph unicode="&#xe953;" d="M351.33 382.516c2.065 0.714 3.442 4.106 6.367 1.786-1.204-3.036-2.925-5.357-6.367-7.142 0 1.964 0 3.75 0 5.357z" />
<glyph unicode="&#xe954;" d="M380.412 402.157c-0.689 0.357-3.098 0.357-1.549 1.607 2.41 1.964 5.507 3.393 8.433 0.179-2.41-0.536-4.646-1.25-6.884-1.786z" />
<glyph unicode="&#xe955;" d="M459.572 155.93c3.958 3.392 6.883-0.896 10.325-1.606-1.377-0.179-2.753-0.358-4.13-0.538-2.41-0.179-4.474 0.358-6.195 2.144z" />
<glyph unicode="&#xe956;" d="M370.259 234.317c2.41-3.571 2.582-7.142-0.172-10.714-1.549 3.571-1.032 7.142 0.172 10.714z" />
<glyph unicode="&#xe957;" d="M717.542 676.956c-2.413-2.321-4.646-2.499-6.886 0.179 2.24 0.714 4.646 3.214 6.886-0.179z" />
<glyph unicode="&#xe958;" d="M551.299 252.346c-1.893-0.71-3.614-1.958-5.335 0.179-1.032 1.254-1.721 2.502 0.344 3.392 1.549-1.069 3.27-2.317 4.991-3.571z" />
<glyph unicode="&#xe959;" d="M665.914 245.030c-2.413 3.571-2.413 7.136 0 10.707 1.030-3.571 1.030-7.136 0-10.707z" />
<glyph unicode="&#xe95a;" d="M302.627 271.277c0.172 2.496 0.344 4.998 0.688 7.674 1.205-3.034 2.237-6.067-0.344-8.928-0.516 0.358-0.516 0.717-0.344 1.254z" />
<glyph unicode="&#xe95b;" d="M541.662 235.386c0.516 1.069 1.204 2.144 2.41 1.606 0.516-0.179 0.688-1.427 0.688-2.144-0.172-1.606-0.86-3.213-1.204-4.819-1.549 1.427-1.549 3.392-1.893 5.357z" />
<glyph unicode="&#xe95c;" d="M507.589 250.208c-2.582-2.861-5.679-1.254-8.605-0.358 2.41 0.179 4.819 0.358 7.228 0.538 0.688 0.352 1.032 0.352 1.377-0.179z" />
<glyph unicode="&#xe95d;" d="M330.504 243.418c2.926 2.323 5.679 2.502 8.605-0.173-2.925-0.896-5.851-0.717-8.605 0.173z" />
<glyph unicode="&#xe95e;" d="M275.436 311.27c2.925 2.323 5.679 2.502 8.605 0-2.925-1.069-5.679-1.069-8.605 0z" />
<glyph unicode="&#xe95f;" d="M583.824 529.111c-3.098-0.357-6.196-1.071-8.949 1.428 2.925 0.179 6.023 0 8.949-1.428z" />
<glyph unicode="&#xe960;" d="M583.48 545.003c2.065 2.143 4.474 1.964 8.088 0.536-2.409-0.357-3.786-0.536-5.163-0.893-0.86 0.179-1.892 0.357-2.925 0.357z" />
<glyph unicode="&#xe961;" d="M529.786 207.533c-2.065 2.138-1.892 4.64-0.344 8.39 0.344-3.034 0.516-4.998 0.688-6.784 0.172-0.717 0.172-1.075-0.344-1.606z" />
<glyph unicode="&#xe962;" d="M482.118 153.786c-1.893 0.179-3.614 0.358-6.54 0.71 3.614 1.786 5.851 1.786 7.916-0.352l-0.689-0.358h-0.688z" />
<glyph unicode="&#xe963;" d="M534.952 269.67c3.27-0.896 5.679-2.502 5.335-6.611-0.344-4.998 0.172-9.459 4.302-12.672 1.032-0.717 2.409-2.144 0.516-3.398-2.237-1.606-2.237 1.075-3.442 1.786-5.852 4.467-2.582 13.754-9.121 17.856-1.549 0.717 0.172 3.040 2.41 3.040z" />
<glyph unicode="&#xe964;" d="M569.023 163.072c4.302 5.709 9.981 2.317 14.456 3.923 1.893 0.717 3.098-1.427 2.582-3.392-0.516-1.786-1.205-4.282-3.958-3.571-4.13 0.896-8.088 1.965-13.079 3.040z" />
<glyph unicode="&#xe965;" d="M565.928 231.994c2.925-1.248 3.958-4.288 4.302-6.963 0.344-2.682-2.237-3.040-4.302-3.040-2.581 0-4.646 1.434-4.646 4.109 0 3.034 1.893 4.819 4.646 5.894z" />
<glyph unicode="&#xe966;" d="M601.035 201.638c-2.753 2.323-7.055 2.144-6.54 6.605 0 0.717 1.893 2.144 2.237 1.965 3.442-1.427 2.753-5.178 4.302-8.57z" />
<glyph unicode="&#xe967;" d="M555.944 195.744c-1.549 0.179-1.721 1.427-1.549 2.682 0.172 1.606 1.032 2.854 2.581 3.034 1.893 0.179 2.237-1.427 1.893-3.034-0.344-1.427-1.204-2.682-2.925-2.682z" />
<glyph unicode="&#xe968;" d="M492.96 289.843c1.032-5.178 1.204-8.032 0.172-11.782-1.205 3.75-1.033 6.784-0.172 11.782z" />
<glyph unicode="&#xe969;" d="M550.438 221.818c-0.689-1.254-1.205-2.502-2.41-2.144-0.344 0.179-0.689 1.606-0.516 2.317 0.172 1.075 0.861 2.323 2.237 1.786 0.516-0.173 0.689-1.427 0.689-1.958z" />
<glyph unicode="&#xe96a;" d="M552.332 233.6c-0.172-1.069-0.516-2.144-1.549-1.427-0.516 0.358-1.032 1.248-1.204 1.965-0.172 0.89 0.688 1.606 1.549 1.069 0.516-0.179 0.86-1.069 1.204-1.606z" />
<glyph unicode="&#xe96b;" glyph-name="heart-plus" d="M465.456 45.714l-147.783 127.389c-55.854 48.424-103.75 91.633-143.686 129.627-39.967 37.994-72.937 73.75-98.909 107.275-26.003 33.525-45.009 65.931-57.018 97.218-12.040 31.291-18.060 64.069-18.060 98.338 0 70.028 24.436 128.329 73.309 174.905 48.873 46.546 109.77 69.819 182.691 69.819 40.339 0 78.739-8.195 115.2-24.584 36.462-16.389 67.88-39.484 94.256-69.283 26.375 29.799 57.794 52.893 94.252 69.283 36.462 16.389 74.862 24.584 115.2 24.584 62.837 0 115.591-16.941 158.256-50.822 42.668-33.911 71.757-76.568 87.274-127.971h-98.911c-13.963 29.799-34.52 52.148-61.67 67.047-27.154 14.9-55.468 22.35-84.948 22.35-39.563 0-73.695-10.251-102.4-30.753-28.701-20.472-55.464-47.47-80.289-80.994h-53.526c-24.049 33.524-51.387 60.522-82.015 80.994-30.658 20.502-64.217 30.753-100.678 30.753-44.218 0-82.432-14.706-114.642-44.118-32.178-29.441-48.268-66.511-48.268-111.21 0-24.584 5.43-49.541 16.291-74.87s30.254-54.576 58.182-87.742c27.927-33.137 65.939-71.859 114.036-116.173 48.097-44.339 109.381-97.799 183.856-160.377 20.169 17.134 43.831 36.875 70.981 59.224 27.151 22.352 48.87 40.975 65.163 55.874l10.474-10.057 22.667-21.811 33.185-31.824c-17.064-14.903-38.788-33.331-65.163-55.292-26.375-21.994-49.649-41.556-69.819-58.69l-67.489-58.108zM791.274 224.508v134.096h-139.637v89.395h139.637v134.096h93.089v-134.096h139.637v-89.395h-139.637v-134.096h-93.089z" />
<glyph unicode="&#xe96c;" glyph-name="hours-line" d="M512 405.332c25.526 0 50.473-7.631 71.629-21.916 21.158-14.283 37.56-34.568 47.102-58.245 9.54-23.679 11.782-49.668 6.441-74.631-5.343-24.961-18.029-47.755-36.426-65.454l-81.494-78.422h120.748v-85.332h-256v73.556l157.567 151.681c5.085 4.887 8.878 10.959 11.041 17.67 2.165 6.711 2.63 13.855 1.358 20.791-1.274 6.937-4.246 13.449-8.653 18.956-4.405 5.505-10.107 9.834-16.595 12.597-6.49 2.763-13.562 3.875-20.584 3.236s-13.779-3.009-19.661-6.898c-5.884-3.889-10.711-9.175-14.051-15.385-3.34-6.212-5.087-13.154-5.089-20.206h-85.332c0 33.948 13.484 66.505 37.489 90.509s56.564 37.491 90.511 37.491zM768 405.332v-170.668h85.332v170.668h85.334v-384h-85.334v128h-170.666v256h85.334zM170.666 447.998c-0.053-51.182 11.427-101.718 33.587-147.855s54.43-86.688 94.413-118.641v-103.082c-64.887 37.437-118.768 91.306-156.218 156.187-37.451 64.879-57.15 138.48-57.115 213.391h85.333zM512 874.665c221.225 0 403.157-168.406 424.532-384.001h-85.844c-8.675 68.79-38.091 133.308-84.335 184.971-46.244 51.661-107.123 88.017-174.535 104.23-67.414 16.213-138.164 11.514-202.842-13.471-64.676-24.985-120.211-69.072-159.218-126.396h111.573v-85.334h-255.999v256.001h85.333v-106.667c39.696 53.040 91.222 96.085 150.477 125.713s124.606 45.020 190.857 44.954z" />
<glyph unicode="&#xe96d;" glyph-name="hero-shard" d="M743.764 501.932h18.004c28.134 0.453 55.45-9.476 76.731-27.886 21.277-18.41 35.032-44.010 38.634-71.918 1.591-15.521-0.102-31.199-4.97-46.021s-12.8-28.453-23.285-40.005c-10.485-11.553-23.281-20.769-37.563-27.048s-29.722-9.483-45.323-9.403h-22.228v-129.591c0-11.791-4.685-23.099-13.019-31.437-8.338-8.338-19.646-13.019-31.437-13.019h-511.252c-11.791 0-23.098 4.681-31.435 13.019s-13.021 19.646-13.021 31.437v196.275h66.685c9.322 0.051 18.53 2.055 27.030 5.884s16.102 9.395 22.317 16.344c6.323 6.868 11.134 14.987 14.121 23.834s4.083 18.22 3.217 27.513c-2.398 16.944-10.955 32.41-24.036 43.44s-29.768 16.852-46.872 16.355h-62.462v181.607c0 11.791 4.684 23.098 13.021 31.436s19.645 13.021 31.435 13.021h155.598c0.439 15.28 4.026 30.305 10.536 44.136s15.803 26.17 27.297 36.246c11.494 10.077 24.945 17.674 39.508 22.316 14.566 4.642 29.93 6.231 45.136 4.665 26.584-3.352 51.145-15.94 69.391-35.566 18.242-19.625 29.008-45.038 30.416-71.797h133.369c11.791 0 23.099-4.684 31.437-13.021 8.335-8.338 13.019-19.645 13.019-31.436v-159.379zM447.718 325.292l65.218-101.102 41.644 109.904 116.023 24.664-94.442 75.674 5.873 123.505-100.97-61.553-112.757 43.952 33.602-118.096-74.36-91.015 120.17-5.932z" />
<glyph unicode="&#xe96e;" glyph-name="hero" d="M740.571 704h-457.143l-137.143-132.988 365.714-354.629 365.714 354.629-137.143 132.988zM589.714 398.131l-77.714 39.896-77.714-39.896 13.714 84.224-64 62.062 86.857 13.297 41.143 75.359 41.143-79.792 86.857-13.297-64-57.629 13.714-84.224z" />
<glyph unicode="&#xe96f;" glyph-name="home" d="M213.333 21.332h597.335c22.63 0 44.336 8.993 60.339 24.993 16.004 16.004 24.993 37.709 24.993 60.343v384c0.033 5.614-1.042 11.18-3.167 16.38-2.125 5.197-5.252 9.925-9.205 13.912l-341.336 341.333c-7.995 7.947-18.809 12.407-30.080 12.407s-22.085-4.461-30.080-12.407l-341.332-341.333c-4.032-3.953-7.239-8.664-9.436-13.864s-3.341-10.785-3.364-16.428v-384c0-22.634 8.99-44.339 24.994-60.343 16.003-16 37.708-24.993 60.34-24.993zM426.668 106.668v213.332h170.664v-213.332h-170.664zM213.333 473.172l298.667 298.668 298.668-298.668v-366.504h-128v213.332c0 22.63-8.993 44.336-24.997 60.339-16 16.004-37.705 24.993-60.339 24.993h-170.664c-22.634 0-44.339-8.989-60.339-24.993-16.005-16.004-24.995-37.709-24.995-60.339v-213.332h-128v366.504z" />
<glyph unicode="&#xe970;" glyph-name="icon-metafi" d="M406.636 686.125c-16.56 29.928-58.65 30.141-75.499 0.383l-205.11-362.259c-11.192-19.764 2.757-44.506 25.095-44.506h102.392c16.015 0 28.998-13.274 28.998-29.651 0-16.371-12.983-29.651-28.998-29.651h-102.392c-67.012 0-108.861 74.221-75.285 133.52l205.11 362.259c39.315 69.436 137.524 68.938 176.164-0.893l59.583-107.681 60.73 107.259c39.542 69.837 138.486 68.829 176.662-1.801l194.938-360.686c32.038-59.286-9.894-131.977-76.141-131.977h-97.421c-16.013 0-28.998 13.28-28.998 29.651 0 16.378 12.986 29.651 28.998 29.651h97.421c22.080 0 36.058 24.23 25.382 43.992l-194.938 360.687c-16.365 30.269-58.765 30.702-75.714 0.772l-77.798-137.405 107.676-194.592c32.806-59.296-9.088-132.755-75.715-132.755h-133.434c-67.012 0-108.861 74.221-75.285 133.52l109.937 194.166-76.358 137.998zM516.116 488.27l-92.868-164.020c-11.192-19.764 2.758-44.506 25.095-44.506h133.434c22.21 0 36.174 24.486 25.238 44.252l-90.899 164.275z" />
<glyph unicode="&#xe971;" glyph-name="idea" d="M483.883 892.117v-128h64v128h-64zM237.255 832l-45.255-45.255 90.509-90.509 45.255 45.254-90.509 90.51zM768 442.182c0-85.646-40.211-161.689-102.374-209.452-13.395-10.298-14.643-24.41-15.93-38.944-1.037-11.789-2.106-23.846-9.696-34.374v-95.411c0-35.347-28.654-64-64-64h-128c-35.347 0-64 28.653-64 64v95.411c-7.592 10.528-8.657 22.586-9.698 34.374-1.284 14.534-2.53 28.646-15.927 38.944-62.166 47.763-102.375 123.806-102.375 209.452 0 144.598 114.615 261.818 256 261.818 141.382 0 256-117.22 256-261.818zM192 448h-128v-64h128v64zM203.3 612.449l-117.825 50.013-25.007-58.912 117.825-50.014 25.007 58.913zM949.824 662.463l-117.824-50.013 25.005-58.913 117.824 50.014-25.005 58.912zM839.763 786.745l-45.254 45.255-90.509-90.51 45.254-45.254 90.509 90.509zM960 448h-128v-64h128v64z" />
<glyph unicode="&#xe972;" glyph-name="indivi" d="M720.98 720.254c0-53.885-22.020-105.563-61.21-143.665-39.19-38.104-92.347-59.509-147.771-59.509s-108.581 21.405-147.771 59.509c-39.191 38.102-61.209 89.78-61.209 143.665s22.018 105.564 61.209 143.666c39.19 38.102 92.347 59.508 147.771 59.508s108.581-21.406 147.771-59.508c39.19-38.103 61.21-89.781 61.21-143.666zM877.714 263.109c0-126.475-104.488-253.967-365.714-253.967-261.225 0-365.714 126.983-365.714 253.967 0 40.415 16.513 79.173 45.907 107.75s69.259 44.632 110.828 44.632h417.96c41.567 0 81.434-16.055 110.826-44.632 29.396-28.577 45.908-67.335 45.908-107.75z" />
<glyph unicode="&#xe973;" glyph-name="info" d="M512 874.709c235.691 0 426.752-191.061 426.752-426.752 0-235.648-191.061-426.709-426.752-426.709s-426.667 191.061-426.667 426.709c-0.043 235.691 190.976 426.752 426.667 426.752zM511.829 522.709c-10.458-0.013-20.544-3.866-28.348-10.829-7.799-6.959-12.774-16.546-13.978-26.931l-0.299-4.949 0.171-234.752 0.256-4.992c1.203-10.406 6.191-20.006 14.016-26.97s17.937-10.807 28.412-10.799c10.475 0.013 20.578 3.874 28.39 10.854 7.808 6.98 12.779 16.593 13.961 26.999l0.256 4.992-0.171 234.709-0.299 4.992c-1.233 10.377-6.234 19.942-14.050 26.88s-17.907 10.761-28.361 10.752l0.043 0.043zM512.043 682.667c-14.161 0-27.742-5.626-37.756-15.64s-15.642-23.596-15.642-37.757c0-14.162 5.628-27.744 15.642-37.757s23.595-15.64 37.756-15.64c14.161 0.006 27.742 5.637 37.751 15.655s15.629 23.602 15.625 37.764c-0.004 14.162-5.636 27.741-15.654 37.751s-23.603 15.63-37.764 15.625h0.043z" />
<glyph unicode="&#xe974;" glyph-name="introduce" d="M192 224h640v608h-576c-16.974 0-33.252-6.743-45.255-18.745s-18.745-28.281-18.745-45.255v-544zM256 896h608c8.485 0 16.625-3.371 22.63-9.373 5.998-6.001 9.37-14.141 9.37-22.627v-672c0-8.485-3.372-16.625-9.37-22.63-6.005-5.998-14.146-9.37-22.63-9.37h-704l-32-57.534v665.534c0 33.948 13.485 66.505 37.49 90.51s56.562 37.49 90.51 37.49v0zM240 160c-12.731 0-24.94-5.054-33.941-14.058s-14.059-21.211-14.059-33.946c0-12.727 5.057-24.934 14.059-33.938s21.211-14.058 33.941-14.058h592v96h-592zM240 224h656v-160c0-16.976-6.744-33.251-18.747-45.253s-28.277-18.747-45.253-18.747h-592c-29.704 0-58.192 11.798-79.196 32.805s-32.804 49.488-32.804 79.192c0 29.711 11.8 58.192 32.804 79.199s49.492 32.805 79.196 32.805v0zM384 832v-250.88l96 76.8 96-76.8v250.88h-192zM320 896h320v-381.44c-0.009-6.021-1.716-11.919-4.925-17.013s-7.793-9.18-13.22-11.787c-5.428-2.607-11.481-3.629-17.464-2.95s-11.653 3.033-16.358 6.79l-108.032 86.4-108.032-86.4c-4.705-3.757-10.375-6.111-16.358-6.79s-12.036 0.343-17.464 2.95c-5.427 2.607-10.010 6.693-13.22 11.787s-4.917 10.992-4.925 17.013v381.44z" />
<glyph unicode="&#xe975;" glyph-name="items" d="M512 886.857l365.714-159.585v-239.377c0-219.429-154.412-426.887-365.714-478.753-211.302 51.866-365.714 259.324-365.714 478.753v239.377l365.714 159.585zM512 799.086l-284.445-123.678v-195.492c0-171.553 130.032-351.086 284.445-390.981 154.412 39.896 284.445 219.429 284.445 390.981v195.492l-284.445 123.678zM512 707.325l81.269-63.834-40.635-235.387h81.269v-79.792h-81.269v-119.691h-81.269v119.691h-81.269v79.792h81.269l-40.635 235.387 81.269 63.834z" />
<glyph unicode="&#xe976;" glyph-name="land" d="M775.314 777.143h-526.629c-36.206 0-65.829-29.623-65.829-65.829v-526.629c0-36.206 29.623-65.829 65.829-65.829h526.629c36.206 0 65.829 29.623 65.829 65.829v526.629c0 36.206-29.623 65.829-65.829 65.829zM620.617 711.314c-26.331-36.206-42.789-82.286-42.789-131.657h-131.657c0 52.663 26.331 102.034 65.829 131.657h108.617zM577.829 382.171h-131.657c0 49.371-16.457 95.451-42.789 131.657h108.617c39.497-29.623 65.829-78.994 65.829-131.657zM248.686 711.314h174.446c-26.331-36.206-42.789-82.286-42.789-131.657h-131.657v131.657zM248.686 513.829h65.829c39.497-29.623 65.829-75.703 65.829-131.657h-131.657v131.657zM248.686 184.686v131.657h174.446c-26.331-36.206-42.789-82.286-42.789-131.657h-131.657zM446.171 184.686c0 52.663 26.331 102.034 65.829 131.657h108.617c-26.331-36.206-42.789-82.286-42.789-131.657h-131.657zM775.314 184.686h-131.657c0 52.663 26.331 102.034 65.829 131.657h65.829v-131.657zM775.314 382.171h-131.657c0 49.371-16.457 95.451-42.789 131.657h174.446v-131.657zM775.314 579.657h-131.657c0 52.663 26.331 102.034 65.829 131.657h65.829v-131.657z" />
<glyph unicode="&#xe977;" glyph-name="lending" d="M512 128c-106.042 0-192 85.958-192 192s85.958 192 192 192c106.042 0 192-85.958 192-192s-85.958-192-192-192zM444.8 281.6v-38.4h48v-38.4h38.4v38.4h19.2c12.73 0 24.94 5.056 33.941 14.061 9.002 8.998 14.059 21.21 14.059 33.939s-5.057 24.941-14.059 33.941c-9.002 9.002-21.211 14.059-33.941 14.059h-76.8c-2.546 0-4.988 1.011-6.788 2.812s-2.812 4.243-2.812 6.788c0 2.546 1.011 4.988 2.812 6.788s4.243 2.812 6.788 2.812h105.6v38.4h-48v38.4h-38.4v-38.4h-19.2c-12.73 0-24.94-5.057-33.941-14.059s-14.059-21.211-14.059-33.941c0-12.73 5.057-24.94 14.059-33.939 9.002-9.005 21.211-14.061 33.941-14.061h76.8c2.546 0 4.988-1.011 6.788-2.81 1.8-1.805 2.812-4.243 2.812-6.79s-1.011-4.986-2.812-6.79c-1.8-1.798-4.243-2.81-6.788-2.81h-105.6zM589.58 726.048c20.575 18.67 32.135 43.993 32.135 70.396s-11.56 51.727-32.135 70.397c-20.575 18.67-48.481 29.159-77.58 29.159s-57.004-10.489-77.58-29.159c-20.575-18.67-32.135-43.993-32.135-70.397s11.56-51.726 32.135-70.396c20.575-18.67 48.481-29.159 77.58-29.159s57.004 10.489 77.58 29.159zM683.085 510.441c14.323 18.979 20.915 40.521 20.915 62.003 0 19.803-8.672 38.795-24.102 52.797s-36.358 21.869-58.183 21.869h-219.429c-21.823 0-42.753-7.867-58.184-21.869s-24.101-32.995-24.101-52.797c0-21.543 6.576-43.087 20.867-62.048 45.347 40.785 105.341 65.604 171.133 65.604 65.767 0 125.742-24.801 171.085-65.559zM758.112 249.293c6.438 22.458 9.888 46.182 9.888 70.707 0 44.872-11.546 87.048-31.827 123.719 10.227 2.814 20.947 4.281 31.827 4.281 29.101 0 57.005-10.489 77.581-29.159s32.134-43.993 32.134-70.397c0-26.403-11.558-51.727-32.134-70.396s-48.48-29.158-77.581-29.158c-3.315 0-6.611 0.134-9.888 0.403zM588.365 75.584c64.441 20.115 117.945 65.005 149.35 123.526h140c21.824 0 42.752-7.866 58.182-21.869s24.102-32.992 24.102-52.8c0-61.971-54.854-124.442-192-124.442-100.365 0-156.659 33.325-179.635 75.584zM286.285 199.11c31.4-58.502 84.882-103.392 149.3-123.514-23.008-42.189-79.294-75.597-179.585-75.597-137.143 0-192 62.221-192 124.442 0 19.808 8.669 38.797 24.101 52.8s36.361 21.869 58.184 21.869h139.999zM287.827 443.719c-20.282-36.671-31.827-78.847-31.827-123.719 0-24.525 3.45-48.25 9.889-70.707-3.275-0.269-6.574-0.403-9.889-0.403-29.098 0-57.004 10.49-77.58 29.158s-32.135 43.993-32.135 70.396c0 26.404 11.56 51.727 32.135 70.397s48.481 29.159 77.58 29.159c10.883 0 21.599-1.467 31.827-4.281z" />
</font>
</defs>
</svg>
