<svg width="50" height="50" viewBox="0 0 50 50" fill="none" xmlns="http://www.w3.org/2000/svg">
<path d="M25 27.0834C26.2464 27.0834 27.4645 27.456 28.4975 28.1535C29.5306 28.8509 30.3315 29.8414 30.7974 30.9975C31.2632 32.1537 31.3727 33.4227 31.1119 34.6416C30.851 35.8604 30.2316 36.9734 29.3333 37.8376L25.3541 41.6668H31.25V45.8334H18.75V42.2418L26.4437 34.8355C26.692 34.5969 26.8772 34.3004 26.9828 33.9727C27.0885 33.645 27.1112 33.2962 27.0491 32.9575C26.9869 32.6188 26.8418 32.3008 26.6266 32.0319C26.4115 31.7631 26.1331 31.5517 25.8163 31.4168C25.4994 31.2819 25.1541 31.2276 24.8112 31.2588C24.4683 31.29 24.1384 31.4057 23.8512 31.5956C23.5639 31.7855 23.3282 32.0436 23.1651 32.3468C23.002 32.6501 22.9167 32.9891 22.9166 33.3334H18.75C18.75 31.6758 19.4084 30.0861 20.5805 28.914C21.7526 27.7419 23.3424 27.0834 25 27.0834ZM37.5 27.0834V35.4168H41.6666V27.0834H45.8333V45.8334H41.6666V39.5834H33.3333V27.0834H37.5ZM8.3333 25.0001C8.33073 27.4992 8.89127 29.9668 9.97329 32.2196C11.0553 34.4724 12.631 36.4524 14.5833 38.0126V43.0459C11.415 41.2179 8.7841 38.5876 6.95546 35.4196C5.12681 32.2517 4.16493 28.6579 4.16663 25.0001H8.3333ZM25 4.16676C35.802 4.16676 44.6854 12.3897 45.7291 22.9168H41.5375C41.1139 19.5579 39.6776 16.4076 37.4196 13.885C35.1616 11.3625 32.189 9.58729 28.8974 8.79565C25.6057 8.004 22.1511 8.23344 18.993 9.45343C15.835 10.6734 13.1233 12.8261 11.2187 15.6251H16.6666V19.7918H4.16663V7.29176H8.3333V12.5001C10.2716 9.91027 12.7875 7.80845 15.6808 6.36178C18.5741 4.91512 21.7651 4.16352 25 4.16676Z" fill="black"/>
</svg>
