<svg width="50" height="50" viewBox="0 0 50 50" fill="none" xmlns="http://www.w3.org/2000/svg">
<g clip-path="url(#clip0_101_15036)">
<path d="M33.3333 18.7501C31.4375 18.7501 29.6458 19.1251 27.9792 19.7918L26.5208 13.4376L34.625 5.33347C35.8333 4.1668 35.8333 2.14597 34.625 0.9168C33.4167 -0.312367 31.4167 -0.304034 30.2083 0.9168L22.1042 9.02097L2.9375 4.6043L0 7.5418L15.4792 15.6251L7.375 23.7501L2.20833 23.021L0 25.2293L6.625 28.896L10.3125 35.5418L12.5 33.3335L11.7917 28.1251L19.8958 20.0626L22.0208 24.146C20.2813 26.2837 19.1836 28.871 18.8552 31.6075C18.5268 34.344 18.9811 37.1175 20.1655 39.6061C21.3498 42.0948 23.2157 44.1966 25.5464 45.6676C27.8771 47.1386 30.5772 47.9185 33.3333 47.9168C41.3958 47.9168 47.9167 41.396 47.9167 33.3335C47.9167 25.271 41.3958 18.7501 33.3333 18.7501ZM33.3333 43.7501C27.5833 43.7501 22.9167 39.0835 22.9167 33.3335C22.9167 27.5835 27.5833 22.9168 33.3333 22.9168C39.0833 22.9168 43.75 27.5835 43.75 33.3335C43.75 39.0835 39.0833 43.7501 33.3333 43.7501ZM34.375 33.8543V25.0001H31.25V35.4168L38.7708 39.9168L40.3333 37.3751L34.375 33.8543Z" fill="black"/>
</g>
<defs>
<clipPath id="clip0_101_15036">
<rect width="50" height="50" fill="white"/>
</clipPath>
</defs>
</svg>
