<svg width="50" height="50" viewBox="0 0 50 50" fill="none" xmlns="http://www.w3.org/2000/svg">
<path d="M21.9583 30.2708L17.5208 25.8333L15.3125 28.0417L21.9375 34.6667L34.4375 22.1667L32.2291 19.9583L21.9583 30.2708ZM25 41.6667C21.1322 41.6667 17.4229 40.1302 14.688 37.3953C11.9531 34.6604 10.4166 30.9511 10.4166 27.0833C10.4166 23.2156 11.9531 19.5063 14.688 16.7714C17.4229 14.0365 21.1322 12.5 25 12.5C28.8677 12.5 32.577 14.0365 35.3119 16.7714C38.0468 19.5063 39.5833 23.2156 39.5833 27.0833C39.5833 30.9511 38.0468 34.6604 35.3119 37.3953C32.577 40.1302 28.8677 41.6667 25 41.6667ZM25 8.33333C20.0272 8.33333 15.258 10.3088 11.7417 13.8251C8.2254 17.3414 6.24996 22.1105 6.24996 27.0833C6.24996 32.0561 8.2254 36.8253 11.7417 40.3416C15.258 43.8579 20.0272 45.8333 25 45.8333C29.9728 45.8333 34.7419 43.8579 38.2582 40.3416C41.7745 36.8253 43.75 32.0561 43.75 27.0833C43.75 22.1105 41.7745 17.3414 38.2582 13.8251C34.7419 10.3088 29.9728 8.33333 25 8.33333ZM16.4166 7.0625L13.75 3.875L4.16663 11.8958L6.85413 15.0833L16.4166 7.0625ZM45.8333 11.9167L36.25 3.875L33.5625 7.0625L43.1458 15.1042L45.8333 11.9167Z" fill="black"/>
</svg>
