<svg width="60" height="60" viewBox="0 0 60 60" fill="none" xmlns="http://www.w3.org/2000/svg">
<path d="M22.775 20H27.25V42.5C27.25 43.875 28.375 45 29.75 45C31.125 45 32.25 43.875 32.25 42.5V20H36.725C37.85 20 38.4 18.65 37.6 17.875L30.625 10.9C30.125 10.4 29.35 10.4 28.85 10.9L21.875 17.875C21.7022 18.0512 21.5855 18.2747 21.5395 18.5171C21.4936 18.7596 21.5204 19.0103 21.6166 19.2375C21.7129 19.4648 21.8742 19.6584 22.0804 19.7941C22.2865 19.9298 22.5282 20.0014 22.775 20ZM9.75 2.5C9.75 3.875 10.875 5 12.25 5H47.25C48.625 5 49.75 3.875 49.75 2.5C49.75 1.125 48.625 0 47.25 0H12.25C10.875 0 9.75 1.125 9.75 2.5Z" fill="black"/>
</svg>
