<svg width="30" height="30" viewBox="0 0 30 30" fill="none" xmlns="http://www.w3.org/2000/svg">
<path d="M10.4239 11.4234L11.7523 11.0167C11.8569 10.9847 11.9669 10.9736 12.0759 10.9841C12.1848 10.9946 12.2906 11.0264 12.3873 11.0778C12.4839 11.1292 12.5695 11.1991 12.6392 11.2835C12.7088 11.368 12.7611 11.4653 12.7931 11.57C12.8251 11.6747 12.8362 11.7847 12.8257 11.8936C12.8152 12.0026 12.7834 12.1084 12.732 12.205C12.6806 12.3017 12.6107 12.3873 12.5262 12.4569C12.4418 12.5265 12.3444 12.5788 12.2398 12.6109L9.05227 13.5859C8.94754 13.6179 8.83753 13.6289 8.72852 13.6184C8.61952 13.6079 8.51366 13.576 8.41699 13.5245C8.32033 13.473 8.23475 13.403 8.16517 13.3185C8.09558 13.2339 8.04334 13.1365 8.01144 13.0317L7.03644 9.84419C7.00443 9.73952 6.99335 9.62956 7.00383 9.52061C7.01432 9.41165 7.04616 9.30583 7.09754 9.20918C7.14892 9.11253 7.21884 9.02694 7.30329 8.95731C7.38775 8.88768 7.4851 8.83537 7.58977 8.80336C7.80117 8.73871 8.02959 8.76069 8.22479 8.86446C8.41998 8.96823 8.56596 9.14529 8.6306 9.35669L8.99727 10.5575C11.0039 7.46669 14.9848 6.13752 18.5189 7.58586C19.5759 8.01907 20.525 8.67864 21.2996 9.51816C22.0742 10.3577 22.6554 11.3567 23.0023 12.445C23.0378 12.5499 23.0522 12.6607 23.0444 12.7712C23.0366 12.8816 23.0069 12.9894 22.9571 13.0882C22.9072 13.187 22.8381 13.2749 22.7539 13.3468C22.6696 13.4186 22.5719 13.473 22.4665 13.5066C22.361 13.5403 22.2499 13.5526 22.1396 13.5428C22.0294 13.5331 21.9221 13.5014 21.8242 13.4498C21.7263 13.3981 21.6397 13.3274 21.5694 13.2419C21.4991 13.1564 21.4465 13.0577 21.4148 12.9517C21.0627 11.8462 20.4051 10.8628 19.518 10.115C18.6309 9.36728 17.5503 8.88571 16.4012 8.7259C15.252 8.56609 14.0811 8.73456 13.0236 9.21187C11.9661 9.68917 11.0643 10.4558 10.4239 11.4234ZM20.6964 18.2525L19.2173 18.6217C19.1102 18.6511 18.9983 18.6587 18.8882 18.6442C18.7781 18.6297 18.672 18.5934 18.5761 18.5373C18.4802 18.4812 18.3965 18.4066 18.33 18.3177C18.2634 18.2288 18.2152 18.1275 18.1883 18.0197C18.1615 17.912 18.1564 17.8 18.1734 17.6902C18.1904 17.5805 18.2292 17.4752 18.2875 17.3807C18.3458 17.2862 18.4224 17.2042 18.5128 17.1397C18.6032 17.0752 18.7056 17.0294 18.8139 17.005L21.8498 16.2475C22.0079 16.1723 22.1859 16.1489 22.3581 16.1809C22.5241 16.2027 22.6796 16.274 22.8044 16.3855C22.9293 16.4969 23.0177 16.6434 23.0581 16.8059L23.8648 20.0392C23.9126 20.2516 23.8754 20.4742 23.7611 20.6595C23.6469 20.8448 23.4647 20.978 23.2535 21.0307C23.0423 21.0834 22.8189 21.0513 22.631 20.9414C22.4431 20.8315 22.3057 20.6524 22.2481 20.4425L21.9731 19.3409C21.1707 20.4955 20.0718 21.4124 18.7921 21.9949C17.5124 22.5774 16.0993 22.804 14.7016 22.6508C13.3039 22.4975 11.9734 21.9702 10.8503 21.1243C9.72714 20.2784 8.85294 19.1452 8.31977 17.8442L8.1031 17.3159C8.06163 17.2146 8.04051 17.1061 8.04095 16.9967C8.04139 16.8872 8.06338 16.7789 8.10567 16.678C8.14796 16.5771 8.20972 16.4854 8.28742 16.4083C8.36512 16.3313 8.45724 16.2703 8.55852 16.2288C8.76307 16.145 8.99251 16.1459 9.19638 16.2313C9.29733 16.2736 9.38895 16.3354 9.46603 16.4131C9.54311 16.4908 9.60413 16.5829 9.6456 16.6842L9.86227 17.2117C10.2871 18.2482 10.9868 19.149 11.8861 19.817C12.7854 20.4849 13.85 20.8946 14.965 21.0018C16.0801 21.109 17.2032 20.9097 18.2133 20.4253C19.2233 19.941 20.0819 19.1891 20.6964 18.2525Z" fill="black"/>
</svg>
