<svg width="308" height="125" viewBox="0 0 308 125" fill="none" xmlns="http://www.w3.org/2000/svg">
<rect width="26" height="26" transform="matrix(-1 0 0 1 41 0)" fill="#145528"/>
<rect width="15" height="15" transform="matrix(-1 0 0 1 15 47)" fill="#145528"/>
<rect x="31" y="32" width="267" height="60" fill="#145528"/>
<g filter="url(#filter0_d_439_5330)">
<rect width="256" height="73" transform="translate(48 44)" fill="white"/>
<path d="M98.5921 87.0403H104.067C103.994 88.4663 103.566 89.7234 102.784 90.8117C102.002 91.9 100.917 92.749 99.5306 93.3588C98.1542 93.9592 96.5275 94.2594 94.6506 94.2594C93.1282 94.2594 91.7674 94.0296 90.5682 93.5699C89.3795 93.1102 88.3681 92.4488 87.5339 91.5857C86.7101 90.7226 86.0792 89.6765 85.6413 88.4475C85.2138 87.2186 85 85.8348 85 84.2962V83.1845C85 81.6459 85.2242 80.2621 85.6726 79.0331C86.1314 77.7948 86.7779 76.744 87.6121 75.8809C88.4567 75.0084 89.4682 74.3424 90.6465 73.8827C91.8247 73.423 93.1334 73.1931 94.5724 73.1931C96.5536 73.1931 98.2272 73.5121 99.5932 74.15C100.959 74.788 102.018 75.6652 102.768 76.7816C103.519 77.8886 103.962 79.1504 104.098 80.567H98.6234C98.6026 79.7977 98.4566 79.1551 98.1855 78.6391C97.9144 78.1137 97.4868 77.7197 96.9029 77.457C96.319 77.1943 95.5421 77.063 94.5724 77.063C93.8946 77.063 93.3054 77.1756 92.8049 77.4007C92.3044 77.6259 91.8873 77.9824 91.5536 78.4702C91.22 78.9581 90.9697 79.5913 90.8029 80.37C90.6465 81.1393 90.5682 82.0681 90.5682 83.1563V84.2962C90.5682 85.3845 90.6412 86.3132 90.7872 87.0825C90.9332 87.8518 91.1678 88.4804 91.4911 88.9682C91.8143 89.4561 92.2314 89.8172 92.7424 90.0518C93.2637 90.2769 93.8998 90.3895 94.6506 90.3895C95.4848 90.3895 96.1886 90.2723 96.7621 90.0377C97.3356 89.7938 97.7788 89.4279 98.0916 88.9401C98.4045 88.4428 98.5713 87.8096 98.5921 87.0403Z" fill="#145528"/>
<path d="M116.314 77.7948L110.761 93.978H104.864L113.232 73.4886H116.97L116.314 77.7948ZM120.912 93.978L115.344 77.7948L114.624 73.4886H118.409L126.824 93.978H120.912ZM120.693 86.3367V90.1503H109.009V86.3367H120.693ZM113.451 72.4191L116.548 68.0004H122.116L117.753 72.4191H113.451Z" fill="#145528"/>
<path d="M141.105 87.0403H146.579C146.506 88.4663 146.079 89.7234 145.297 90.8117C144.515 91.9 143.43 92.749 142.043 93.3588C140.667 93.9592 139.04 94.2594 137.163 94.2594C135.641 94.2594 134.28 94.0296 133.081 93.5699C131.892 93.1102 130.881 92.4488 130.046 91.5857C129.223 90.7226 128.592 89.6765 128.154 88.4475C127.726 87.2186 127.513 85.8348 127.513 84.2962V83.1845C127.513 81.6459 127.737 80.2621 128.185 79.0331C128.644 77.7948 129.29 76.744 130.125 75.8809C130.969 75.0084 131.981 74.3424 133.159 73.8827C134.337 73.423 135.646 73.1931 137.085 73.1931C139.066 73.1931 140.74 73.5121 142.106 74.15C143.472 74.788 144.53 75.6652 145.281 76.7816C146.032 77.8886 146.475 79.1504 146.61 80.567H141.136C141.115 79.7977 140.969 79.1551 140.698 78.6391C140.427 78.1137 139.999 77.7197 139.416 77.457C138.832 77.1943 138.055 77.063 137.085 77.063C136.407 77.063 135.818 77.1756 135.318 77.4007C134.817 77.6259 134.4 77.9824 134.066 78.4702C133.733 78.9581 133.482 79.5913 133.315 80.37C133.159 81.1393 133.081 82.0681 133.081 83.1563V84.2962C133.081 85.3845 133.154 86.3132 133.3 87.0825C133.446 87.8518 133.68 88.4804 134.004 88.9682C134.327 89.4561 134.744 89.8172 135.255 90.0518C135.776 90.2769 136.412 90.3895 137.163 90.3895C137.997 90.3895 138.701 90.2723 139.275 90.0377C139.848 89.7938 140.291 89.4279 140.604 88.9401C140.917 88.4428 141.084 87.8096 141.105 87.0403Z" fill="#145528"/>
<path d="M164.52 81.6224V85.422H152.836V81.6224H164.52ZM154.666 73.4886V93.978H149.176V73.4886H154.666ZM168.211 73.4886V93.978H162.736V73.4886H168.211Z" fill="#145528"/>
<path d="M185.009 94.0057H179.957L179.988 90.2062H185.009C186.052 90.2062 186.933 89.981 187.652 89.5307C188.382 89.0804 188.935 88.4096 189.31 87.5183C189.696 86.6177 189.889 85.5107 189.889 84.1973V83.3107C189.889 82.3257 189.779 81.4625 189.561 80.7214C189.352 79.9709 189.039 79.347 188.622 78.8498C188.205 78.3432 187.684 77.9632 187.058 77.7099C186.443 77.4566 185.734 77.33 184.931 77.33H179.863V73.5164H184.931C186.474 73.5164 187.887 73.7556 189.169 74.2341C190.462 74.7031 191.578 75.3786 192.517 76.2605C193.466 77.133 194.196 78.1696 194.706 79.3705C195.228 80.5619 195.489 81.8847 195.489 83.3389V84.1973C195.489 85.642 195.228 86.9648 194.706 88.1657C194.196 89.3665 193.471 90.4032 192.532 91.2757C191.594 92.1482 190.483 92.8236 189.201 93.3021C187.929 93.7712 186.531 94.0057 185.009 94.0057ZM183.101 73.5164V94.0057H177.611V73.5164H183.101ZM186.823 82.3819V85.0698H175.39V82.3819H186.823Z" fill="#145528"/>
<path d="M207.657 77.8225L202.105 94.0057H196.208L204.576 73.5164H208.314L207.657 77.8225ZM212.256 94.0057L206.688 77.8225L205.968 73.5164H209.753L218.168 94.0057H212.256ZM212.037 86.3644V90.178H200.353V86.3644H212.037ZM209.393 68H213.007C213.007 68.8443 212.767 69.5949 212.287 70.2516C211.818 70.8989 211.151 71.4055 210.285 71.7714C209.42 72.1373 208.398 72.3202 207.219 72.3202C205.436 72.3202 204.023 71.9215 202.981 71.1241C201.938 70.3172 201.417 69.2759 201.417 68H205.014C205.014 68.4597 205.181 68.8725 205.514 69.2384C205.848 69.6042 206.416 69.7872 207.219 69.7872C208.022 69.7872 208.585 69.6042 208.909 69.2384C209.232 68.8725 209.393 68.4597 209.393 68ZM204.357 97.1157C204.357 96.5153 204.628 96.0134 205.17 95.61C205.713 95.2159 206.416 95.0189 207.282 95.0189C208.147 95.0189 208.851 95.2159 209.393 95.61C209.936 96.0134 210.207 96.5153 210.207 97.1157C210.207 97.7161 209.936 98.2133 209.393 98.6074C208.851 99.0108 208.147 99.2125 207.282 99.2125C206.416 99.2125 205.713 99.0108 205.17 98.6074C204.628 98.2133 204.357 97.7161 204.357 97.1157Z" fill="#145528"/>
<path d="M228.992 73.5164V94.0057H223.502V73.5164H228.992ZM235.843 73.5164V77.33H216.807V73.5164H235.843Z" fill="#145528"/>
<path d="M249.982 73.5164L253.705 80.3274L257.427 73.5164H263.684L257.334 83.6766L263.856 94.0057H257.537L253.705 87.068L249.873 94.0057H243.538L250.076 83.6766L243.71 73.5164H249.982Z" fill="#145528"/>
<path d="M281.343 90.2062V94.0057H269.205V90.2062H281.343ZM271.16 73.5164V94.0057H265.67V73.5164H271.16ZM279.779 81.6502V85.3231H269.205V81.6502H279.779ZM281.39 73.5164V77.33H269.205V73.5164H281.39Z" fill="#145528"/>
<path d="M69 103L74.7735 93H63.2265L69 103ZM68 60V94H70V60H68Z" fill="#145528"/>
</g>
<defs>
<filter id="filter0_d_439_5330" x="44" y="44" width="264" height="81" filterUnits="userSpaceOnUse" color-interpolation-filters="sRGB">
<feFlood flood-opacity="0" result="BackgroundImageFix"/>
<feColorMatrix in="SourceAlpha" type="matrix" values="0 0 0 0 0 0 0 0 0 0 0 0 0 0 0 0 0 0 127 0" result="hardAlpha"/>
<feOffset dy="4"/>
<feGaussianBlur stdDeviation="2"/>
<feComposite in2="hardAlpha" operator="out"/>
<feColorMatrix type="matrix" values="0 0 0 0 0 0 0 0 0 0 0 0 0 0 0 0 0 0 0.25 0"/>
<feBlend mode="normal" in2="BackgroundImageFix" result="effect1_dropShadow_439_5330"/>
<feBlend mode="normal" in="SourceGraphic" in2="effect1_dropShadow_439_5330" result="shape"/>
</filter>
</defs>
</svg>
