<svg width="537" height="421" viewBox="0 0 537 421" fill="none" xmlns="http://www.w3.org/2000/svg">
<rect width="50" height="50" transform="matrix(-1 0 0 1 100 0)" fill="#145528"/>
<rect width="31" height="31" transform="matrix(-1 0 0 1 31 130)" fill="#145528"/>
<rect x="137" y="49" width="334" height="334" fill="#145528"/>
<g filter="url(#filter0_d_109_15176)">
<rect width="332.181" height="327.152" transform="translate(200 85)" fill="white"/>
<path d="M276.424 198.548H289.241C289.07 202.259 288.069 205.531 286.238 208.363C284.407 211.195 281.868 213.404 278.621 214.991C275.398 216.554 271.59 217.335 267.195 217.335C263.631 217.335 260.445 216.737 257.637 215.541C254.854 214.344 252.486 212.623 250.533 210.377C248.604 208.131 247.127 205.409 246.102 202.21C245.101 199.012 244.6 195.411 244.6 191.407V188.514C244.6 184.51 245.125 180.909 246.175 177.711C247.249 174.488 248.763 171.754 250.716 169.508C252.693 167.237 255.062 165.504 257.82 164.308C260.579 163.111 263.643 162.513 267.012 162.513C271.651 162.513 275.569 163.343 278.768 165.003C281.966 166.664 284.444 168.946 286.202 171.852C287.959 174.732 288.997 178.016 289.314 181.703H276.497C276.448 179.701 276.106 178.028 275.472 176.686C274.837 175.318 273.836 174.293 272.469 173.609C271.102 172.926 269.283 172.584 267.012 172.584C265.425 172.584 264.046 172.877 262.874 173.463C261.702 174.049 260.726 174.977 259.944 176.246C259.163 177.516 258.577 179.164 258.187 181.19C257.82 183.192 257.637 185.609 257.637 188.441V191.407C257.637 194.239 257.808 196.656 258.15 198.658C258.492 200.66 259.041 202.296 259.798 203.565C260.555 204.835 261.531 205.775 262.728 206.385C263.948 206.971 265.438 207.264 267.195 207.264C269.148 207.264 270.796 206.959 272.139 206.349C273.482 205.714 274.52 204.762 275.252 203.492C275.984 202.198 276.375 200.55 276.424 198.548Z" fill="#145528"/>
<path d="M317.916 174.488L304.915 216.603H291.109L310.701 163.282H319.454L317.916 174.488ZM328.682 216.603L315.645 174.488L313.96 163.282H322.823L342.525 216.603H328.682ZM328.169 196.717V206.642H300.813V196.717H328.169ZM311.214 160.499L318.465 149H331.502L321.285 160.499H311.214Z" fill="#145528"/>
<path d="M375.96 198.548H388.777C388.606 202.259 387.605 205.531 385.774 208.363C383.943 211.195 381.404 213.404 378.157 214.991C374.935 216.554 371.126 217.335 366.731 217.335C363.167 217.335 359.981 216.737 357.173 215.541C354.39 214.344 352.022 212.623 350.069 210.377C348.14 208.131 346.663 205.409 345.638 202.21C344.637 199.012 344.136 195.411 344.136 191.407V188.514C344.136 184.51 344.661 180.909 345.711 177.711C346.785 174.488 348.299 171.754 350.252 169.508C352.229 167.237 354.598 165.504 357.356 164.308C360.115 163.111 363.179 162.513 366.548 162.513C371.187 162.513 375.105 163.343 378.304 165.003C381.502 166.664 383.98 168.946 385.738 171.852C387.496 174.732 388.533 178.016 388.851 181.703H376.033C375.984 179.701 375.643 178.028 375.008 176.686C374.373 175.318 373.372 174.293 372.005 173.609C370.638 172.926 368.819 172.584 366.548 172.584C364.961 172.584 363.582 172.877 362.41 173.463C361.238 174.049 360.262 174.977 359.48 176.246C358.699 177.516 358.113 179.164 357.723 181.19C357.356 183.192 357.173 185.609 357.173 188.441V191.407C357.173 194.239 357.344 196.656 357.686 198.658C358.028 200.66 358.577 202.296 359.334 203.565C360.091 204.835 361.067 205.775 362.264 206.385C363.484 206.971 364.974 207.264 366.731 207.264C368.685 207.264 370.333 206.959 371.675 206.349C373.018 205.714 374.056 204.762 374.788 203.492C375.521 202.198 375.911 200.55 375.96 198.548Z" fill="#145528"/>
<path d="M430.782 184.449V194.337H403.426V184.449H430.782ZM407.71 163.282V216.603H394.856V163.282H407.71ZM439.424 163.282V216.603H426.607V163.282H439.424Z" fill="#145528"/>
<path d="M264.522 304.603H252.693L252.767 294.715H264.522C266.963 294.715 269.026 294.129 270.711 292.957C272.42 291.785 273.714 290.04 274.593 287.72C275.496 285.376 275.948 282.496 275.948 279.078V276.771C275.948 274.207 275.691 271.961 275.179 270.032C274.69 268.079 273.958 266.456 272.981 265.162C272.005 263.843 270.784 262.854 269.319 262.195C267.879 261.536 266.219 261.207 264.339 261.207H252.474V251.282H264.339C267.952 251.282 271.26 251.905 274.263 253.15C277.291 254.371 279.903 256.128 282.1 258.423C284.322 260.694 286.031 263.392 287.227 266.517C288.448 269.617 289.058 273.06 289.058 276.844V279.078C289.058 282.837 288.448 286.28 287.227 289.405C286.031 292.53 284.334 295.228 282.137 297.498C279.939 299.769 277.339 301.526 274.336 302.771C271.358 303.992 268.086 304.603 264.522 304.603ZM260.054 251.282V304.603H247.2V251.282H260.054ZM268.77 274.354V281.348H242V274.354H268.77Z" fill="#145528"/>
<path d="M317.549 262.488L304.549 304.603H290.743L310.335 251.282H319.087L317.549 262.488ZM328.316 304.603L315.279 262.488L313.594 251.282H322.457L342.159 304.603H328.316ZM327.803 284.717V294.642H300.447V284.717H327.803ZM321.614 236.927H330.074C330.074 239.124 329.512 241.077 328.389 242.786C327.291 244.471 325.728 245.789 323.702 246.741C321.675 247.693 319.283 248.169 316.524 248.169C312.349 248.169 309.041 247.132 306.6 245.057C304.158 242.957 302.938 240.247 302.938 236.927H311.36C311.36 238.123 311.751 239.197 312.532 240.149C313.313 241.102 314.644 241.578 316.524 241.578C318.404 241.578 319.722 241.102 320.479 240.149C321.236 239.197 321.614 238.123 321.614 236.927ZM309.822 312.696C309.822 311.133 310.457 309.827 311.727 308.777C312.996 307.752 314.644 307.239 316.67 307.239C318.697 307.239 320.345 307.752 321.614 308.777C322.884 309.827 323.519 311.133 323.519 312.696C323.519 314.258 322.884 315.552 321.614 316.578C320.345 317.627 318.697 318.152 316.67 318.152C314.644 318.152 312.996 317.627 311.727 316.578C310.457 315.552 309.822 314.258 309.822 312.696Z" fill="#145528"/>
<path d="M367.5 251.282V304.603H354.646V251.282H367.5ZM383.541 251.282V261.207H338.973V251.282H383.541Z" fill="#145528"/>
<path d="M416.646 251.282L425.362 269.007L434.078 251.282H448.726L433.858 277.723L449.129 304.603H434.334L425.362 286.548L416.39 304.603H401.558L416.866 277.723L401.961 251.282H416.646Z" fill="#145528"/>
<path d="M490.071 294.715V304.603H461.653V294.715H490.071ZM466.231 251.282V304.603H453.377V251.282H466.231ZM486.409 272.449V282.007H461.653V272.449H486.409ZM490.181 251.282V261.207H461.653V251.282H490.181Z" fill="#145528"/>
<path d="M480 348.152L465 339.492L465 356.813L480 348.152ZM242 349.652L466.5 349.652L466.5 346.652L242 346.652L242 349.652Z" fill="#145528"/>
</g>
<defs>
<filter id="filter0_d_109_15176" x="196" y="85" width="340.181" height="335.152" filterUnits="userSpaceOnUse" color-interpolation-filters="sRGB">
<feFlood flood-opacity="0" result="BackgroundImageFix"/>
<feColorMatrix in="SourceAlpha" type="matrix" values="0 0 0 0 0 0 0 0 0 0 0 0 0 0 0 0 0 0 127 0" result="hardAlpha"/>
<feOffset dy="4"/>
<feGaussianBlur stdDeviation="2"/>
<feComposite in2="hardAlpha" operator="out"/>
<feColorMatrix type="matrix" values="0 0 0 0 0 0 0 0 0 0 0 0 0 0 0 0 0 0 0.25 0"/>
<feBlend mode="normal" in2="BackgroundImageFix" result="effect1_dropShadow_109_15176"/>
<feBlend mode="normal" in="SourceGraphic" in2="effect1_dropShadow_109_15176" result="shape"/>
</filter>
</defs>
</svg>
