<svg width="23" height="23" viewBox="0 0 23 23" fill="none" xmlns="http://www.w3.org/2000/svg">
<path d="M10.5417 13.4167V11.5H12.4583V13.4167H10.5417ZM6.70833 13.4167V11.5H8.625V13.4167H6.70833ZM14.375 13.4167V11.5H16.2917V13.4167H14.375ZM10.5417 17.25V15.3334H12.4583V17.25H10.5417ZM6.70833 17.25V15.3334H8.625V17.25H6.70833ZM14.375 17.25V15.3334H16.2917V17.25H14.375ZM2.875 21.0833V3.83335H5.75V1.91669H7.66667V3.83335H15.3333V1.91669H17.25V3.83335H20.125V21.0833H2.875ZM4.79167 19.1667H18.2083V9.58335H4.79167V19.1667ZM4.79167 7.66669H18.2083V5.75002H4.79167V7.66669Z" fill="black"/>
</svg>
