<svg width="50" height="50" viewBox="0 0 50 50" fill="none" xmlns="http://www.w3.org/2000/svg">
<path d="M25.5 6.17491C25.2685 6.17499 25.04 6.22664 24.8309 6.3261C24.6219 6.42556 24.4377 6.57034 24.2916 6.74991L24.1708 6.83949C21.9055 6.15005 19.4958 6.08679 17.1974 6.65643C14.899 7.22607 12.7978 8.40735 11.1166 10.0749C9.62657 11.5505 8.5185 13.367 7.88833 15.3671C7.25815 17.3673 7.12486 19.4908 7.49997 21.5541L7.46872 21.5853L5.47289 23.5666C5.06075 23.9749 4.7336 24.4608 4.51034 24.9963C4.28707 25.5318 4.17212 26.1062 4.17212 26.6864C4.17212 27.2665 4.28707 27.8409 4.51034 28.3764C4.7336 28.9119 5.06075 29.3978 5.47289 29.8062C5.95763 30.2876 6.54671 30.651 7.19449 30.8681C7.84227 31.0852 8.53134 31.1503 9.20831 31.0582C9.44973 31.9366 9.95576 32.7194 10.6576 33.3001C11.3595 33.8809 12.2232 34.2314 13.1312 34.3041C13.2246 35.3723 13.7016 36.3707 14.4741 37.1144C15.2466 37.8582 16.2623 38.2971 17.3333 38.3499C17.3875 39.4062 17.8187 40.4437 18.6291 41.2478C20.2125 42.8228 22.6958 42.9582 24.4354 41.6582L25.2416 42.4582C26.0808 43.2898 27.2144 43.7563 28.3958 43.7563C29.5772 43.7563 30.7108 43.2898 31.55 42.4582C32.3208 41.6916 32.7521 40.7124 32.8416 39.7124C33.8812 39.6243 34.8565 39.1724 35.5957 38.4362C36.335 37.7 36.7909 36.7266 36.8833 35.6874C37.7991 35.6033 38.666 35.2364 39.364 34.6377C40.062 34.039 40.5566 33.238 40.7791 32.3457C41.446 32.4256 42.1222 32.3536 42.7572 32.1349C43.3922 31.9163 43.9695 31.5567 44.4458 31.0832C44.8576 30.675 45.1845 30.1891 45.4076 29.6539C45.6307 29.1186 45.7455 28.5444 45.7455 27.9645C45.7455 27.3846 45.6307 26.8104 45.4076 26.2751C45.1845 25.7398 44.8576 25.254 44.4458 24.8457L42.7104 23.1187L43.0687 21.7312C43.844 18.7117 43.4535 15.511 41.975 12.7666C40.8993 10.7741 39.3042 9.1101 37.3591 7.95102C35.414 6.79194 33.1913 6.18108 30.9271 6.18324H27.5791C27.4362 6.177 27.2931 6.17422 27.15 6.17491H25.5021H25.5ZM31.5937 16.477L38.8104 23.6478L38.8166 23.6562L38.8458 23.6832L42.2312 27.0478C42.3522 27.1679 42.4482 27.3107 42.5137 27.468C42.5792 27.6253 42.6129 27.7941 42.6129 27.9645C42.6129 28.1349 42.5792 28.3036 42.5137 28.461C42.4482 28.6183 42.3522 28.7611 42.2312 28.8812C41.9855 29.1242 41.6539 29.2604 41.3083 29.2604C40.9627 29.2604 40.6311 29.1242 40.3854 28.8812L37 25.5166C36.7051 25.2245 36.3067 25.0606 35.8916 25.0606C35.4765 25.0606 35.0782 25.2245 34.7833 25.5166L34.75 25.552C34.6045 25.6961 34.4891 25.8676 34.4103 26.0566C34.3315 26.2456 34.2909 26.4483 34.2909 26.653C34.2909 26.8578 34.3315 27.0605 34.4103 27.2495C34.4891 27.4385 34.6045 27.61 34.75 27.7541L37.3875 30.377C37.5084 30.4971 37.6044 30.6399 37.6699 30.7972C37.7354 30.9545 37.7691 31.1232 37.7691 31.2937C37.7691 31.4641 37.7354 31.6328 37.6699 31.7901C37.6044 31.9475 37.5084 32.0903 37.3875 32.2103C37.165 32.4317 36.8705 32.5661 36.5575 32.589C36.2445 32.612 35.9336 32.5219 35.6812 32.3353C35.3782 32.1085 35.0035 31.9983 34.6259 32.0251C34.2483 32.0519 33.893 32.2138 33.625 32.4812C33.3581 32.748 33.1977 33.103 33.1739 33.4797C33.1501 33.8563 33.2646 34.2287 33.4958 34.527C33.688 34.7765 33.7824 35.0876 33.7613 35.4018C33.7402 35.716 33.605 36.0117 33.3812 36.2332C33.1548 36.4576 32.8545 36.5919 32.5363 36.6111C32.2181 36.6303 31.9038 36.533 31.6521 36.3374C31.3509 36.1025 30.9746 35.985 30.5933 36.0068C30.2119 36.0287 29.8515 36.1884 29.5791 36.4562C29.3077 36.7232 29.1441 37.0809 29.1195 37.4609C29.0949 37.841 29.211 38.2167 29.4458 38.5166C29.6426 38.7699 29.7399 39.0865 29.7191 39.4067C29.6984 39.7268 29.5612 40.0282 29.3333 40.2541C29.0837 40.5009 28.7468 40.6393 28.3958 40.6393C28.0448 40.6393 27.7079 40.5009 27.4583 40.2541L26.6833 39.4853L26.9021 39.2666C27.3139 38.8583 27.6408 38.3725 27.8638 37.8372C28.0869 37.3019 28.2018 36.7277 28.2018 36.1478C28.2018 35.5679 28.0869 34.9937 27.8638 34.4585C27.6408 33.9232 27.3139 33.4374 26.9021 33.0291C26.1229 32.2534 25.0835 31.7946 23.9854 31.7416C23.9259 30.6712 23.4809 29.6586 22.7325 28.8911C21.9841 28.1236 20.9831 27.653 19.9146 27.5666C19.8292 26.5231 19.3733 25.5447 18.6291 24.8082C18.1444 24.3268 17.5553 23.9634 16.9075 23.7463C16.2598 23.5292 15.5707 23.4641 14.8937 23.5562C14.6293 22.5973 14.0507 21.7548 13.2507 21.1637C12.4507 20.5726 11.4755 20.2669 10.4812 20.2957C10.323 18.8304 10.4973 17.3482 10.9911 15.9595C11.4849 14.5709 12.2855 13.3114 13.3333 12.2749C14.3097 11.3049 15.4771 10.5484 16.7614 10.0535C18.0457 9.55857 19.4189 9.336 20.7937 9.39991L17.675 11.7603C17.1682 12.1439 16.7422 12.6239 16.4216 13.1727C16.101 13.7215 15.8921 14.3283 15.8069 14.9582C15.7217 15.588 15.7619 16.2285 15.9252 16.8428C16.0885 17.4571 16.3716 18.033 16.7583 18.5374C17.5393 19.5555 18.6912 20.2234 19.9627 20.3955C21.2343 20.5676 22.5223 20.23 23.5458 19.4562L27.4812 16.4749L31.5937 16.477ZM19.5604 14.2541L26.1 9.29991H27.15C27.2799 9.29896 27.4099 9.30244 27.5396 9.31032H30.9271C32.6267 9.30804 34.2953 9.76581 35.7558 10.6351C37.2164 11.5044 38.4144 12.7528 39.2229 14.2478C40.2541 16.1645 40.5771 18.3687 40.1479 20.4874L33.4583 13.8291C33.3127 13.6783 33.1383 13.5584 32.9453 13.4764C32.7524 13.3944 32.545 13.3521 32.3354 13.352H26.9583C26.6176 13.3518 26.2862 13.463 26.0146 13.6687L21.6604 16.9666C21.2952 17.2421 20.836 17.3624 20.3827 17.3011C19.9293 17.2399 19.5185 17.0021 19.2396 16.6395C19.1033 16.462 19.0036 16.2593 18.946 16.043C18.8885 15.8268 18.8744 15.6013 18.9044 15.3796C18.9344 15.1578 19.008 14.9442 19.1209 14.751C19.2339 14.5579 19.384 14.389 19.5625 14.2541H19.5604ZM12.5729 30.827C12.4519 30.7069 12.356 30.5641 12.2905 30.4068C12.225 30.2495 12.1912 30.0807 12.1912 29.9103C12.1912 29.7399 12.225 29.5712 12.2905 29.4139C12.356 29.2565 12.4519 29.1137 12.5729 28.9937L14.5666 27.0103C14.8124 26.7673 15.144 26.631 15.4896 26.631C15.8351 26.631 16.1668 26.7673 16.4125 27.0103C16.6539 27.2499 16.791 27.5751 16.7942 27.9152C16.7973 28.2554 16.6661 28.583 16.4291 28.827L16.4125 28.8437L14.4187 30.8249L14.4 30.8437C14.153 31.0788 13.8241 31.2086 13.4831 31.2055C13.142 31.2023 12.8156 31.0666 12.5729 30.827ZM11.55 23.8082C11.7861 24.0521 11.9165 24.3793 11.9126 24.7188C11.9087 25.0582 11.7709 25.3824 11.5291 25.6207L9.53539 27.6041C9.28968 27.8471 8.95805 27.9834 8.61247 27.9834C8.2669 27.9834 7.93527 27.8471 7.68956 27.6041C7.56862 27.484 7.47263 27.3412 7.40713 27.1839C7.34163 27.0266 7.3079 26.8578 7.3079 26.6874C7.3079 26.517 7.34163 26.3483 7.40713 26.1909C7.47263 26.0336 7.56862 25.8908 7.68956 25.7707L9.68539 23.7895C9.9311 23.5465 10.2627 23.4102 10.6083 23.4102C10.9539 23.4102 11.2855 23.5465 11.5312 23.7895L11.55 23.8082ZM22.6916 39.0457C22.4459 39.2887 22.1143 39.425 21.7687 39.425C21.4231 39.425 21.0915 39.2887 20.8458 39.0457C20.7249 38.9257 20.6289 38.7829 20.5634 38.6255C20.4979 38.4682 20.4642 38.2995 20.4642 38.1291C20.4642 37.9587 20.4979 37.7899 20.5634 37.6326C20.6289 37.4753 20.7249 37.3325 20.8458 37.2124L22.8396 35.2312C23.0853 34.9882 23.4169 34.8519 23.7625 34.8519C24.108 34.8519 24.4397 34.9882 24.6854 35.2312C24.8063 35.3512 24.9023 35.494 24.9678 35.6514C25.0333 35.8087 25.067 35.9774 25.067 36.1478C25.067 36.3182 25.0333 36.487 24.9678 36.6443C24.9023 36.8016 24.8063 36.9444 24.6854 37.0645L22.6916 39.0457ZM18.4812 34.8624C18.2358 35.1059 17.904 35.2425 17.5583 35.2425C17.2126 35.2425 16.8808 35.1059 16.6354 34.8624C16.3937 34.6231 16.2562 34.2981 16.2527 33.9579C16.2491 33.6178 16.3799 33.29 16.6166 33.0457L16.6354 33.0291L18.6291 31.0478L18.6458 31.0291C18.8932 30.7936 19.2227 30.6638 19.5642 30.6673C19.9057 30.6708 20.2325 30.8073 20.475 31.0478C20.5959 31.1679 20.6919 31.3107 20.7574 31.468C20.8229 31.6253 20.8566 31.7941 20.8566 31.9645C20.8566 32.1349 20.8229 32.3036 20.7574 32.461C20.6919 32.6183 20.5959 32.7611 20.475 32.8812L18.4812 34.8624Z" fill="black"/>
</svg>
