<svg width="324" height="100" viewBox="0 0 324 100" fill="none" xmlns="http://www.w3.org/2000/svg">
<g clip-path="url(#clip0_92_33)">
<path fill-rule="evenodd" clip-rule="evenodd" d="M105.037 28.1759H109.063V32.2031H105.037V28.1759ZM98.0685 35.2782H104.434V41.6359H98.0685V35.2782ZM104.408 46.6079H108.686V50.8946H104.423L104.408 46.6079ZM200.126 35.997L201.577 34.4039C201.717 34.2394 201.821 34.047 201.882 33.8394C201.943 33.6318 201.959 33.4136 201.929 33.1994C201.899 32.9851 201.824 32.7796 201.71 32.5964C201.595 32.4131 201.442 32.2564 201.263 32.1364C186.271 21.3477 161.036 17.2722 129.373 16.8239C117.749 11.8556 108.682 6.75021 99.3008 3.79367C94.9902 2.48071 90.5417 1.67379 86.0449 1.38916V4.81623H86.1485C100.159 6.04256 112.716 13.5302 125.272 19.3433C125.398 19.4174 104.511 18.6986 86.0449 18.0466V23.0779H100.4V25.7417H66.483V28.4056H86.0449V35.2819H95.1079V37.9458H56.8982V40.6096H86.0449V42.8326H91.2259V45.4965H72.6225V48.164H86.0449V50.1091H100.922V53.3806C83.6666 53.3806 66.4164 53.3744 49.1711 53.362V55.7369L127.537 56.3149L144.993 56.8521C143.117 34.7781 156.388 27.546 167.568 28.187C178.455 28.8131 188.451 38.5979 185.505 57.7932C190.556 56.9669 195.301 56.2445 200.348 55.4183C201.459 55.2404 201.348 54.3624 200.607 53.9622C201.655 54.1697 202.088 52.2283 201.026 52.3024C199.012 52.4432 196.781 52.8137 194.394 52.8322C195.415 51.7208 198.095 46.2819 199.109 45.1741C199.357 44.9074 199.064 50.4648 199.312 50.198C199.482 48.8717 199.76 45.9781 200.019 43.3921C198.909 43.4995 197.821 43.5106 196.718 43.6069C195.859 43.681 194.79 43.7885 193.991 45.3927C192.721 47.9269 191.186 50.1573 189.838 52.647L193.332 44.5813C193.702 43.6588 194.128 42.7993 195.478 42.5658L198.568 42.3398C199.114 42.3324 199.653 42.2244 200.16 42.0212C200.282 40.8245 200.393 39.7983 200.474 39.1314C200.598 38.3093 200.874 37.5177 201.288 36.7973C199.686 36.9899 198.346 37.1455 196.655 37.353C195.863 37.4493 195.382 37.4827 194.157 36.5564L184.928 28.928C184.62 28.5575 184.698 28.287 185.109 28.1203L188.195 27.7165C188.875 27.6181 189.568 27.6803 190.22 27.898C194.631 29.4393 198.679 31.8141 200.371 32.77C200.548 32.8509 200.686 32.9986 200.756 33.181C200.825 33.3635 200.82 33.5659 200.741 33.7444C200.578 34.4557 200.3 35.2894 200.126 35.997Z" fill="url(#paint0_linear_92_33)"/>
<mask id="mask0_92_33" style="mask-type:luminance" maskUnits="userSpaceOnUse" x="49" y="1" width="153" height="57">
<path d="M105.037 28.1759H109.063V32.2031H105.037V28.1759ZM98.0685 35.2782H104.434V41.6359H98.0685V35.2782ZM104.408 46.6079H108.686V50.8946H104.423L104.408 46.6079ZM200.126 35.997L201.577 34.4039C201.717 34.2394 201.821 34.047 201.882 33.8394C201.943 33.6318 201.959 33.4136 201.929 33.1994C201.899 32.9851 201.824 32.7796 201.71 32.5964C201.595 32.4131 201.442 32.2564 201.263 32.1364C186.271 21.3477 161.036 17.2722 129.373 16.8239C117.749 11.8556 108.682 6.75021 99.3008 3.79367C94.9902 2.48071 90.5417 1.67379 86.0449 1.38916V4.81623H86.1485C100.159 6.04256 112.716 13.5302 125.272 19.3433C125.398 19.4174 104.511 18.6986 86.0449 18.0466V23.0779H100.4V25.7417H66.483V28.4056H86.0449V35.2819H95.1079V37.9458H56.8982V40.6096H86.0449V42.8326H91.2259V45.4965H72.6225V48.164H86.0449V50.1091H100.922V53.3806C83.6666 53.3806 66.4164 53.3744 49.1711 53.362V55.7369L127.537 56.3149L144.993 56.8521C143.117 34.7781 156.388 27.546 167.568 28.187C178.455 28.8131 188.451 38.5979 185.505 57.7932C190.556 56.9669 195.301 56.2445 200.348 55.4183C201.459 55.2404 201.348 54.3624 200.607 53.9622C201.655 54.1697 202.088 52.2283 201.026 52.3024C199.012 52.4432 196.781 52.8137 194.394 52.8322C195.415 51.7208 198.095 46.2819 199.109 45.1741C199.357 44.9074 199.064 50.4648 199.312 50.198C199.482 48.8717 199.76 45.9781 200.019 43.3921C198.909 43.4995 197.821 43.5106 196.718 43.6069C195.859 43.681 194.79 43.7885 193.991 45.3927C192.721 47.9269 191.186 50.1573 189.838 52.647L193.332 44.5813C193.702 43.6588 194.128 42.7993 195.478 42.5658L198.568 42.3398C199.114 42.3324 199.653 42.2244 200.16 42.0212C200.282 40.8245 200.393 39.7983 200.474 39.1314C200.598 38.3093 200.874 37.5177 201.288 36.7973C199.686 36.9899 198.346 37.1455 196.655 37.353C195.863 37.4493 195.382 37.4827 194.157 36.5564L184.928 28.928C184.62 28.5575 184.698 28.287 185.109 28.1203L188.195 27.7165C188.875 27.6181 189.568 27.6803 190.22 27.898C194.631 29.4393 198.679 31.8141 200.371 32.77C200.548 32.8509 200.686 32.9986 200.756 33.181C200.825 33.3635 200.82 33.5659 200.741 33.7444C200.578 34.4557 200.3 35.2894 200.126 35.997Z" fill="white"/>
</mask>
<g mask="url(#mask0_92_33)">
<path d="M202.228 1.38916H49.1711V57.7783H202.228V1.38916Z" fill="url(#paint1_linear_92_33)" stroke="url(#paint2_linear_92_33)" stroke-width="0.5" stroke-miterlimit="10"/>
</g>
<path d="M61.8128 4.16064H55.4624V10.5183H61.8128V4.16064Z" fill="url(#paint3_linear_92_33)"/>
<path d="M44.5046 16.8315H38.1542V23.1892H44.5046V16.8315Z" fill="url(#paint4_linear_92_33)"/>
<path d="M81.667 0H75.3167V6.35768H81.667V0Z" fill="url(#paint5_linear_92_33)"/>
<path d="M38.8499 27.1533H34.0575V31.9512H38.8499V27.1533Z" fill="url(#paint6_linear_92_33)"/>
<path d="M32.3367 14.2935H27.5443V19.0914H32.3367V14.2935Z" fill="url(#paint7_linear_92_33)"/>
<path d="M64.7845 30.4399H60.673V34.5561H64.7845V30.4399Z" fill="url(#paint8_linear_92_33)"/>
<path d="M55.0405 41.4062H48.8529V47.6009H55.0405V41.4062Z" fill="url(#paint9_linear_92_33)"/>
<path d="M6.62425 21.7778H0V28.4097H6.62425V21.7778Z" fill="url(#paint10_linear_92_33)"/>
<path d="M31.6854 41.9658H23.6364V50.0241H31.6854V41.9658Z" fill="url(#paint11_linear_92_33)"/>
<path d="M23.1257 21.8408H15.0767V29.8991H23.1257V21.8408Z" fill="url(#paint12_linear_92_33)"/>
<path fill-rule="evenodd" clip-rule="evenodd" d="M181.079 39.0796C182.559 41.7026 183.326 44.668 183.305 47.6803C183.284 50.6926 182.475 53.647 180.96 56.2491C179.444 58.8513 177.273 61.0106 174.665 62.512C172.056 64.0134 169.1 64.8045 166.091 64.8067C165.598 64.8067 165.104 64.7845 164.611 64.74L57.1351 63.5433H159.608C155.767 61.9798 152.615 59.0872 150.726 55.3924C152.939 59.3203 156.602 62.2236 160.928 63.4799C165.254 64.7363 169.9 64.2458 173.87 62.1134C177.839 59.9811 180.816 56.3767 182.162 52.073C183.508 47.7693 183.117 43.1089 181.072 39.0907" fill="#006837"/>
<path fill-rule="evenodd" clip-rule="evenodd" d="M162.494 34.2561C162.387 34.3224 162.304 34.4206 162.255 34.5369C162.207 34.6531 162.196 34.7816 162.224 34.9044C162.896 37.1709 163.763 39.3749 164.814 41.4918C164.884 41.6603 165.002 41.8042 165.154 41.9055C165.305 42.0068 165.483 42.0609 165.665 42.0609C165.848 42.0609 166.026 42.0068 166.177 41.9055C166.329 41.8042 166.447 41.6603 166.517 41.4918C167.528 39.3567 168.353 37.1378 168.981 34.86C169.003 34.7449 168.996 34.6261 168.959 34.5147C168.923 34.4034 168.859 34.3029 168.774 34.2227C166.705 33.7247 164.545 33.7412 162.483 34.2709M155.577 38.7168C155.574 38.8143 155.593 38.9112 155.631 39.0008C155.669 39.0904 155.727 39.1705 155.799 39.2355C157.672 40.6761 159.665 41.9516 161.758 43.0479C161.914 43.1422 162.095 43.1879 162.277 43.1792C162.459 43.1705 162.635 43.1078 162.782 42.9991C162.928 42.8904 163.039 42.7405 163.101 42.5684C163.162 42.3964 163.171 42.2099 163.127 42.0327C162.696 39.704 162.064 37.417 161.239 35.1971C161.195 35.0943 161.122 35.0067 161.028 34.9449C160.935 34.883 160.826 34.8497 160.714 34.8488C158.712 35.6873 156.951 37.0115 155.588 38.702L155.577 38.7168ZM152.706 46.1267C152.76 46.1957 152.828 46.2532 152.905 46.2958C152.981 46.3385 153.066 46.3653 153.153 46.3749C155.513 46.4604 157.875 46.3438 160.214 46.0266C160.396 46.0125 160.569 45.9448 160.712 45.8322C160.855 45.7195 160.962 45.567 161.018 45.3938C161.075 45.2206 161.079 45.0346 161.03 44.859C160.981 44.6835 160.882 44.5264 160.744 44.4076C159.044 42.7699 157.207 41.2824 155.252 39.9617C155.172 39.9103 155.08 39.8806 154.985 39.8754C154.891 39.8702 154.796 39.8897 154.711 39.932C153.535 41.7899 152.849 43.9161 152.717 46.1119L152.706 46.1267ZM154.667 53.8404C154.747 53.8612 154.83 53.8661 154.912 53.8546C154.994 53.8432 155.073 53.8157 155.144 53.7737C157.118 52.4724 158.975 51.0022 160.695 49.3796C160.835 49.2625 160.937 49.1064 160.988 48.9313C161.04 48.7561 161.038 48.5696 160.983 48.3955C160.928 48.2214 160.823 48.0674 160.681 47.953C160.539 47.8387 160.366 47.7691 160.185 47.7531C157.849 47.4065 155.488 47.2639 153.128 47.3271C153.045 47.332 152.964 47.3556 152.892 47.396C152.819 47.4364 152.757 47.4926 152.709 47.5605C152.821 49.7844 153.503 51.942 154.689 53.8255L154.667 53.8404ZM160.744 58.9828C160.844 58.9599 160.938 58.9148 161.019 58.8506C161.099 58.7865 161.165 58.7051 161.21 58.6123C162.021 56.3934 162.64 54.109 163.06 51.7841C163.102 51.6102 163.093 51.4277 163.034 51.2588C162.974 51.09 162.867 50.9422 162.725 50.8334C162.583 50.7246 162.412 50.6596 162.234 50.6461C162.056 50.6327 161.877 50.6715 161.721 50.7579C159.64 51.8661 157.658 53.1528 155.799 54.6036C155.729 54.6609 155.674 54.7351 155.64 54.8193C155.605 54.9034 155.593 54.9949 155.603 55.0852C156.969 56.7904 158.74 58.1254 160.755 58.968L160.744 58.9828ZM168.648 59.6386C168.743 59.5557 168.816 59.45 168.858 59.3313C168.901 59.2127 168.913 59.0851 168.893 58.9606C168.255 56.6845 167.422 54.4681 166.402 52.3362C166.331 52.168 166.213 52.0244 166.061 51.9234C165.909 51.8224 165.731 51.7686 165.549 51.7686C165.367 51.7686 165.189 51.8224 165.037 51.9234C164.885 52.0244 164.766 52.168 164.696 52.3362C163.657 54.4581 162.803 56.6657 162.142 58.9347C162.115 59.0457 162.121 59.1623 162.16 59.2698C162.199 59.3773 162.269 59.4708 162.361 59.5386C164.418 60.0831 166.577 60.12 168.652 59.646L168.648 59.6386ZM175.413 55.641C175.535 55.3297 175.628 55.0222 175.335 54.7518C173.496 53.2719 171.531 51.9554 169.462 50.8171C169.305 50.7275 169.127 50.6826 168.946 50.6872C168.766 50.6917 168.59 50.7457 168.437 50.8431C168.295 50.9547 168.185 51.1029 168.12 51.2718C168.055 51.4407 168.037 51.6242 168.067 51.8027C168.456 54.1333 169.042 56.4263 169.821 58.6568C169.878 58.7741 169.963 58.8745 170.071 58.948C170.178 59.0215 170.302 59.0654 170.432 59.0754C172.338 58.3359 174.044 57.1596 175.413 55.641ZM178.703 48.2089C178.614 47.8606 178.474 47.4679 178.052 47.4345C175.694 47.3318 173.331 47.4347 170.991 47.742C170.809 47.755 170.636 47.8215 170.492 47.9331C170.348 48.0447 170.24 48.1965 170.183 48.3693C170.125 48.5421 170.119 48.7281 170.167 48.904C170.215 49.0798 170.313 49.2376 170.45 49.3574C172.14 51.0092 173.969 52.5116 175.916 53.8478C176.072 53.9216 176.246 53.9463 176.416 53.9185C176.586 53.8907 176.744 53.8117 176.868 53.6922C177.882 52.0253 178.51 50.1513 178.703 48.2089ZM176.934 40.2247C176.682 40.0172 176.42 39.8542 176.083 40.0358C174.11 41.3284 172.253 42.7899 170.532 44.4039C170.391 44.5203 170.288 44.6759 170.236 44.8511C170.183 45.0263 170.184 45.2131 170.238 45.3877C170.292 45.5624 170.397 45.7171 170.539 45.8322C170.68 45.9473 170.853 46.0175 171.035 46.0341C173.369 46.3887 175.729 46.5412 178.089 46.4898C178.243 46.4661 178.386 46.3977 178.501 46.2929C178.616 46.1881 178.698 46.0517 178.736 45.9007C178.584 43.8943 177.967 41.9511 176.934 40.2247ZM170.602 34.7933C170.47 34.7786 170.336 34.8066 170.22 34.8732C170.104 34.9398 170.012 35.0416 169.958 35.1638C169.173 37.3931 168.583 39.6864 168.193 42.0179C168.154 42.1958 168.168 42.3812 168.234 42.5509C168.3 42.7207 168.414 42.8674 168.562 42.9725C168.711 43.0777 168.887 43.1367 169.069 43.1422C169.251 43.1477 169.43 43.0994 169.585 43.0034C171.653 41.8647 173.62 40.5508 175.465 39.0762C175.546 38.999 175.607 38.9035 175.643 38.7977C175.679 38.692 175.689 38.5791 175.672 38.4686C174.304 36.8509 172.564 35.5897 170.602 34.7933ZM165.725 32.5703C168.554 32.5703 171.319 33.4101 173.671 34.9836C176.023 36.5571 177.857 38.7935 178.939 41.41C180.022 44.0266 180.305 46.9058 179.753 49.6835C179.201 52.4612 177.839 55.0127 175.839 57.0154C173.838 59.018 171.29 60.3818 168.515 60.9343C165.741 61.4869 162.865 61.2033 160.251 60.1195C157.638 59.0357 155.404 57.2003 153.832 54.8454C152.26 52.4906 151.422 49.722 151.422 46.8899C151.425 43.0931 152.935 39.4531 155.618 36.7701C158.302 34.087 161.94 32.5804 165.732 32.5814L165.725 32.5703Z" fill="url(#paint13_linear_92_33)"/>
<path d="M224.633 36.3083H237.585L238.244 32.8479C238.282 32.6407 238.275 32.4275 238.222 32.2234C238.17 32.0193 238.074 31.8291 237.94 31.666C237.816 31.5008 237.654 31.3677 237.468 31.2775C237.282 31.1873 237.077 31.1427 236.871 31.1473H218.922L220.732 22.1925H244.106C245.066 22.1866 246.014 22.4021 246.877 22.8223C247.714 23.2275 248.454 23.8089 249.046 24.5266C249.631 25.2453 250.061 26.078 250.308 26.9719C250.564 27.9046 250.582 28.8869 250.36 29.8284L247.399 43.9998H229.403C229.113 44.0009 228.831 44.0987 228.602 44.2779C228.374 44.457 228.212 44.7072 228.141 44.989L226.823 51.6912H247.399L245.641 60.6424H213.49L217.113 42.5178C217.283 41.6343 217.608 40.7878 218.071 40.017C218.519 39.2797 219.086 38.6213 219.748 38.0682C221.121 36.9283 222.849 36.3056 224.633 36.3083Z" fill="url(#paint14_linear_92_33)"/>
<path d="M267.083 22.1816L264.559 34.7599C264.52 34.9475 264.524 35.1415 264.572 35.3272C264.619 35.5128 264.709 35.685 264.833 35.8306C264.949 35.9819 265.099 36.104 265.271 36.187C265.442 36.27 265.631 36.3116 265.821 36.3086H274.488C274.781 36.3085 275.064 36.2019 275.284 36.0085C275.514 35.817 275.677 35.5576 275.75 35.2675L278.341 22.1928H289.865L282.171 60.6315H270.651L273.981 43.9889H259.016C258.064 44.0163 257.12 43.8162 256.262 43.4051C255.403 42.994 254.655 42.3838 254.079 41.6252C253.203 40.5285 252.737 39.622 252.68 38.9057C252.625 38.1944 252.599 37.6905 252.599 37.3978C252.599 37.3608 252.643 37.1125 252.736 36.6568C252.828 36.2011 252.946 35.612 253.106 34.897C253.265 34.1819 253.409 33.3706 253.572 32.4517C253.735 31.5329 253.909 30.5993 254.094 29.6508C254.533 27.4525 255.026 24.9628 255.574 22.1816H267.083Z" fill="url(#paint15_linear_92_33)"/>
<path d="M323.974 23.7118L322.494 31.1217L309.541 60.6167H296.763L310.489 31.1217H292.263L294.072 22.1668H322.701C322.891 22.1625 323.079 22.2024 323.25 22.2834C323.422 22.3645 323.572 22.4844 323.689 22.6336C323.817 22.7791 323.909 22.9521 323.958 23.1392C324.008 23.3263 324.013 23.5222 323.974 23.7118Z" fill="url(#paint16_linear_92_33)"/>
<path d="M30.2902 84.3283L40.7077 100H29.6056L23.925 91.4789L16.4237 100H4.81091L18.9476 83.9801L9.34797 69.6123H20.4908L25.2573 76.8184L31.5892 69.6123H43.2538L30.2902 84.3283Z" fill="#1E1E1E"/>
<path d="M71.9564 88.3666H55.7843L54.8702 92.9237H74.0806L72.6484 100H44.3344L50.4072 69.6196H78.7176L77.3446 76.6924H58.101L57.1906 81.2494H73.3848L71.9564 88.3666Z" fill="#1E1E1E"/>
<path d="M78.4548 93.3125L78.9322 90.8821H88.0396L87.8657 91.7083C87.8346 91.8561 87.8378 92.0092 87.8751 92.1556C87.9123 92.302 87.9825 92.438 88.0803 92.553C88.1726 92.6714 88.2913 92.7666 88.4269 92.8309C88.5624 92.8953 88.7112 92.927 88.8612 92.9235H99.7449C99.9765 92.9238 100.2 92.8395 100.374 92.6864C100.559 92.5362 100.689 92.3291 100.744 92.0973L101.351 89.0592C101.382 88.9114 101.379 88.7584 101.342 88.6119C101.304 88.4655 101.234 88.3296 101.136 88.2145C101.044 88.0961 100.925 88.0009 100.79 87.9366C100.654 87.8722 100.506 87.8406 100.356 87.844H86.2929C85.4508 87.8491 84.6193 87.6562 83.8652 87.2809C83.1497 86.925 82.5187 86.4196 82.0149 85.7989C81.5152 85.1714 81.1533 84.4455 80.9528 83.6686C80.7359 82.8465 80.7131 81.9853 80.8862 81.1529L82.2739 74.0765C82.5255 72.8121 83.2083 71.6745 84.2055 70.8587C85.2026 70.0429 86.4521 69.5995 87.7399 69.6046H107.768C108.612 69.599 109.445 69.7932 110.199 70.1715C110.917 70.5248 111.548 71.0305 112.05 71.6534C112.549 72.2748 112.918 72.9905 113.134 73.7578C113.368 74.5703 113.398 75.4279 113.223 76.255L112.701 78.7299H103.62L103.793 77.9037C103.824 77.7555 103.82 77.6024 103.782 77.456C103.744 77.3096 103.673 77.1738 103.575 77.059C103.483 76.9405 103.364 76.8453 103.229 76.781C103.093 76.7167 102.944 76.685 102.794 76.6885H91.6922C91.453 76.6777 91.2183 76.7562 91.0337 76.9089C90.849 77.0616 90.7276 77.2774 90.693 77.5147L90.2082 80.0266C90.1782 80.1753 90.1823 80.329 90.2201 80.4759C90.2579 80.6229 90.3285 80.7593 90.4266 80.875C90.5192 80.993 90.638 81.0879 90.7735 81.1522C90.909 81.2165 91.0575 81.2484 91.2074 81.2455H104.822L105.644 81.29C106.444 81.3362 107.223 81.567 107.92 81.9643C108.585 82.3375 109.168 82.8416 109.633 83.4463C110.099 84.06 110.439 84.7602 110.632 85.5062C110.833 86.296 110.847 87.1219 110.673 87.9181L109.156 95.5132C108.904 96.777 108.222 97.9141 107.226 98.7298C106.229 99.5456 104.981 99.9893 103.694 99.9851H83.88C83.0374 99.9911 82.2054 99.7968 81.4524 99.4183C80.7362 99.0634 80.1051 98.5578 79.602 97.9363C79.1003 97.3115 78.7381 96.5864 78.5399 95.8096C78.3185 94.9951 78.2894 94.1402 78.4548 93.3125Z" fill="#1E1E1E"/>
<path d="M139.076 91.4045H125.939L124.203 100H115.092L120.339 73.6949C120.54 72.5236 121.166 71.468 122.097 70.7309C123.009 69.9869 124.152 69.587 125.328 69.6009H146.355C147.124 69.5941 147.884 69.7653 148.576 70.1011C149.233 70.4164 149.811 70.8761 150.267 71.446C150.719 72.0187 151.051 72.6763 151.244 73.38C151.444 74.1169 151.459 74.892 151.288 75.6363L146.429 99.9888H137.326L139.076 91.4045ZM127.323 84.2836H140.505L141.763 77.9037C141.794 77.7556 141.79 77.6023 141.752 77.4557C141.715 77.3092 141.643 77.1734 141.544 77.059C141.453 76.9406 141.335 76.8454 141.2 76.7811C141.065 76.7167 140.917 76.685 140.767 76.6885H129.71C129.589 76.6747 129.468 76.6853 129.352 76.7197C129.236 76.7541 129.128 76.8116 129.034 76.8888C128.941 76.9659 128.864 77.0611 128.809 77.1687C128.753 77.2762 128.72 77.3939 128.71 77.5147L127.323 84.2836Z" fill="#1E1E1E"/>
<path d="M193.621 69.6123L187.548 99.9928H171.897L167.087 75.944L162.276 99.9928H153.165L159.237 69.6123H174.932L179.743 93.6611L184.513 69.6123H193.621Z" fill="#1E1E1E"/>
<path d="M226.875 99.9998H195.397L201.466 69.6193H228.651C229.42 69.6134 230.18 69.7846 230.872 70.1194C231.529 70.4358 232.107 70.8953 232.563 71.4643C233.015 72.0363 233.346 72.6943 233.536 73.3983C233.74 74.1348 233.756 74.9107 233.581 75.6546L232.626 80.56C232.435 81.473 231.938 82.293 231.216 82.883C230.496 83.5012 229.574 83.8334 228.626 83.8166H229.277C229.893 83.8118 230.502 83.9527 231.053 84.2279C231.583 84.4863 232.05 84.8566 232.422 85.3134C232.784 85.7683 233.049 86.2929 233.2 86.8547C233.359 87.4343 233.382 88.043 233.266 88.633L231.786 95.9244C231.587 97.091 230.97 98.145 230.05 98.8883C229.154 99.6189 228.031 100.012 226.875 99.9998ZM223.152 92.664C223.327 92.5179 223.449 92.3189 223.5 92.0971L224.262 88.0625C224.294 87.9153 224.292 87.7631 224.258 87.6165C224.224 87.4699 224.159 87.3325 224.066 87.214C223.981 87.0979 223.87 87.0037 223.741 86.9393C223.612 86.8749 223.47 86.8421 223.326 86.8435H207.609L206.395 92.9196H222.482C222.73 92.9232 222.97 92.8318 223.152 92.664ZM209.663 76.692L208.838 80.7674H222.671C222.909 80.7782 223.143 80.7001 223.327 80.5481C223.511 80.3961 223.632 80.1812 223.667 79.9449L224.055 77.9035C224.086 77.7557 224.083 77.6026 224.046 77.4562C224.009 77.3098 223.938 77.1738 223.841 77.0588C223.748 76.9404 223.63 76.8452 223.494 76.7809C223.358 76.7165 223.21 76.6848 223.06 76.6883L209.663 76.692Z" fill="#1E1E1E"/>
<path d="M259.438 91.4044H246.3L244.564 99.9999H235.461L240.705 73.6948C240.905 72.5236 241.531 71.4679 242.462 70.7309C243.374 69.988 244.517 69.5882 245.693 69.6009H266.721C267.489 69.595 268.249 69.7661 268.941 70.101C269.597 70.4184 270.175 70.8777 270.632 71.4459C271.083 72.0188 271.414 72.6765 271.605 73.3799C271.809 74.1163 271.825 74.8923 271.65 75.6362L266.82 99.9999H257.702L259.438 91.4044ZM247.688 84.2836H260.866L262.124 77.9036C262.155 77.7558 262.152 77.6028 262.115 77.4563C262.078 77.3099 262.007 77.174 261.91 77.0589C261.817 76.9405 261.699 76.8453 261.563 76.781C261.427 76.7166 261.279 76.685 261.129 76.6884H250.071C249.951 76.6741 249.829 76.6843 249.713 76.7186C249.597 76.7528 249.489 76.8103 249.396 76.8876C249.303 76.9649 249.227 77.0603 249.172 77.1681C249.116 77.2759 249.084 77.3938 249.076 77.5146L247.688 84.2836Z" fill="#1E1E1E"/>
<path d="M309.008 69.6123L294.095 87.8443L291.841 100H281.938L284.236 87.8443L274.614 69.6123H284.236L289.787 80.7679L298.373 69.6123H309.008Z" fill="#1E1E1E"/>
<g style="mix-blend-mode:multiply" opacity="0.65">
<path d="M30.2902 84.3283L40.7077 100H29.6056L23.925 91.4789L16.4237 100H4.81091L18.9476 83.9801L9.34797 69.6123H20.4908L25.2573 76.8184L31.5892 69.6123H43.2538L30.2902 84.3283Z" fill="#1F3822"/>
<path d="M71.9564 88.3666H55.7843L54.8702 92.9237H74.0806L72.6484 100H44.3344L50.4072 69.6196H78.7176L77.3446 76.6924H58.101L57.1906 81.2494H73.3848L71.9564 88.3666Z" fill="#1F3822"/>
<path d="M78.4548 93.3125L78.9322 90.8821H88.0396L87.8657 91.7083C87.8346 91.8561 87.8378 92.0092 87.8751 92.1556C87.9123 92.302 87.9825 92.438 88.0803 92.553C88.1726 92.6714 88.2913 92.7666 88.4269 92.8309C88.5624 92.8953 88.7112 92.927 88.8612 92.9235H99.7449C99.9765 92.9238 100.2 92.8395 100.374 92.6864C100.559 92.5362 100.689 92.3291 100.744 92.0973L101.351 89.0592C101.382 88.9114 101.379 88.7584 101.342 88.6119C101.304 88.4655 101.234 88.3296 101.136 88.2145C101.044 88.0961 100.925 88.0009 100.79 87.9366C100.654 87.8722 100.506 87.8406 100.356 87.844H86.2929C85.4508 87.8491 84.6193 87.6562 83.8652 87.2809C83.1497 86.925 82.5187 86.4196 82.0149 85.7989C81.5152 85.1714 81.1533 84.4455 80.9528 83.6686C80.7359 82.8465 80.7131 81.9853 80.8862 81.1529L82.2739 74.0765C82.5255 72.8121 83.2083 71.6745 84.2055 70.8587C85.2026 70.0429 86.4521 69.5995 87.7399 69.6046H107.768C108.612 69.599 109.445 69.7932 110.199 70.1715C110.917 70.5248 111.548 71.0305 112.05 71.6534C112.549 72.2748 112.918 72.9905 113.134 73.7578C113.368 74.5703 113.398 75.4279 113.223 76.255L112.701 78.7299H103.62L103.793 77.9037C103.824 77.7555 103.82 77.6024 103.782 77.456C103.744 77.3096 103.673 77.1738 103.575 77.059C103.483 76.9405 103.364 76.8453 103.229 76.781C103.093 76.7167 102.944 76.685 102.794 76.6885H91.6922C91.453 76.6777 91.2183 76.7562 91.0337 76.9089C90.849 77.0616 90.7276 77.2774 90.693 77.5147L90.2082 80.0266C90.1782 80.1753 90.1823 80.329 90.2201 80.4759C90.2579 80.6229 90.3285 80.7593 90.4266 80.875C90.5192 80.993 90.638 81.0879 90.7735 81.1522C90.909 81.2165 91.0575 81.2484 91.2074 81.2455H104.822L105.644 81.29C106.444 81.3362 107.223 81.567 107.92 81.9643C108.585 82.3375 109.168 82.8416 109.633 83.4463C110.099 84.06 110.439 84.7602 110.632 85.5062C110.833 86.296 110.847 87.1219 110.673 87.9181L109.156 95.5132C108.904 96.777 108.222 97.9141 107.226 98.7298C106.229 99.5456 104.981 99.9893 103.694 99.9851H83.88C83.0374 99.9911 82.2054 99.7968 81.4524 99.4183C80.7362 99.0634 80.1051 98.5578 79.602 97.9363C79.1003 97.3115 78.7381 96.5864 78.5399 95.8096C78.3185 94.9951 78.2894 94.1402 78.4548 93.3125Z" fill="#1F3822"/>
<path d="M139.076 91.4045H125.939L124.203 100H115.092L120.339 73.6949C120.54 72.5236 121.166 71.468 122.097 70.7309C123.009 69.9869 124.152 69.587 125.328 69.6009H146.355C147.124 69.5941 147.884 69.7653 148.576 70.1011C149.233 70.4164 149.811 70.8761 150.267 71.446C150.719 72.0187 151.051 72.6763 151.244 73.38C151.444 74.1169 151.459 74.892 151.288 75.6363L146.429 99.9888H137.326L139.076 91.4045ZM127.323 84.2836H140.505L141.763 77.9037C141.794 77.7556 141.79 77.6023 141.752 77.4557C141.715 77.3092 141.643 77.1734 141.544 77.059C141.453 76.9406 141.335 76.8454 141.2 76.7811C141.065 76.7167 140.917 76.685 140.767 76.6885H129.71C129.589 76.6747 129.468 76.6853 129.352 76.7197C129.236 76.7541 129.128 76.8116 129.034 76.8888C128.941 76.9659 128.864 77.0611 128.809 77.1687C128.753 77.2762 128.72 77.3939 128.71 77.5147L127.323 84.2836Z" fill="#1F3822"/>
<path d="M193.621 69.6118L187.548 99.9923H171.897L167.087 75.9436L162.276 99.9923H153.165L159.237 69.6118H174.932L179.743 93.6606L184.513 69.6118H193.621Z" fill="#1F3822"/>
<path d="M226.875 99.9998H195.397L201.466 69.6193H228.651C229.42 69.6134 230.18 69.7846 230.872 70.1194C231.529 70.4358 232.107 70.8953 232.563 71.4643C233.015 72.0363 233.346 72.6943 233.536 73.3983C233.74 74.1348 233.756 74.9107 233.581 75.6546L232.626 80.56C232.435 81.473 231.938 82.293 231.216 82.883C230.496 83.5012 229.574 83.8334 228.626 83.8166H229.277C229.893 83.8118 230.502 83.9527 231.053 84.2279C231.583 84.4863 232.05 84.8566 232.422 85.3134C232.784 85.7683 233.049 86.2929 233.2 86.8547C233.359 87.4343 233.382 88.043 233.266 88.633L231.786 95.9244C231.587 97.091 230.97 98.145 230.05 98.8883C229.154 99.6189 228.031 100.012 226.875 99.9998ZM223.152 92.664C223.327 92.5179 223.449 92.3189 223.5 92.0971L224.262 88.0625C224.294 87.9153 224.292 87.7631 224.258 87.6165C224.224 87.4699 224.159 87.3325 224.066 87.214C223.981 87.0979 223.87 87.0037 223.741 86.9393C223.612 86.8749 223.47 86.8421 223.326 86.8435H207.609L206.395 92.9196H222.482C222.73 92.9232 222.97 92.8318 223.152 92.664ZM209.663 76.692L208.838 80.7674H222.671C222.909 80.7782 223.143 80.7001 223.327 80.5481C223.511 80.3961 223.632 80.1812 223.667 79.9449L224.055 77.9035C224.086 77.7557 224.083 77.6026 224.046 77.4562C224.009 77.3098 223.938 77.1738 223.841 77.0588C223.748 76.9404 223.63 76.8452 223.494 76.7809C223.358 76.7165 223.21 76.6848 223.06 76.6883L209.663 76.692Z" fill="#1F3822"/>
<path d="M259.438 91.4044H246.3L244.564 99.9999H235.461L240.705 73.6948C240.905 72.5236 241.531 71.4679 242.462 70.7309C243.374 69.988 244.517 69.5882 245.693 69.6009H266.721C267.489 69.595 268.249 69.7661 268.941 70.101C269.597 70.4184 270.175 70.8777 270.632 71.4459C271.083 72.0188 271.414 72.6765 271.605 73.3799C271.809 74.1163 271.825 74.8923 271.65 75.6362L266.82 99.9999H257.702L259.438 91.4044ZM247.688 84.2836H260.866L262.124 77.9036C262.155 77.7558 262.152 77.6028 262.115 77.4563C262.078 77.3099 262.007 77.174 261.91 77.0589C261.817 76.9405 261.699 76.8453 261.563 76.781C261.427 76.7166 261.279 76.685 261.129 76.6884H250.071C249.951 76.6741 249.829 76.6843 249.713 76.7186C249.597 76.7528 249.489 76.8103 249.396 76.8876C249.303 76.9649 249.227 77.0603 249.172 77.1681C249.116 77.2759 249.084 77.3938 249.076 77.5146L247.688 84.2836Z" fill="#1F3822"/>
<path d="M309.394 70L294.48 88.232L292.227 100.388H282.324L284.622 88.232L275 70H284.622L290.173 81.1556L298.758 70H309.394Z" fill="#1F3822"/>
</g>
</g>
<defs>
<linearGradient id="paint0_linear_92_33" x1="49.1711" y1="29.5837" x2="201.943" y2="29.5837" gradientUnits="userSpaceOnUse">
<stop stop-color="#39B54A"/>
<stop offset="1" stop-color="#006837"/>
</linearGradient>
<linearGradient id="paint1_linear_92_33" x1="49.1711" y1="29.5837" x2="202.228" y2="29.5837" gradientUnits="userSpaceOnUse">
<stop stop-color="#39B54A"/>
<stop offset="1" stop-color="#006837"/>
</linearGradient>
<linearGradient id="paint2_linear_92_33" x1="49.0786" y1="29.5837" x2="202.321" y2="29.5837" gradientUnits="userSpaceOnUse">
<stop stop-color="#8CC63F"/>
<stop offset="1" stop-color="#009245"/>
</linearGradient>
<linearGradient id="paint3_linear_92_33" x1="55.4624" y1="7.34319" x2="61.8128" y2="7.34319" gradientUnits="userSpaceOnUse">
<stop stop-color="#39B54A"/>
<stop offset="1" stop-color="#006837"/>
</linearGradient>
<linearGradient id="paint4_linear_92_33" x1="38.1542" y1="20.0104" x2="44.5046" y2="20.0104" gradientUnits="userSpaceOnUse">
<stop stop-color="#39B54A"/>
<stop offset="1" stop-color="#006837"/>
</linearGradient>
<linearGradient id="paint5_linear_92_33" x1="75.3167" y1="3.17884" x2="81.6707" y2="3.17884" gradientUnits="userSpaceOnUse">
<stop stop-color="#39B54A"/>
<stop offset="1" stop-color="#006837"/>
</linearGradient>
<linearGradient id="paint6_linear_92_33" x1="34.0575" y1="29.5504" x2="38.8499" y2="29.5504" gradientUnits="userSpaceOnUse">
<stop stop-color="#39B54A"/>
<stop offset="1" stop-color="#006837"/>
</linearGradient>
<linearGradient id="paint7_linear_92_33" x1="27.5443" y1="16.6943" x2="32.3367" y2="16.6943" gradientUnits="userSpaceOnUse">
<stop stop-color="#39B54A"/>
<stop offset="1" stop-color="#006837"/>
</linearGradient>
<linearGradient id="paint8_linear_92_33" x1="60.673" y1="32.4999" x2="64.7845" y2="32.4999" gradientUnits="userSpaceOnUse">
<stop stop-color="#39B54A"/>
<stop offset="1" stop-color="#006837"/>
</linearGradient>
<linearGradient id="paint9_linear_92_33" x1="48.8529" y1="44.5036" x2="55.0405" y2="44.5036" gradientUnits="userSpaceOnUse">
<stop stop-color="#39B54A"/>
<stop offset="1" stop-color="#006837"/>
</linearGradient>
<linearGradient id="paint10_linear_92_33" x1="0" y1="25.0938" x2="6.62425" y2="25.0938" gradientUnits="userSpaceOnUse">
<stop stop-color="#39B54A"/>
<stop offset="1" stop-color="#006837"/>
</linearGradient>
<linearGradient id="paint11_linear_92_33" x1="23.6364" y1="45.9931" x2="31.6854" y2="45.9931" gradientUnits="userSpaceOnUse">
<stop stop-color="#39B54A"/>
<stop offset="1" stop-color="#006837"/>
</linearGradient>
<linearGradient id="paint12_linear_92_33" x1="15.0767" y1="25.8718" x2="23.122" y2="25.8718" gradientUnits="userSpaceOnUse">
<stop stop-color="#39B54A"/>
<stop offset="1" stop-color="#006837"/>
</linearGradient>
<linearGradient id="paint13_linear_92_33" x1="151.429" y1="46.901" x2="180.035" y2="46.901" gradientUnits="userSpaceOnUse">
<stop stop-color="#39B54A"/>
<stop offset="1" stop-color="#006837"/>
</linearGradient>
<linearGradient id="paint14_linear_92_33" x1="232.001" y1="22.1814" x2="232.001" y2="60.6312" gradientUnits="userSpaceOnUse">
<stop stop-color="#39B54A"/>
<stop offset="1" stop-color="#006837"/>
</linearGradient>
<linearGradient id="paint15_linear_92_33" x1="271.224" y1="22.1816" x2="271.224" y2="60.6315" gradientUnits="userSpaceOnUse">
<stop stop-color="#39B54A"/>
<stop offset="1" stop-color="#006837"/>
</linearGradient>
<linearGradient id="paint16_linear_92_33" x1="308.131" y1="22.1816" x2="308.131" y2="60.6315" gradientUnits="userSpaceOnUse">
<stop stop-color="#39B54A"/>
<stop offset="1" stop-color="#006837"/>
</linearGradient>
<clipPath id="clip0_92_33">
<rect width="324" height="100" fill="white"/>
</clipPath>
</defs>
</svg>
