<svg width="202" height="91" viewBox="0 0 202 91" fill="none" xmlns="http://www.w3.org/2000/svg">
<g clip-path="url(#clip0_395_608)">
<path fill-rule="evenodd" clip-rule="evenodd" d="M105.04 28.18H109.07V32.21H105.04V28.18ZM98.07 35.28H104.44V41.64H98.07V35.28ZM104.41 46.61H108.69V50.9H104.43V46.61H104.41ZM200.11 36L201.56 34.41C201.7 34.25 201.8 34.05 201.87 33.85C201.93 33.64 201.95 33.42 201.92 33.21C201.89 33 201.82 32.79 201.7 32.61C201.58 32.43 201.43 32.27 201.25 32.15C186.26 21.36 161.02 17.29 129.36 16.84C117.74 11.87 108.67 6.77 99.29 3.81C94.98 2.5 90.53 1.69 86.03 1.41V4.84H86.13C100.14 6.07 112.7 13.55 125.25 19.37C125.38 19.44 104.49 18.73 86.02 18.07V23.1H100.38V25.76H66.46V28.42H86.02V35.3H95.08V37.96H56.9V40.62H86.05V42.84H91.23V45.5H72.63V48.17H86.05V50.12H100.93V53.39C83.67 53.39 66.42 53.39 49.18 53.37V55.74L127.55 56.32L145.01 56.86C143.13 34.79 156.41 27.55 167.58 28.19C178.47 28.82 188.46 38.6 185.52 57.8C190.57 56.97 195.32 56.25 200.36 55.43C201.47 55.25 201.36 54.37 200.62 53.97C201.67 54.18 202.1 52.24 201.04 52.31C199.03 52.45 196.8 52.82 194.41 52.84C195.43 51.73 198.11 46.29 199.12 45.18C199.37 44.91 199.08 50.47 199.32 50.2C199.49 48.87 199.77 45.98 200.03 43.39C198.92 43.5 197.83 43.51 196.73 43.6C195.87 43.67 194.8 43.78 194 45.39C192.73 47.92 191.2 50.15 189.85 52.64L193.34 44.57C193.71 43.65 194.14 42.79 195.49 42.55L198.58 42.32C199.13 42.32 199.67 42.2 200.17 42C200.29 40.8 200.4 39.78 200.48 39.11C200.6 38.29 200.88 37.5 201.29 36.78C199.69 36.97 198.35 37.13 196.66 37.34C195.87 37.44 195.39 37.47 194.16 36.54L184.93 28.91C184.62 28.54 184.7 28.27 185.11 28.1L188.2 27.7C188.88 27.6 189.57 27.66 190.22 27.88C194.63 29.42 198.68 31.8 200.37 32.75C200.55 32.83 200.69 32.98 200.75 33.16C200.82 33.34 200.81 33.54 200.74 33.72C200.58 34.43 200.3 35.26 200.13 35.97L200.11 36Z" fill="url(#paint0_linear_395_608)"/>
<path d="M61.81 4.16H55.46V10.52H61.81V4.16Z" fill="url(#paint1_linear_395_608)"/>
<path d="M44.5 16.83H38.15V23.19H44.5V16.83Z" fill="url(#paint2_linear_395_608)"/>
<path d="M81.67 0H75.32V6.36H81.67V0Z" fill="url(#paint3_linear_395_608)"/>
<path d="M38.85 27.15H34.06V31.95H38.85V27.15Z" fill="url(#paint4_linear_395_608)"/>
<path d="M32.34 14.29H27.55V19.09H32.34V14.29Z" fill="url(#paint5_linear_395_608)"/>
<path d="M64.78 30.44H60.67V34.56H64.78V30.44Z" fill="url(#paint6_linear_395_608)"/>
<path d="M55.04 41.41H48.85V47.6H55.04V41.41Z" fill="url(#paint7_linear_395_608)"/>
<path d="M6.62 21.78H0V28.41H6.62V21.78Z" fill="url(#paint8_linear_395_608)"/>
<path d="M31.69 41.97H23.64V50.03H31.69V41.97Z" fill="url(#paint9_linear_395_608)"/>
<path d="M23.13 21.84H15.08V29.9H23.13V21.84Z" fill="url(#paint10_linear_395_608)"/>
<path fill-rule="evenodd" clip-rule="evenodd" d="M181.08 39.08C182.56 41.7 183.33 44.67 183.31 47.68C183.29 50.69 182.48 53.65 180.97 56.25C179.45 58.85 177.28 61.01 174.67 62.51C172.06 64.01 169.11 64.8 166.1 64.8C165.61 64.8 165.11 64.78 164.62 64.73L57.14 63.53H159.61C155.77 61.97 152.62 59.07 150.73 55.38C152.94 59.31 156.61 62.21 160.93 63.47C165.26 64.73 169.9 64.24 173.87 62.1C177.84 59.97 180.82 56.36 182.16 52.06C183.51 47.76 183.12 43.1 181.07 39.08" fill="#006837"/>
<path fill-rule="evenodd" clip-rule="evenodd" d="M162.49 34.26C162.38 34.33 162.3 34.42 162.25 34.54C162.2 34.66 162.19 34.78 162.22 34.91C162.89 37.18 163.76 39.38 164.81 41.5C164.88 41.67 165 41.81 165.15 41.91C165.3 42.01 165.48 42.07 165.66 42.07C165.84 42.07 166.02 42.02 166.17 41.91C166.32 41.81 166.44 41.66 166.51 41.5C167.52 39.36 168.35 37.15 168.97 34.87C168.99 34.75 168.98 34.64 168.95 34.52C168.91 34.41 168.85 34.31 168.77 34.23C166.7 33.73 164.54 33.75 162.48 34.28M155.57 38.73C155.57 38.83 155.59 38.92 155.62 39.01C155.66 39.1 155.72 39.18 155.79 39.24C157.66 40.68 159.66 41.96 161.75 43.05C161.91 43.14 162.09 43.19 162.27 43.18C162.45 43.18 162.63 43.11 162.78 43C162.93 42.89 163.04 42.74 163.1 42.57C163.16 42.4 163.17 42.21 163.13 42.03C162.7 39.7 162.07 37.41 161.24 35.19C161.2 35.09 161.12 35 161.03 34.94C160.94 34.88 160.83 34.84 160.72 34.84C158.72 35.68 156.96 37 155.59 38.69H155.58L155.57 38.73ZM152.7 46.15C152.75 46.22 152.82 46.28 152.9 46.32C152.98 46.36 153.06 46.39 153.15 46.4C155.51 46.49 157.87 46.37 160.21 46.05C160.39 46.04 160.56 45.97 160.71 45.86C160.85 45.75 160.96 45.59 161.02 45.42C161.08 45.25 161.08 45.06 161.03 44.89C160.98 44.71 160.88 44.56 160.74 44.44C159.04 42.8 157.2 41.31 155.25 39.99C155.17 39.94 155.08 39.91 154.98 39.9C154.89 39.9 154.79 39.91 154.71 39.96C153.53 41.82 152.85 43.94 152.72 46.14H152.71L152.7 46.15ZM154.66 53.88C154.74 53.9 154.82 53.91 154.9 53.89C154.98 53.88 155.06 53.85 155.13 53.81C157.1 52.51 158.96 51.04 160.68 49.42C160.82 49.3 160.92 49.15 160.97 48.97C161.02 48.79 161.02 48.61 160.97 48.43C160.91 48.26 160.81 48.1 160.67 47.99C160.53 47.88 160.35 47.81 160.17 47.79C157.83 47.44 155.47 47.3 153.11 47.36C153.03 47.36 152.95 47.39 152.87 47.43C152.8 47.47 152.74 47.53 152.69 47.59C152.8 49.81 153.48 51.97 154.67 53.85H154.65L154.66 53.88ZM160.74 59.04C160.84 59.02 160.93 58.97 161.01 58.91C161.09 58.85 161.16 58.76 161.2 58.67C162.01 56.45 162.63 54.17 163.05 51.84C163.09 51.67 163.08 51.48 163.02 51.31C162.96 51.14 162.85 50.99 162.71 50.88C162.57 50.77 162.4 50.71 162.22 50.69C162.04 50.68 161.86 50.72 161.71 50.8C159.63 51.91 157.65 53.19 155.79 54.65C155.72 54.71 155.67 54.78 155.63 54.87C155.59 54.95 155.58 55.05 155.59 55.14C156.96 56.85 158.73 58.18 160.74 59.02H160.73L160.74 59.04ZM168.64 59.71C168.74 59.63 168.81 59.52 168.85 59.4C168.89 59.28 168.9 59.15 168.89 59.03C168.25 56.75 167.42 54.54 166.4 52.41C166.33 52.24 166.21 52.1 166.06 52C165.91 51.9 165.73 51.85 165.55 51.85C165.37 51.85 165.19 51.9 165.04 52C164.89 52.1 164.77 52.24 164.7 52.41C163.66 54.53 162.81 56.74 162.15 59.01C162.12 59.12 162.13 59.24 162.17 59.35C162.21 59.46 162.28 59.55 162.37 59.62C164.43 60.16 166.59 60.2 168.66 59.73L168.64 59.71ZM175.4 55.7C175.52 55.39 175.62 55.08 175.32 54.81C173.48 53.33 171.52 52.01 169.45 50.88C169.29 50.79 169.11 50.75 168.93 50.75C168.75 50.75 168.57 50.81 168.42 50.91C168.28 51.02 168.17 51.17 168.1 51.34C168.03 51.51 168.02 51.69 168.05 51.87C168.44 54.2 169.03 56.49 169.8 58.72C169.86 58.84 169.94 58.94 170.05 59.01C170.16 59.08 170.28 59.13 170.41 59.14C172.32 58.4 174.02 57.22 175.39 55.71L175.4 55.7ZM178.69 48.27C178.6 47.92 178.46 47.53 178.04 47.5C175.68 47.4 173.32 47.5 170.98 47.81C170.8 47.82 170.63 47.89 170.48 48C170.34 48.11 170.23 48.26 170.17 48.44C170.11 48.61 170.11 48.8 170.15 48.97C170.2 49.15 170.3 49.3 170.43 49.42C172.12 51.07 173.95 52.57 175.9 53.91C176.06 53.98 176.23 54.01 176.4 53.98C176.57 53.95 176.73 53.87 176.85 53.75C177.86 52.08 178.49 50.21 178.69 48.27ZM176.92 40.29C176.67 40.08 176.41 39.92 176.07 40.1C174.1 41.39 172.24 42.85 170.52 44.47C170.38 44.59 170.28 44.74 170.22 44.92C170.17 45.1 170.17 45.28 170.22 45.46C170.27 45.63 170.38 45.79 170.52 45.9C170.66 46.02 170.83 46.09 171.02 46.1C173.35 46.45 175.71 46.61 178.07 46.56C178.22 46.54 178.37 46.47 178.48 46.36C178.59 46.26 178.68 46.12 178.71 45.97C178.56 43.96 177.94 42.02 176.91 40.29H176.92ZM170.59 34.86C170.46 34.85 170.32 34.87 170.21 34.94C170.1 35.01 170 35.11 169.95 35.23C169.17 37.46 168.57 39.75 168.19 42.08C168.15 42.26 168.17 42.44 168.23 42.61C168.3 42.78 168.41 42.93 168.56 43.03C168.71 43.14 168.88 43.19 169.07 43.2C169.26 43.21 169.43 43.16 169.59 43.06C171.66 41.92 173.62 40.61 175.47 39.13C175.55 39.05 175.61 38.96 175.65 38.85C175.69 38.74 175.7 38.63 175.68 38.52C174.31 36.9 172.57 35.64 170.61 34.84L170.59 34.86ZM165.71 32.64C168.54 32.64 171.3 33.48 173.66 35.05C176.01 36.62 177.85 38.86 178.93 41.48C180.01 44.1 180.3 46.98 179.74 49.75C179.19 52.53 177.83 55.08 175.83 57.08C173.83 59.08 171.28 60.45 168.51 61C165.74 61.55 162.86 61.27 160.25 60.19C157.64 59.11 155.4 57.27 153.83 54.92C152.26 52.57 151.42 49.8 151.42 46.96C151.42 43.16 152.93 39.52 155.62 36.84C158.3 34.16 161.94 32.65 165.73 32.65L165.71 32.64Z" fill="url(#paint11_linear_395_608)"/>
<path d="M35.09 69.84V73.94H31.92V90.34H26.59V73.94H23.44V69.84H35.09Z" fill="black"/>
<path d="M45.08 69.84L48.13 90.35H42.67L42.4 86.66H40.49L40.17 90.35H34.65L37.36 69.84H45.07H45.08ZM42.26 83.02C41.99 80.7 41.72 77.83 41.45 74.42C40.91 78.34 40.57 81.21 40.44 83.02H42.26Z" fill="black"/>
<path d="M60.37 69.84L58.51 78.91L61.32 90.35H56.38C55.79 88.31 55.25 85.82 54.76 82.89C54.62 84.18 54.44 85.55 54.2 87.01L53.69 90.35H48.5L50.43 78.91L48.5 69.84H53.65C53.74 70.41 53.93 71.35 54.21 72.66C54.43 73.66 54.61 74.59 54.75 75.42L55.89 69.83H60.36L60.37 69.84Z" fill="black"/>
<path d="M69.36 69.84V90.35H64.03V69.84H69.36Z" fill="black"/>
<path d="M85.35 69.84V90.35H80.68L77.91 81.03V90.35H73.45V69.84H77.91L80.9 79.07V69.84H85.36H85.35Z" fill="black"/>
<path d="M101.62 81.85C101.62 83.91 101.57 85.37 101.47 86.23C101.37 87.09 101.07 87.87 100.56 88.58C100.05 89.29 99.36 89.83 98.49 90.21C97.62 90.59 96.61 90.78 95.45 90.78C94.29 90.78 93.37 90.6 92.49 90.24C91.62 89.88 90.91 89.34 90.38 88.62C89.85 87.9 89.53 87.12 89.43 86.28C89.33 85.44 89.28 83.96 89.28 81.85V78.34C89.28 76.28 89.33 74.82 89.43 73.96C89.53 73.1 89.83 72.32 90.34 71.61C90.85 70.9 91.54 70.36 92.41 69.98C93.28 69.6 94.29 69.41 95.45 69.41C96.61 69.41 97.53 69.59 98.41 69.95C99.28 70.31 99.99 70.85 100.52 71.57C101.05 72.29 101.37 73.07 101.47 73.91C101.57 74.75 101.62 76.23 101.62 78.34V81.85ZM96.29 75.11C96.29 74.16 96.24 73.55 96.13 73.28C96.02 73.01 95.81 72.88 95.48 72.88C95.2 72.88 94.99 72.99 94.84 73.2C94.69 73.42 94.62 74.05 94.62 75.11V84.69C94.62 85.88 94.67 86.61 94.77 86.89C94.87 87.17 95.09 87.31 95.45 87.31C95.81 87.31 96.05 87.15 96.15 86.83C96.25 86.51 96.3 85.75 96.3 84.54V75.12L96.29 75.11Z" fill="black"/>
<path d="M110.89 69.84V90.35H105.56V69.84H110.89Z" fill="black"/>
<path d="M114.97 69.84H120.29C121.97 69.84 123.24 69.97 124.11 70.23C124.98 70.49 125.67 71.02 126.21 71.82C126.74 72.62 127.01 73.9 127.01 75.68C127.01 76.88 126.82 77.72 126.45 78.19C126.07 78.66 125.33 79.03 124.23 79.28C125.46 79.56 126.3 80.02 126.74 80.67C127.18 81.32 127.4 82.31 127.4 83.64V85.54C127.4 86.93 127.24 87.95 126.92 88.62C126.6 89.29 126.1 89.74 125.41 89.99C124.72 90.24 123.3 90.36 121.15 90.36H114.98V69.85L114.97 69.84ZM120.3 73.35V77.91C120.53 77.91 120.71 77.9 120.83 77.9C121.35 77.9 121.69 77.77 121.83 77.51C121.97 77.25 122.05 76.52 122.05 75.3C122.05 74.66 121.99 74.21 121.87 73.95C121.75 73.69 121.6 73.53 121.41 73.46C121.22 73.39 120.85 73.35 120.3 73.35ZM120.3 81.1V86.84C121.05 86.81 121.53 86.7 121.74 86.49C121.95 86.28 122.05 85.76 122.05 84.93V83.02C122.05 82.14 121.96 81.61 121.77 81.42C121.58 81.23 121.09 81.13 120.3 81.1Z" fill="black"/>
<path d="M140.45 69.84L143.5 90.35H138.04L137.77 86.66H135.86L135.54 90.35H130.02L132.73 69.84H140.44H140.45ZM137.63 83.02C137.36 80.7 137.09 77.83 136.82 74.42C136.28 78.34 135.94 81.21 135.81 83.02H137.63Z" fill="black"/>
<path d="M151.69 69.84V90.35H146.36V69.84H151.69Z" fill="black"/>
<path d="M165.24 69.84V90.35H160.12V79.36C160.12 77.77 160.08 76.82 160.01 76.5C159.93 76.18 159.72 75.94 159.38 75.77C159.04 75.61 158.28 75.52 157.09 75.52H156.58V73.13C159.05 72.6 160.93 71.51 162.22 69.85H165.23L165.24 69.84Z" fill="url(#paint12_linear_395_608)"/>
<path d="M178.94 78.72C179.69 79.02 180.27 79.48 180.68 80.08C181.09 80.68 181.29 82.12 181.29 84.39C181.29 86.05 181.13 87.27 180.81 88.05C180.49 88.84 179.86 89.48 178.93 89.98C178 90.48 176.76 90.73 175.19 90.73C173.62 90.73 172.47 90.49 171.58 90.01C170.69 89.53 170.06 88.89 169.67 88.1C169.29 87.31 169.09 85.98 169.09 84.14C169.09 82.9 169.18 81.82 169.38 80.91C169.57 80 170.17 79.27 171.17 78.72C170.54 78.42 170.06 77.93 169.75 77.27C169.43 76.61 169.27 75.77 169.27 74.74C169.27 72.98 169.76 71.65 170.74 70.77C171.72 69.89 173.18 69.45 175.13 69.45C177.38 69.45 178.94 69.92 179.8 70.86C180.66 71.8 181.09 73.14 181.09 74.87C181.09 75.98 180.95 76.77 180.67 77.26C180.39 77.75 179.81 78.24 178.93 78.72H178.94ZM176.17 82.84C176.17 82.05 176.09 81.53 175.93 81.28C175.77 81.02 175.52 80.89 175.17 80.89C174.82 80.89 174.59 81.01 174.44 81.26C174.29 81.51 174.22 82.04 174.22 82.84V85.5C174.22 86.39 174.3 86.96 174.47 87.21C174.64 87.46 174.89 87.59 175.25 87.59C175.61 87.59 175.86 87.46 175.98 87.2C176.11 86.94 176.17 86.36 176.17 85.46V82.84ZM176.07 74.32C176.07 73.63 176.01 73.17 175.89 72.95C175.77 72.73 175.53 72.61 175.19 72.61C174.85 72.61 174.62 72.73 174.51 72.97C174.4 73.21 174.33 73.66 174.33 74.32V75.88C174.33 76.5 174.4 76.92 174.53 77.16C174.66 77.4 174.89 77.51 175.21 77.51C175.55 77.51 175.78 77.39 175.89 77.16C176.01 76.93 176.07 76.45 176.07 75.72V74.31V74.32Z" fill="url(#paint13_linear_395_608)"/>
<path d="M197.06 76.78V83.62C197.06 85.17 196.98 86.31 196.81 87.01C196.64 87.71 196.29 88.38 195.76 89C195.23 89.62 194.59 90.06 193.83 90.33C193.08 90.6 192.24 90.74 191.31 90.74C190.09 90.74 189.07 90.6 188.26 90.32C187.45 90.04 186.8 89.6 186.32 89C185.84 88.4 185.5 87.77 185.29 87.11C185.09 86.45 184.99 85.39 184.99 83.95V76.79C184.99 74.91 185.15 73.5 185.48 72.56C185.81 71.62 186.45 70.87 187.42 70.31C188.39 69.75 189.56 69.46 190.93 69.46C192.05 69.46 193.06 69.66 193.94 70.05C194.82 70.44 195.49 70.92 195.93 71.49C196.37 72.06 196.67 72.69 196.82 73.4C196.98 74.11 197.05 75.24 197.05 76.79L197.06 76.78ZM191.94 75.06C191.94 73.97 191.89 73.29 191.78 73.02C191.67 72.75 191.43 72.61 191.04 72.61C190.65 72.61 190.41 72.76 190.29 73.05C190.17 73.34 190.11 74.01 190.11 75.07V85.08C190.11 86.27 190.17 86.99 190.28 87.23C190.39 87.48 190.64 87.6 191.02 87.6C191.4 87.6 191.65 87.46 191.77 87.17C191.89 86.88 191.95 86.24 191.95 85.23V75.07L191.94 75.06Z" fill="url(#paint14_linear_395_608)"/>
</g>
<defs>
<linearGradient id="paint0_linear_395_608" x1="49.17" y1="29.59" x2="201.94" y2="29.59" gradientUnits="userSpaceOnUse">
<stop stop-color="#39B54A"/>
<stop offset="1" stop-color="#006837"/>
</linearGradient>
<linearGradient id="paint1_linear_395_608" x1="55.46" y1="7.34" x2="61.81" y2="7.34" gradientUnits="userSpaceOnUse">
<stop stop-color="#39B54A"/>
<stop offset="1" stop-color="#006837"/>
</linearGradient>
<linearGradient id="paint2_linear_395_608" x1="38.15" y1="20.01" x2="44.5" y2="20.01" gradientUnits="userSpaceOnUse">
<stop stop-color="#39B54A"/>
<stop offset="1" stop-color="#006837"/>
</linearGradient>
<linearGradient id="paint3_linear_395_608" x1="75.32" y1="3.17" x2="81.67" y2="3.17" gradientUnits="userSpaceOnUse">
<stop stop-color="#39B54A"/>
<stop offset="1" stop-color="#006837"/>
</linearGradient>
<linearGradient id="paint4_linear_395_608" x1="34.06" y1="29.55" x2="38.85" y2="29.55" gradientUnits="userSpaceOnUse">
<stop stop-color="#39B54A"/>
<stop offset="1" stop-color="#006837"/>
</linearGradient>
<linearGradient id="paint5_linear_395_608" x1="27.54" y1="16.69" x2="32.34" y2="16.69" gradientUnits="userSpaceOnUse">
<stop stop-color="#39B54A"/>
<stop offset="1" stop-color="#006837"/>
</linearGradient>
<linearGradient id="paint6_linear_395_608" x1="60.67" y1="32.49" x2="64.78" y2="32.49" gradientUnits="userSpaceOnUse">
<stop stop-color="#39B54A"/>
<stop offset="1" stop-color="#006837"/>
</linearGradient>
<linearGradient id="paint7_linear_395_608" x1="48.85" y1="44.5" x2="55.04" y2="44.5" gradientUnits="userSpaceOnUse">
<stop stop-color="#39B54A"/>
<stop offset="1" stop-color="#006837"/>
</linearGradient>
<linearGradient id="paint8_linear_395_608" x1="0" y1="25.09" x2="6.62" y2="25.09" gradientUnits="userSpaceOnUse">
<stop stop-color="#39B54A"/>
<stop offset="1" stop-color="#006837"/>
</linearGradient>
<linearGradient id="paint9_linear_395_608" x1="23.64" y1="45.99" x2="31.69" y2="45.99" gradientUnits="userSpaceOnUse">
<stop stop-color="#39B54A"/>
<stop offset="1" stop-color="#006837"/>
</linearGradient>
<linearGradient id="paint10_linear_395_608" x1="15.08" y1="25.87" x2="23.13" y2="25.87" gradientUnits="userSpaceOnUse">
<stop stop-color="#39B54A"/>
<stop offset="1" stop-color="#006837"/>
</linearGradient>
<linearGradient id="paint11_linear_395_608" x1="151.42" y1="46.89" x2="180.03" y2="46.89" gradientUnits="userSpaceOnUse">
<stop stop-color="#39B54A"/>
<stop offset="1" stop-color="#006837"/>
</linearGradient>
<linearGradient id="paint12_linear_395_608" x1="160.91" y1="69.84" x2="160.91" y2="90.35" gradientUnits="userSpaceOnUse">
<stop stop-color="#39B54A"/>
<stop offset="1" stop-color="#006837"/>
</linearGradient>
<linearGradient id="paint13_linear_395_608" x1="175.19" y1="69.45" x2="175.19" y2="90.74" gradientUnits="userSpaceOnUse">
<stop stop-color="#39B54A"/>
<stop offset="1" stop-color="#006837"/>
</linearGradient>
<linearGradient id="paint14_linear_395_608" x1="191.02" y1="69.45" x2="191.02" y2="90.74" gradientUnits="userSpaceOnUse">
<stop stop-color="#39B54A"/>
<stop offset="1" stop-color="#006837"/>
</linearGradient>
<clipPath id="clip0_395_608">
<rect width="201.94" height="90.78" fill="white"/>
</clipPath>
</defs>
</svg>
