<svg width="152" height="69" viewBox="0 0 152 69" fill="none" xmlns="http://www.w3.org/2000/svg">
<g clip-path="url(#clip0_395_637)">
<path fill-rule="evenodd" clip-rule="evenodd" d="M79.0635 21.419H82.0968V24.4822H79.0635V21.419ZM73.8171 26.8156H78.6118V31.6497H73.8171V26.8156ZM78.5893 35.4273H81.8108V38.688H78.6043V35.4273H78.5893ZM150.623 27.3629L151.714 26.1543C151.819 26.0327 151.895 25.8807 151.947 25.7287C151.992 25.5691 152.007 25.4018 151.985 25.2422C151.962 25.0826 151.91 24.923 151.819 24.7862C151.729 24.6494 151.616 24.5278 151.481 24.4365C140.198 16.2353 121.2 13.1418 97.3691 12.7997C88.6227 9.02214 81.7958 5.14573 74.7354 2.8959C71.4913 1.9002 68.1418 1.28453 64.7547 1.07171V3.67878H64.8299C75.3752 4.61368 84.8291 10.2991 94.2755 14.7227C94.3734 14.7759 78.6495 14.2363 64.7471 13.7346V17.5578H75.5559V19.5796H50.0243V21.6015H64.7471V26.8308H71.5666V28.8526H42.8285V30.8744H64.7697V32.5618H68.6687V34.5836H54.6685V36.613H64.7697V38.0952H75.9699V40.5806C62.9783 40.5806 49.9942 40.5806 37.0177 40.5654V42.3668L96.0067 42.8077L109.149 43.2181C107.734 26.4432 117.73 20.9402 126.137 21.4266C134.334 21.9055 141.854 29.3391 139.641 43.9326C143.442 43.3017 147.017 42.7545 150.811 42.1312C151.646 41.9944 151.563 41.3255 151.006 41.0215C151.797 41.1811 152.12 39.7065 151.323 39.7597C149.81 39.8662 148.131 40.1474 146.332 40.1626C147.1 39.3189 149.117 35.1841 149.877 34.3404C150.066 34.1352 149.847 38.3612 150.028 38.156C150.156 37.1451 150.367 34.9484 150.562 32.9798C149.727 33.0634 148.906 33.071 148.078 33.1395C147.431 33.1927 146.626 33.2763 146.024 34.5C145.068 36.423 143.916 38.118 142.9 40.0106L145.527 33.8767C145.805 33.1775 146.129 32.5238 147.145 32.3414L149.471 32.1666C149.885 32.1666 150.291 32.0753 150.668 31.9233C150.758 31.0112 150.841 30.236 150.901 29.7267C150.991 29.1034 151.202 28.503 151.511 27.9557C150.306 28.1001 149.298 28.2217 148.026 28.3814C147.431 28.4574 147.07 28.4802 146.144 27.7733L139.197 21.9739C138.963 21.6927 139.023 21.4874 139.332 21.3582L141.658 21.0542C142.17 20.9782 142.689 21.0238 143.178 21.191C146.498 22.3615 149.546 24.1705 150.818 24.8926C150.954 24.9534 151.059 25.0674 151.104 25.2042C151.157 25.341 151.149 25.4931 151.097 25.6299C150.976 26.1695 150.766 26.8004 150.638 27.3401L150.623 27.3629Z" fill="white"/>
<path d="M46.5243 3.16193H41.7447V7.99603H46.5243V3.16193Z" fill="white"/>
<path d="M33.4951 12.7921H28.7155V17.6262H33.4951V12.7921Z" fill="white"/>
<path d="M61.4729 0H56.6932V4.8341H61.4729V0Z" fill="white"/>
<path d="M29.2423 20.6362H25.6369V24.2845H29.2423V20.6362Z" fill="white"/>
<path d="M24.3423 10.8615H20.7369V14.5099H24.3423V10.8615Z" fill="white"/>
<path d="M48.7599 23.1368H45.6663V26.2683H48.7599V23.1368Z" fill="white"/>
<path d="M41.4286 31.4749H36.7693V36.1798H41.4286V31.4749Z" fill="white"/>
<path d="M4.98287 16.5545H0V21.5939H4.98287V16.5545Z" fill="white"/>
<path d="M23.853 31.9005H17.7938V38.0268H23.853V31.9005Z" fill="white"/>
<path d="M17.4099 16.6001H11.3507V22.7264H17.4099V16.6001Z" fill="white"/>
<path fill-rule="evenodd" clip-rule="evenodd" d="M136.299 29.7039C137.413 31.6953 137.992 33.9527 137.977 36.2406C137.962 38.5284 137.352 40.7783 136.216 42.7545C135.072 44.7307 133.438 46.3724 131.474 47.5126C129.509 48.6527 127.289 49.2531 125.023 49.2531C124.654 49.2531 124.278 49.2379 123.909 49.1999L43.0092 48.2878H120.138C117.248 47.1021 114.877 44.8979 113.454 42.0932C115.118 45.0803 117.88 47.2845 121.132 48.2422C124.391 49.1999 127.884 48.8275 130.872 47.2009C133.86 45.582 136.103 42.8381 137.112 39.5697C138.128 36.3014 137.834 32.7594 136.291 29.7039" fill="white"/>
<path fill-rule="evenodd" clip-rule="evenodd" d="M122.306 26.0403C122.223 26.0935 122.163 26.1619 122.125 26.2531C122.088 26.3444 122.08 26.4356 122.103 26.5344C122.607 28.2598 123.262 29.9319 124.052 31.5433C124.105 31.6725 124.195 31.7789 124.308 31.8549C124.421 31.9309 124.557 31.9765 124.692 31.9765C124.828 31.9765 124.963 31.9385 125.076 31.8549C125.189 31.7789 125.279 31.6649 125.332 31.5433C126.092 29.9167 126.717 28.2369 127.183 26.504C127.199 26.4128 127.191 26.3291 127.168 26.2379C127.138 26.1543 127.093 26.0783 127.033 26.0175C125.475 25.6375 123.849 25.6527 122.298 26.0555M117.097 29.4379C117.097 29.5139 117.112 29.5823 117.135 29.6507C117.165 29.7191 117.21 29.7799 117.263 29.8255C118.67 30.92 120.176 31.8929 121.749 32.7214C121.869 32.7898 122.005 32.8278 122.14 32.8202C122.276 32.8202 122.411 32.767 122.524 32.6834C122.637 32.5998 122.72 32.4858 122.765 32.3566C122.81 32.2274 122.818 32.0829 122.788 31.9461C122.464 30.1751 121.99 28.4346 121.365 26.7472C121.335 26.6712 121.275 26.6028 121.207 26.5572C121.139 26.5116 121.057 26.4812 120.974 26.4812C119.468 27.1196 118.144 28.1229 117.112 29.4075H117.105L117.097 29.4379ZM114.937 35.0777C114.975 35.1309 115.027 35.1765 115.088 35.2069C115.148 35.2373 115.208 35.2601 115.276 35.2677C117.052 35.3361 118.829 35.2449 120.59 35.0017C120.725 34.9941 120.853 34.9408 120.966 34.8572C121.072 34.7736 121.154 34.652 121.2 34.5228C121.245 34.3936 121.245 34.2492 121.207 34.12C121.169 33.9831 121.094 33.8691 120.989 33.7779C119.709 32.5314 118.324 31.3989 116.856 30.3956C116.796 30.3576 116.729 30.3348 116.653 30.3272C116.585 30.3272 116.51 30.3348 116.45 30.3728C115.562 31.7865 115.05 33.3979 114.952 35.0701H114.945L114.937 35.0777ZM116.412 40.9531C116.473 40.9683 116.533 40.9759 116.593 40.9607C116.653 40.9531 116.713 40.9303 116.766 40.8999C118.249 39.9118 119.649 38.7944 120.944 37.5631C121.049 37.4719 121.124 37.3579 121.162 37.2211C121.2 37.0843 121.2 36.9475 121.162 36.8106C121.117 36.6814 121.041 36.5598 120.936 36.4762C120.831 36.3926 120.695 36.3394 120.56 36.3242C118.798 36.0582 117.022 35.9518 115.246 35.9974C115.185 35.9974 115.125 36.0202 115.065 36.0506C115.012 36.081 114.967 36.1266 114.93 36.1722C115.012 37.8596 115.524 39.5013 116.42 40.9303H116.405L116.412 40.9531ZM120.989 44.8751C121.064 44.8599 121.132 44.8219 121.192 44.7763C121.252 44.7307 121.305 44.6623 121.335 44.5939C121.945 42.9065 122.411 41.1735 122.728 39.4025C122.758 39.2733 122.75 39.1289 122.705 38.9997C122.66 38.8705 122.577 38.7564 122.472 38.6728C122.366 38.5892 122.238 38.5436 122.103 38.5284C121.967 38.5208 121.832 38.5512 121.719 38.612C120.153 39.4557 118.663 40.4286 117.263 41.5383C117.21 41.5839 117.173 41.6371 117.142 41.7056C117.112 41.7664 117.105 41.8424 117.112 41.9108C118.144 43.2105 119.476 44.2214 120.989 44.8599H120.981L120.989 44.8751ZM126.935 45.3843C127.01 45.3235 127.063 45.2399 127.093 45.1487C127.123 45.0575 127.131 44.9587 127.123 44.8675C126.642 43.1345 126.017 41.4547 125.249 39.8358C125.196 39.7065 125.106 39.6001 124.993 39.5241C124.88 39.4481 124.745 39.4101 124.609 39.4101C124.474 39.4101 124.338 39.4481 124.225 39.5241C124.112 39.6001 124.022 39.7065 123.969 39.8358C123.187 41.4471 122.547 43.1269 122.05 44.8523C122.028 44.9359 122.035 45.0271 122.065 45.1107C122.095 45.1943 122.148 45.2627 122.216 45.3159C123.766 45.7264 125.392 45.7568 126.95 45.3995L126.935 45.3843ZM132.023 42.3364C132.114 42.1008 132.189 41.8652 131.963 41.66C130.578 40.535 129.103 39.5317 127.545 38.6728C127.424 38.6044 127.289 38.574 127.153 38.574C127.018 38.574 126.882 38.6196 126.77 38.6956C126.664 38.7792 126.581 38.8933 126.529 39.0225C126.476 39.1517 126.468 39.2885 126.491 39.4253C126.785 41.1963 127.229 42.9369 127.808 44.6319C127.853 44.7231 127.914 44.7991 127.996 44.8523C128.079 44.9055 128.17 44.9435 128.267 44.9511C129.705 44.3886 130.985 43.4917 132.016 42.344L132.023 42.3364ZM134.5 36.689C134.432 36.423 134.327 36.1266 134.01 36.1038C132.234 36.0278 130.458 36.1038 128.696 36.3394C128.561 36.347 128.433 36.4002 128.32 36.4838C128.215 36.5674 128.132 36.6814 128.087 36.8182C128.042 36.9475 128.042 37.0919 128.072 37.2211C128.109 37.3579 128.185 37.4719 128.282 37.5631C129.554 38.8173 130.932 39.9574 132.4 40.9759C132.52 41.0291 132.648 41.0519 132.776 41.0291C132.904 41.0063 133.024 40.9455 133.115 40.8543C133.875 39.5849 134.349 38.1636 134.5 36.689ZM133.167 30.6236C132.979 30.464 132.784 30.3424 132.528 30.4792C131.045 31.4597 129.645 32.5694 128.35 33.8007C128.245 33.8919 128.17 34.0059 128.124 34.1428C128.087 34.2796 128.087 34.4164 128.124 34.5532C128.162 34.6824 128.245 34.804 128.35 34.8876C128.456 34.9789 128.584 35.0321 128.727 35.0397C130.48 35.3057 132.257 35.4273 134.033 35.3893C134.146 35.3741 134.259 35.3209 134.342 35.2373C134.424 35.1613 134.492 35.0549 134.515 34.9408C134.402 33.4131 133.935 31.9385 133.16 30.6236H133.167ZM128.403 26.4964C128.305 26.4888 128.2 26.504 128.117 26.5572C128.034 26.6104 127.959 26.6864 127.921 26.7776C127.334 28.4726 126.882 30.2132 126.596 31.9841C126.566 32.121 126.581 32.2578 126.626 32.387C126.679 32.5162 126.762 32.6302 126.875 32.7062C126.988 32.7898 127.116 32.8278 127.259 32.8354C127.402 32.843 127.53 32.805 127.65 32.729C129.208 31.8625 130.684 30.8668 132.076 29.7419C132.136 29.6811 132.181 29.6127 132.212 29.5291C132.242 29.4455 132.249 29.3619 132.234 29.2783C131.203 28.0469 129.893 27.0892 128.418 26.4812L128.403 26.4964ZM124.73 24.809C126.86 24.809 128.937 25.4475 130.714 26.6408C132.483 27.8341 133.867 29.5367 134.68 31.5281C135.493 33.5195 135.712 35.7085 135.29 37.8139C134.876 39.927 133.852 41.8652 132.347 43.3853C130.842 44.9055 128.922 45.9468 126.837 46.3648C124.752 46.7829 122.585 46.5701 120.62 45.7492C118.655 44.9283 116.969 43.5297 115.788 41.7436C114.606 39.9574 113.974 37.852 113.974 35.6933C113.974 32.805 115.11 30.0383 117.135 28.0013C119.152 25.9643 121.892 24.8166 124.745 24.8166L124.73 24.809Z" fill="white"/>
<path d="M26.4122 53.0839V56.2003H24.0261V68.6656H20.0143V56.2003H17.6432V53.0839H26.4122Z" fill="white"/>
<path d="M33.9316 53.0839L36.2274 68.6732H32.1176L31.9144 65.8685H30.4768L30.2359 68.6732H26.081L28.1208 53.0839H33.9241H33.9316ZM31.809 63.1018C31.6058 61.3384 31.4026 59.157 31.1993 56.5651C30.7929 59.5446 30.537 61.726 30.4391 63.1018H31.809Z" fill="white"/>
<path d="M45.4404 53.0839L44.0404 59.9779L46.1555 68.6732H42.4371C41.993 67.1226 41.5866 65.23 41.2178 63.003C41.1124 63.9835 40.9769 65.0248 40.7962 66.1345L40.4124 68.6732H36.5059L37.9586 59.9779L36.5059 53.0839H40.3823C40.45 53.5172 40.593 54.2317 40.8038 55.2274C40.9694 55.9874 41.1048 56.6943 41.2102 57.3252L42.0683 53.0763H45.4329L45.4404 53.0839Z" fill="white"/>
<path d="M52.2072 53.0839V68.6732H48.1953V53.0839H52.2072Z" fill="white"/>
<path d="M64.2429 53.0839V68.6732H60.7278L58.6428 61.5892V68.6732H55.2858V53.0839H58.6428L60.8934 60.0995V53.0839H64.2504H64.2429Z" fill="white"/>
<path d="M76.4892 62.2125C76.4892 63.7783 76.4516 64.888 76.3763 65.5416C76.3011 66.1953 76.0752 66.7882 75.6914 67.3278C75.3075 67.8675 74.7881 68.2779 74.1333 68.5668C73.4784 68.8556 72.7182 69 71.8451 69C70.9719 69 70.2795 68.8632 69.6171 68.5896C68.9622 68.3159 68.4278 67.9055 68.0289 67.3582C67.63 66.811 67.3891 66.2181 67.3138 65.5796C67.2386 64.9412 67.2009 63.8163 67.2009 62.2125V59.5446C67.2009 57.9788 67.2386 56.8691 67.3138 56.2155C67.3891 55.5618 67.6149 54.9689 67.9988 54.4293C68.3827 53.8896 68.902 53.4792 69.5569 53.1904C70.2117 52.9015 70.9719 52.7571 71.8451 52.7571C72.7182 52.7571 73.4107 52.8939 74.0731 53.1675C74.7279 53.4412 75.2623 53.8516 75.6613 54.3989C76.0602 54.9461 76.3011 55.539 76.3763 56.1775C76.4516 56.8159 76.4892 57.9408 76.4892 59.5446V62.2125ZM72.4773 57.0896C72.4773 56.3675 72.4397 55.9038 72.3569 55.6986C72.2741 55.4934 72.1161 55.3946 71.8677 55.3946C71.6569 55.3946 71.4988 55.4782 71.3859 55.6378C71.273 55.805 71.2203 56.2839 71.2203 57.0896V64.3711C71.2203 65.2756 71.258 65.8305 71.3332 66.0433C71.4085 66.2561 71.5741 66.3625 71.8451 66.3625C72.116 66.3625 72.2967 66.2409 72.372 65.9977C72.4472 65.7545 72.4849 65.1768 72.4849 64.2571V57.0972L72.4773 57.0896Z" fill="white"/>
<path d="M83.4667 53.0839V68.6732H79.4548V53.0839H83.4667Z" fill="white"/>
<path d="M86.5377 53.0839H90.5421C91.8066 53.0839 92.7625 53.1828 93.4174 53.3804C94.0722 53.578 94.5916 53.9808 94.9981 54.5889C95.397 55.197 95.6002 56.1699 95.6002 57.5228C95.6002 58.4349 95.4572 59.0734 95.1787 59.4306C94.8927 59.7878 94.3357 60.0691 93.5077 60.2591C94.4335 60.4719 95.0658 60.8215 95.397 61.3156C95.7282 61.8097 95.8938 62.5621 95.8938 63.573V65.0172C95.8938 66.0737 95.7733 66.849 95.5325 67.3582C95.2916 67.8675 94.9153 68.2095 94.3959 68.3995C93.8765 68.5896 92.8077 68.6808 91.1894 68.6808H86.5452V53.0915L86.5377 53.0839ZM90.5496 55.7518V59.2178C90.7227 59.2178 90.8582 59.2102 90.9485 59.2102C91.3399 59.2102 91.5959 59.1114 91.7012 58.9138C91.8066 58.7161 91.8668 58.1613 91.8668 57.234C91.8668 56.7475 91.8217 56.4055 91.7313 56.2079C91.641 56.0102 91.5281 55.8886 91.3851 55.8354C91.2421 55.7822 90.9636 55.7518 90.5496 55.7518ZM90.5496 61.6424V66.0053C91.1141 65.9825 91.4754 65.8989 91.6335 65.7393C91.7916 65.5796 91.8668 65.1844 91.8668 64.5535V63.1018C91.8668 62.4329 91.7991 62.0301 91.6561 61.8857C91.5131 61.7412 91.1442 61.6652 90.5496 61.6424Z" fill="white"/>
<path d="M105.716 53.0839L108.012 68.6732H103.902L103.699 65.8685H102.262L102.021 68.6732H97.8658L99.9057 53.0839H105.709H105.716ZM103.594 63.1018C103.391 61.3384 103.187 59.157 102.984 56.5651C102.578 59.5446 102.322 61.726 102.224 63.1018H103.594Z" fill="white"/>
<path d="M114.177 53.0839V68.6732H110.165V53.0839H114.177Z" fill="white"/>
<path d="M124.376 53.0839V68.6732H120.522V60.3199C120.522 59.1114 120.492 58.3893 120.439 58.1461C120.379 57.9028 120.221 57.7204 119.965 57.5912C119.709 57.4696 119.137 57.4012 118.241 57.4012H117.858V55.5846C119.717 55.1818 121.132 54.3533 122.103 53.0915H124.368L124.376 53.0839Z" fill="white"/>
<path d="M134.688 59.8334C135.252 60.0615 135.689 60.4111 135.998 60.8672C136.306 61.3232 136.457 62.4177 136.457 64.1431C136.457 65.4048 136.336 66.3321 136.095 66.925C135.855 67.5254 135.38 68.0119 134.68 68.3919C133.98 68.772 133.047 68.962 131.865 68.962C130.684 68.962 129.818 68.7796 129.148 68.4147C128.478 68.0499 128.004 67.5635 127.71 66.963C127.424 66.3625 127.274 65.3516 127.274 63.9531C127.274 63.0106 127.342 62.1897 127.492 61.498C127.635 60.8063 128.087 60.2515 128.839 59.8334C128.365 59.6054 128.004 59.233 127.771 58.7313C127.53 58.2297 127.409 57.5912 127.409 56.8083C127.409 55.4706 127.778 54.4597 128.516 53.7908C129.253 53.1219 130.352 52.7875 131.82 52.7875C133.514 52.7875 134.688 53.1447 135.335 53.8592C135.983 54.5737 136.306 55.5922 136.306 56.9071C136.306 57.7508 136.201 58.3513 135.99 58.7237C135.779 59.0962 135.343 59.4686 134.68 59.8334H134.688ZM132.603 62.965C132.603 62.3645 132.543 61.9693 132.422 61.7792C132.302 61.5816 132.114 61.4828 131.85 61.4828C131.587 61.4828 131.414 61.574 131.301 61.764C131.188 61.9541 131.135 62.3569 131.135 62.965V64.9868C131.135 65.6633 131.195 66.0965 131.323 66.2865C131.451 66.4765 131.639 66.5753 131.91 66.5753C132.181 66.5753 132.37 66.4765 132.46 66.2789C132.558 66.0813 132.603 65.6405 132.603 64.9564V62.965ZM132.528 56.4891C132.528 55.9646 132.482 55.615 132.392 55.4478C132.302 55.2806 132.121 55.1894 131.865 55.1894C131.609 55.1894 131.436 55.2806 131.353 55.463C131.271 55.6454 131.218 55.9874 131.218 56.4891V57.6748C131.218 58.1461 131.271 58.4653 131.368 58.6477C131.466 58.8301 131.639 58.9137 131.88 58.9137C132.136 58.9137 132.309 58.8225 132.392 58.6477C132.482 58.4729 132.528 58.1081 132.528 57.5532V56.4815V56.4891Z" fill="white"/>
<path d="M148.327 58.3589V63.5578C148.327 64.736 148.267 65.6024 148.139 66.1345C148.011 66.6666 147.747 67.1758 147.348 67.6471C146.949 68.1183 146.468 68.4527 145.896 68.658C145.331 68.8632 144.699 68.9696 143.999 68.9696C143.08 68.9696 142.313 68.8632 141.703 68.6504C141.093 68.4375 140.604 68.1031 140.243 67.6471C139.881 67.191 139.626 66.7122 139.467 66.2105C139.317 65.7089 139.242 64.9032 139.242 63.8087V58.3665C139.242 56.9375 139.362 55.8658 139.611 55.1513C139.859 54.4369 140.341 53.8668 141.071 53.4412C141.801 53.0155 142.682 52.7951 143.713 52.7951C144.556 52.7951 145.316 52.9471 145.978 53.2436C146.641 53.54 147.145 53.9048 147.476 54.3381C147.807 54.7713 148.033 55.2502 148.146 55.7898C148.267 56.3295 148.319 57.1884 148.319 58.3665L148.327 58.3589ZM144.473 57.0515C144.473 56.2231 144.435 55.7062 144.353 55.501C144.27 55.2958 144.089 55.1894 143.796 55.1894C143.502 55.1894 143.321 55.3034 143.231 55.5238C143.141 55.7442 143.096 56.2535 143.096 57.0592V64.6675C143.096 65.572 143.141 66.1193 143.223 66.3017C143.306 66.4917 143.494 66.5829 143.78 66.5829C144.066 66.5829 144.255 66.4765 144.345 66.2561C144.435 66.0357 144.48 65.5492 144.48 64.7816V57.0592L144.473 57.0515Z" fill="white"/>
</g>
<defs>
<clipPath id="clip0_395_637">
<rect width="152" height="69" fill="white"/>
</clipPath>
</defs>
</svg>
