<svg width="20" height="20" viewBox="0 0 20 20" fill="none" xmlns="http://www.w3.org/2000/svg">
<g clip-path="url(#clip0_254_169)">
<path d="M15.8334 6.66667C16.0695 6.66667 16.2675 6.58667 16.4275 6.42667C16.5875 6.26667 16.6673 6.06889 16.6667 5.83334V4.16667H18.3334C18.5695 4.16667 18.7675 4.08667 18.9275 3.92667C19.0875 3.76667 19.1673 3.56889 19.1667 3.33334C19.1667 3.09723 19.0867 2.89917 18.9267 2.73917C18.7667 2.57917 18.5689 2.49945 18.3334 2.5H16.6667V0.833336C16.6667 0.597225 16.5867 0.39917 16.4267 0.23917C16.2667 0.0791696 16.0689 -0.000552672 15.8334 2.88351e-06C15.5973 2.88351e-06 15.3992 0.0800029 15.2392 0.240003C15.0792 0.400003 14.9995 0.597781 15 0.833336V2.5H13.3334C13.0973 2.5 12.8992 2.58 12.7392 2.74C12.5792 2.9 12.4995 3.09778 12.5 3.33334C12.5 3.56945 12.58 3.7675 12.74 3.9275C12.9 4.0875 13.0978 4.16723 13.3334 4.16667H15V5.83334C15 6.06945 15.08 6.2675 15.24 6.4275C15.4 6.5875 15.5978 6.66723 15.8334 6.66667ZM10 10C10.4584 10 10.8509 9.83667 11.1775 9.51C11.5042 9.18334 11.6673 8.79112 11.6667 8.33334C11.6667 7.875 11.5034 7.4825 11.1767 7.15584C10.85 6.82917 10.4578 6.66612 10 6.66667C9.54171 6.66667 9.14921 6.83 8.82254 7.15667C8.49588 7.48334 8.33282 7.87556 8.33338 8.33334C8.33338 8.79167 8.49671 9.18417 8.82338 9.51084C9.15004 9.83751 9.54226 10.0006 10 10ZM10 18.0208C9.88893 18.0208 9.77782 18 9.66671 17.9583C9.5556 17.9167 9.45838 17.8611 9.37504 17.7917C7.34726 16 5.83337 14.3367 4.83337 12.8017C3.83337 11.2667 3.33337 9.83278 3.33337 8.5C3.33337 6.41667 4.00365 4.75695 5.34421 3.52084C6.68476 2.28473 8.23671 1.66667 10 1.66667C10.1389 1.66667 10.2778 1.67028 10.4167 1.6775C10.5556 1.68473 10.6945 1.695 10.8334 1.70834V3.39584C10.6945 3.36806 10.5589 3.35056 10.4267 3.34334C10.2945 3.33611 10.1523 3.33278 10 3.33334C8.59726 3.33334 7.4131 3.81611 6.44754 4.78167C5.48199 5.74723 4.99949 6.98667 5.00004 8.5C5.00004 9.48612 5.40976 10.6147 6.22921 11.8858C7.04865 13.1569 8.3056 14.57 10 16.125C11.6945 14.5695 12.9514 13.1561 13.7709 11.885C14.5903 10.6139 15 9.48556 15 8.5V8.33334H16.6667V8.5C16.6667 9.83334 16.1667 11.2675 15.1667 12.8025C14.1667 14.3375 12.6528 16.0006 10.625 17.7917C10.5417 17.8611 10.4445 17.9167 10.3334 17.9583C10.2223 18 10.1112 18.0208 10 18.0208Z" fill="#1E9041"/>
</g>
<defs>
<clipPath id="clip0_254_169">
<rect width="20" height="20" fill="white"/>
</clipPath>
</defs>
</svg>
