<svg width="50" height="50" viewBox="0 0 50 50" fill="none" xmlns="http://www.w3.org/2000/svg">
<path d="M25 12.5L27.2344 14.6766L18.5156 23.4375H37.5V26.5625H18.5156L27.2344 35.2703L25 37.5L12.5 25L25 12.5Z" fill="black"/>
<path d="M25 46.875C29.3265 46.875 33.5558 45.5921 37.1531 43.1884C40.7504 40.7848 43.5542 37.3683 45.2099 33.3712C46.8655 29.3741 47.2987 24.9757 46.4547 20.7324C45.6106 16.4891 43.5272 12.5913 40.468 9.53205C37.4087 6.47277 33.5109 4.38938 29.2676 3.54533C25.0243 2.70128 20.6259 3.13448 16.6288 4.79014C12.6317 6.44581 9.21525 9.24959 6.81159 12.8469C4.40794 16.4442 3.12499 20.6735 3.12499 25C3.13161 30.7996 5.43841 36.3597 9.53934 40.4607C13.6403 44.5616 19.2004 46.8684 25 46.875ZM25 6.25001C28.7084 6.25001 32.3335 7.34968 35.4169 9.40995C38.5004 11.4702 40.9036 14.3986 42.3227 17.8247C43.7419 21.2508 44.1132 25.0208 43.3897 28.658C42.6662 32.2951 40.8805 35.636 38.2582 38.2583C35.636 40.8805 32.2951 42.6663 28.6579 43.3897C25.0208 44.1132 21.2508 43.7419 17.8247 42.3227C14.3986 40.9036 11.4702 38.5004 9.40994 35.417C7.34966 32.3335 6.24999 28.7084 6.24999 25C6.25578 20.029 8.23308 15.2632 11.7481 11.7482C15.2632 8.2331 20.029 6.2558 25 6.25001Z" fill="black"/>
</svg>
