<svg width="23" height="23" viewBox="0 0 23 23" fill="none" xmlns="http://www.w3.org/2000/svg">
<path d="M2.875 3.88125C2.875 3.59375 2.97083 3.35417 3.1625 3.1625C3.35417 2.97083 3.59375 2.875 3.88125 2.875L7.7625 2.875C7.98611 2.875 8.18193 2.94687 8.34996 3.09062C8.51799 3.23437 8.62564 3.41805 8.67292 3.64167L9.34375 6.94792C9.37569 7.17153 9.35557 7.39929 9.28338 7.63121C9.21118 7.86312 9.10353 8.05064 8.96042 8.19375L6.70833 10.4458C7.44306 11.6597 8.31354 12.7698 9.31979 13.776C10.326 14.7823 11.4042 15.6208 12.5542 16.2917L14.9021 13.9917C15.0458 13.8479 15.2097 13.7559 15.3937 13.7157C15.5777 13.6754 15.7812 13.6716 16.0042 13.7042L19.3583 14.3271C19.5819 14.359 19.7656 14.4628 19.9094 14.6385C20.0531 14.8142 20.125 15.0139 20.125 15.2375L20.125 19.1187C20.125 19.4062 20.0292 19.6458 19.8375 19.8375C19.6458 20.0292 19.4062 20.125 19.1187 20.125C17.0583 20.125 15.0497 19.6656 13.0927 18.7469C11.1358 17.8282 9.40285 16.6143 7.89379 15.1052C6.38474 13.5962 5.17085 11.8632 4.25213 9.90629C3.3334 7.94937 2.87436 5.94103 2.875 3.88125Z" fill="black"/>
</svg>
