<svg width="28" height="29" viewBox="0 0 28 29" fill="none" xmlns="http://www.w3.org/2000/svg">
<path d="M24.0044 14.4625C24.0044 11.537 22.9852 9.05502 20.9469 7.01664C18.9095 4.97926 16.428 3.96058 13.5025 3.96058V0.960022C15.3778 0.960022 17.1347 1.31609 18.773 2.02822C20.4103 2.74135 21.8355 3.70453 23.0487 4.91775C24.261 6.12998 25.2236 7.55524 25.9368 9.19354C26.6489 10.8308 27.005 12.5872 27.005 14.4625H24.0044ZM18.0033 14.4625C18.0033 13.2123 17.5657 12.1496 16.6906 11.2744C15.8154 10.3993 14.7527 9.96168 13.5025 9.96168V6.96113C15.5779 6.96113 17.3472 7.69227 18.8105 9.15454C20.2727 10.6178 21.0039 12.3871 21.0039 14.4625H18.0033ZM25.4297 28.04C22.2041 28.04 19.06 27.3274 15.9974 25.9021C12.9339 24.4769 10.2209 22.5765 7.85845 20.2011C5.49501 17.8256 3.59466 15.1061 2.1574 12.0426C0.719133 8.98 0 5.83592 0 2.61033V1.82268C0 1.54763 0.0250045 1.28508 0.0750138 1.03504H8.85163L10.2394 8.57393L5.9636 12.8872C7.01379 14.6876 8.33304 16.3754 9.92133 17.9507C11.5086 19.5259 13.2524 20.8887 15.1528 22.0389L19.5036 17.6881L27.005 19.1884V27.965C26.7549 27.99 26.4924 28.009 26.2173 28.022C25.9423 28.034 25.6797 28.04 25.4297 28.04Z" fill="white"/>
</svg>
