<svg width="27" height="28" viewBox="0 0 27 28" fill="none" xmlns="http://www.w3.org/2000/svg">
<g clip-path="url(#clip0_254_88)">
<path d="M6.46875 9.78125V19.9062C6.46875 20.13 6.37986 20.3446 6.22162 20.5029C6.06339 20.6611 5.84878 20.75 5.625 20.75C5.40122 20.75 5.18661 20.6611 5.02838 20.5029C4.87014 20.3446 4.78125 20.13 4.78125 19.9062V9.78125C4.78125 9.55747 4.87014 9.34286 5.02838 9.18463C5.18661 9.02639 5.40122 8.9375 5.625 8.9375C5.84878 8.9375 6.06339 9.02639 6.22162 9.18463C6.37986 9.34286 6.46875 9.55747 6.46875 9.78125ZM9 8.9375C8.77622 8.9375 8.56161 9.02639 8.40338 9.18463C8.24514 9.34286 8.15625 9.55747 8.15625 9.78125V19.9062C8.15625 20.13 8.24514 20.3446 8.40338 20.5029C8.56161 20.6611 8.77622 20.75 9 20.75C9.22378 20.75 9.43839 20.6611 9.59662 20.5029C9.75486 20.3446 9.84375 20.13 9.84375 19.9062V9.78125C9.84375 9.55747 9.75486 9.34286 9.59662 9.18463C9.43839 9.02639 9.22378 8.9375 9 8.9375ZM12.375 8.9375C12.1512 8.9375 11.9366 9.02639 11.7784 9.18463C11.6201 9.34286 11.5312 9.55747 11.5312 9.78125V19.9062C11.5312 20.13 11.6201 20.3446 11.7784 20.5029C11.9366 20.6611 12.1512 20.75 12.375 20.75C12.5988 20.75 12.8134 20.6611 12.9716 20.5029C13.1299 20.3446 13.2188 20.13 13.2188 19.9062V9.78125C13.2188 9.55747 13.1299 9.34286 12.9716 9.18463C12.8134 9.02639 12.5988 8.9375 12.375 8.9375ZM17.4375 7.25V22.4375C17.4375 22.8851 17.2597 23.3143 16.9432 23.6307C16.6268 23.9472 16.1976 24.125 15.75 24.125H14.0625V25.8125C14.0625 26.0363 13.9736 26.2509 13.8154 26.4091C13.6571 26.5674 13.4425 26.6562 13.2188 26.6562C12.995 26.6562 12.7804 26.5674 12.6221 26.4091C12.4639 26.2509 12.375 26.0363 12.375 25.8125V24.125H5.625V25.8125C5.625 26.0363 5.53611 26.2509 5.37787 26.4091C5.21964 26.5674 5.00503 26.6562 4.78125 26.6562C4.55747 26.6562 4.34286 26.5674 4.18463 26.4091C4.02639 26.2509 3.9375 26.0363 3.9375 25.8125V24.125H2.25C1.80245 24.125 1.37322 23.9472 1.05676 23.6307C0.74029 23.3143 0.5625 22.8851 0.5625 22.4375V7.25C0.5625 6.80245 0.74029 6.37322 1.05676 6.05676C1.37322 5.74029 1.80245 5.5625 2.25 5.5625H4.78125V3.03125C4.78125 2.35992 5.04793 1.71609 5.52264 1.24139C5.99734 0.766684 6.64117 0.5 7.3125 0.5L10.6875 0.5C11.3588 0.5 12.0027 0.766684 12.4774 1.24139C12.9521 1.71609 13.2187 2.35992 13.2188 3.03125V5.5625H15.75C16.1976 5.5625 16.6268 5.74029 16.9432 6.05676C17.2597 6.37322 17.4375 6.80245 17.4375 7.25ZM6.46875 5.5625H11.5312V3.03125C11.5312 2.80747 11.4424 2.59286 11.2841 2.43463C11.1259 2.27639 10.9113 2.1875 10.6875 2.1875H7.3125C7.08872 2.1875 6.87411 2.27639 6.71588 2.43463C6.55764 2.59286 6.46875 2.80747 6.46875 3.03125V5.5625ZM15.75 22.4375V7.25H2.25V22.4375H15.75Z" fill="black"/>
</g>
<defs>
<clipPath id="clip0_254_88">
<rect width="26" height="27" fill="white" transform="translate(0.5 0.5)"/>
</clipPath>
</defs>
</svg>
