<svg width="27" height="28" viewBox="0 0 27 28" fill="none" xmlns="http://www.w3.org/2000/svg">
<g clip-path="url(#clip0_254_92)">
<path d="M14.25 12.875C15.1875 12.875 15.9844 12.5469 16.6406 11.8906C17.2969 11.2344 17.625 10.4375 17.625 9.5C17.625 8.5625 17.2969 7.76562 16.6406 7.10937C15.9844 6.45312 15.1875 6.125 14.25 6.125C13.3125 6.125 12.5156 6.45312 11.8594 7.10937C11.2031 7.76562 10.875 8.5625 10.875 9.5C10.875 10.4375 11.2031 11.2344 11.8594 11.8906C12.5156 12.5469 13.3125 12.875 14.25 12.875ZM7.5 18.2187C8.325 17.2625 9.31875 16.508 10.4812 15.9552C11.6437 15.4017 12.9 15.125 14.25 15.125C15.6 15.125 16.8562 15.4017 18.0187 15.9552C19.1812 16.508 20.175 17.2625 21 18.2187V5H7.5V18.2187ZM5.25 20.75V2.75H23.25V20.75H5.25ZM0.75 25.25V7.25H3V23H18.75V25.25H0.75ZM14.25 10.625C13.9312 10.625 13.6642 10.517 13.449 10.301C13.233 10.0857 13.125 9.81875 13.125 9.5C13.125 9.18125 13.233 8.91387 13.449 8.69787C13.6642 8.48262 13.9312 8.375 14.25 8.375C14.5687 8.375 14.8361 8.48262 15.0521 8.69787C15.2674 8.91387 15.375 9.18125 15.375 9.5C15.375 9.81875 15.2674 10.0857 15.0521 10.301C14.8361 10.517 14.5687 10.625 14.25 10.625ZM10.5375 18.5H17.9625C17.4187 18.125 16.833 17.8437 16.2052 17.6562C15.5767 17.4687 14.925 17.375 14.25 17.375C13.575 17.375 12.9236 17.4687 12.2959 17.6562C11.6674 17.8437 11.0812 18.125 10.5375 18.5Z" fill="#303030"/>
</g>
<defs>
<clipPath id="clip0_254_92">
<rect width="26" height="27" fill="white" transform="translate(0.5 0.5)"/>
</clipPath>
</defs>
</svg>
