<svg width="32" height="31" viewBox="0 0 32 31" fill="none" xmlns="http://www.w3.org/2000/svg">
<g clip-path="url(#clip0_290_384)">
<rect width="32" height="30.3885" rx="4" fill="white"/>
<path d="M5.74608 26.5117C5.62091 26.456 5.5305 26.3934 5.67654 26.2681C5.76694 26.1985 5.8643 26.1359 5.96166 26.0732C6.87265 25.4816 7.728 24.8343 8.29128 23.8807C8.76416 23.0873 8.68767 22.6209 8.09657 22.0363C4.80032 18.7371 3.35387 14.7906 4.0771 10.1273C4.48739 7.49629 5.69045 5.22029 7.44288 3.24358C8.49991 2.04641 9.7586 1.07894 11.1355 0.271546C11.219 0.222825 11.3372 0.208904 11.3511 0.0836194C11.3233 0.0140169 11.2746 0.0348976 11.2329 0.0348976C8.88933 0.0348976 6.5458 -0.0138242 4.20923 0.0488182C1.97001 0.118421 0.0367658 1.85152 0.0437199 4.33634C0.0576281 11.5959 0.0437199 18.8554 0.0437199 26.1219C0.0437199 28.3771 1.76138 30.2633 4.00756 30.3468C5.90603 30.4234 7.8045 30.3607 9.70992 30.3538C9.849 30.3607 9.98808 30.3677 10.1272 30.3677H20.1689C22.6724 30.3677 25.1758 30.3816 27.6793 30.3677C30.002 30.3677 31.8865 28.4884 31.8865 26.1707V26.1289V22.0572C31.8865 21.9597 31.9213 21.8553 31.8587 21.7509C31.7336 21.7579 31.6849 21.8623 31.6153 21.9319C30.2662 23.2891 28.6738 24.3819 26.9283 25.1545C22.6515 27.0407 18.2982 27.1729 13.8824 25.6556C13.4999 25.5164 13.0827 25.5025 12.6863 25.5999C12.1021 25.7461 11.5249 25.9201 10.9477 26.0941C9.25095 26.6231 7.51938 26.8597 5.74608 26.5117ZM10.7878 14.7837C10.906 14.6306 10.9686 14.5401 11.0382 14.4496C11.9491 13.2942 12.8601 12.1388 13.7711 10.9764C14.0354 10.6423 14.2996 10.3013 14.4665 9.89758C14.6612 9.43821 14.4526 9.00667 13.9797 8.83962C13.7711 8.77698 13.5486 8.74914 13.3261 8.76306C12.0882 8.7561 10.8434 8.7561 9.60561 8.76306C9.43176 8.76306 9.2579 8.78394 9.091 8.8257C8.70157 8.92315 8.46513 9.31988 8.56249 9.71662C8.63203 9.98111 8.84066 10.1899 9.10491 10.2526C9.27181 10.2943 9.44566 10.3152 9.61952 10.3082C10.3706 10.3152 11.1286 10.3082 11.8796 10.3152C11.963 10.3152 12.0674 10.2595 12.1299 10.3848C12.0674 10.4683 12.0048 10.5518 11.9422 10.6284C10.8643 11.9926 9.79337 13.3638 8.71548 14.728C8.45123 15.0691 8.31214 15.4449 8.50686 15.8625C8.70157 16.2801 9.09796 16.3567 9.5013 16.3845C9.82118 16.4054 10.148 16.3915 10.4749 16.3915C11.6014 16.3915 12.721 16.3985 13.8476 16.3845C14.4457 16.3776 14.7655 16.0156 14.703 15.4588C14.6543 15.0203 14.3553 14.7906 13.7989 14.7837C12.8184 14.7767 11.8379 14.7837 10.7878 14.7837ZM18.8546 11.1226C17.9853 10.3639 17.0256 10.3152 16.0868 10.872C14.9464 11.5402 14.5291 12.633 14.6682 13.8997C14.8003 15.083 15.3149 16.0505 16.5528 16.4472C17.3247 16.6978 18.0409 16.6073 18.6738 16.0922C18.8407 15.96 18.8893 15.9878 19.0075 16.134C19.237 16.4263 19.6334 16.5377 19.9811 16.4054C20.3288 16.301 20.5583 15.9808 20.5583 15.6189C20.5653 14.2269 20.5722 12.8348 20.5583 11.4428C20.5514 10.8859 20.0298 10.531 19.4874 10.6423C19.1884 10.705 19.0215 10.9068 18.8546 11.1226ZM23.6738 13.7048C23.6459 15.4449 25.0854 16.7604 26.8935 16.5794C28.5555 16.4124 29.6334 15.1665 29.5778 13.4056C29.5221 11.6655 28.2287 10.4753 26.4554 10.531C24.7934 10.5797 23.6181 11.9161 23.6738 13.7048ZM23.0618 12.3198C23.0618 11.227 23.0687 10.1412 23.0618 9.04843C23.0618 8.49161 22.7071 8.1436 22.1786 8.15056C21.664 8.15752 21.3233 8.50553 21.3163 9.04147C21.3094 9.3686 21.3163 9.68877 21.3163 10.0159V15.5493C21.3163 15.9808 21.5806 16.3567 21.9283 16.4472C22.4081 16.5794 22.9018 16.2941 23.027 15.8138C23.0479 15.7303 23.0618 15.6468 23.0548 15.5563C23.0687 14.4774 23.0618 13.3986 23.0618 12.3198Z" fill="#FDFEFE"/>
<path d="M9.70306 30.3607C7.80459 30.3607 5.89917 30.4234 4.0007 30.3538C1.75453 30.2633 0.0368652 28.3771 0.0368652 26.1289C0.0368652 18.8694 0.0507734 11.6098 0.0368652 4.34329C0.0368652 1.85848 1.97706 0.125376 4.20933 0.0627342C6.5459 9.18495e-05 8.88943 0.0488137 11.233 0.0488137C11.2747 0.0488137 11.3303 0.0279329 11.3512 0.0975355C11.3373 0.22282 11.2121 0.236741 11.1356 0.285462C9.7587 1.09285 8.5 2.06033 7.44298 3.25749C5.6975 5.23421 4.48749 7.50325 4.0772 10.1412C3.35397 14.7976 4.80738 18.751 8.09667 22.0502C8.68081 22.6418 8.75731 23.1012 8.29138 23.8947C7.7281 24.8482 6.87275 25.4955 5.96176 26.0871C5.8644 26.1428 5.76704 26.2124 5.66969 26.2751C5.52365 26.4003 5.61405 26.463 5.73923 26.5187C5.76704 26.5813 5.80181 26.637 5.84354 26.6927C6.64326 27.4026 7.40126 28.1613 8.18707 28.8852C8.55564 29.2262 8.9242 29.5812 9.27886 29.9362C9.4249 30.0684 9.66829 30.1102 9.70306 30.3607Z" fill="#0180C7"/>
<path d="M9.70309 30.3606C9.66832 30.117 9.42493 30.0752 9.27889 29.929C8.92424 29.5671 8.55567 29.2191 8.1871 28.878C7.40129 28.1542 6.64329 27.3955 5.84357 26.6856C5.80184 26.6299 5.76707 26.5742 5.73926 26.5115C7.51255 26.8596 9.24412 26.6229 10.9479 26.1009C11.5251 25.9269 12.1023 25.7529 12.6864 25.6067C13.0828 25.5023 13.5 25.5232 13.8825 25.6624C18.2914 27.1797 22.6447 27.0405 26.9284 25.1613C28.6739 24.3887 30.2664 23.3029 31.6155 21.9456C31.685 21.876 31.7337 21.7716 31.8589 21.7646C31.9214 21.8621 31.8867 21.9665 31.8867 22.0709V26.1427C31.9006 28.4674 30.0369 30.3606 27.7142 30.3814H27.6794C25.176 30.3954 22.6725 30.3814 20.169 30.3814H10.1203C9.98126 30.3675 9.84218 30.3606 9.70309 30.3606Z" fill="#0172B1"/>
<path d="M10.7878 14.7835C11.8379 14.7835 12.8254 14.7766 13.8059 14.7835C14.3553 14.7905 14.6543 15.0202 14.7099 15.4587C14.7725 16.0085 14.4526 16.3774 13.8546 16.3844C12.728 16.3983 11.6084 16.3914 10.4819 16.3914C10.155 16.3914 9.83512 16.4053 9.50828 16.3844C9.10494 16.3635 8.70856 16.28 8.51384 15.8624C8.31913 15.4448 8.45821 15.0689 8.72247 14.7279C9.7934 13.3636 10.8713 11.9925 11.9492 10.6283C12.0118 10.5447 12.0743 10.4612 12.1369 10.3846C12.0674 10.2663 11.97 10.322 11.8866 10.315C11.1355 10.3081 10.3775 10.315 9.6265 10.3081C9.45265 10.3081 9.2788 10.2872 9.1119 10.2524C8.71551 10.1619 8.47212 9.76519 8.56252 9.37541C8.62511 9.11092 8.83373 8.89515 9.09799 8.83251C9.26489 8.79075 9.43874 8.76987 9.61259 8.76987C10.8504 8.76291 12.0952 8.76291 13.333 8.76987C13.5556 8.76291 13.7711 8.79075 13.9867 8.84643C14.4596 9.00652 14.6613 9.44501 14.4735 9.90439C14.3066 10.3011 14.0424 10.6422 13.7781 10.9832C12.8671 12.1456 11.9561 13.301 11.0451 14.4494C10.9686 14.5399 10.8991 14.6304 10.7878 14.7835Z" fill="#0180C7"/>
<path d="M18.8546 11.1224C19.0215 10.9066 19.1954 10.7048 19.4805 10.6491C20.0299 10.5377 20.5445 10.8927 20.5514 11.4495C20.5723 12.8416 20.5653 14.2336 20.5514 15.6257C20.5514 15.9876 20.315 16.3078 19.9742 16.4122C19.6265 16.5444 19.2301 16.44 19.0007 16.1407C18.8824 15.9946 18.8338 15.9667 18.6669 16.099C18.034 16.614 17.3178 16.7045 16.5459 16.454C15.308 16.0503 14.8004 15.0828 14.6613 13.9065C14.5153 12.6328 14.9395 11.547 16.0799 10.8788C17.0257 10.315 17.9854 10.3637 18.8546 11.1224ZM16.3929 13.6629C16.4068 13.9691 16.5041 14.2615 16.6849 14.5051C17.0605 15.0062 17.7767 15.1106 18.2844 14.7348C18.3678 14.6721 18.4443 14.5956 18.5139 14.5051C18.9033 13.9761 18.9033 13.1061 18.5139 12.5771C18.3192 12.3056 18.0132 12.1456 17.6863 12.1386C16.9214 12.0899 16.3859 12.6815 16.3929 13.6629ZM23.6738 13.7047C23.6182 11.9159 24.7934 10.5795 26.4624 10.5308C28.2357 10.4751 29.5292 11.6653 29.5848 13.4054C29.6404 15.1663 28.5625 16.4122 26.9005 16.5792C25.0855 16.7602 23.646 15.4447 23.6738 13.7047ZM25.4193 13.5376C25.4054 13.8856 25.5097 14.2267 25.7183 14.512C26.1008 15.0132 26.8171 15.1106 27.3178 14.7209C27.3943 14.6652 27.4568 14.5956 27.5194 14.526C27.9228 13.997 27.9228 13.1061 27.5264 12.5771C27.3317 12.3126 27.0257 12.1456 26.6988 12.1386C25.9478 12.0968 25.4193 12.6676 25.4193 13.5376ZM23.0618 12.3196C23.0618 13.3984 23.0688 14.4772 23.0618 15.5561C23.0688 16.0503 22.6794 16.4609 22.1856 16.4748C22.1022 16.4748 22.0118 16.4679 21.9283 16.447C21.5806 16.3565 21.3164 15.9876 21.3164 15.5491V10.0157C21.3164 9.68859 21.3094 9.36841 21.3164 9.04128C21.3233 8.50534 21.6641 8.15733 22.1787 8.15733C22.7072 8.15037 23.0618 8.49838 23.0618 9.0552C23.0688 10.141 23.0618 11.2338 23.0618 12.3196Z" fill="#0180C7"/>
<path d="M16.3929 13.663C16.3859 12.6816 16.9214 12.09 17.6794 12.1317C18.0062 12.1456 18.3122 12.3057 18.5069 12.5772C18.8964 13.0992 18.8964 13.9762 18.5069 14.5052C18.1314 15.0063 17.4151 15.1107 16.9075 14.7348C16.824 14.6722 16.7475 14.5956 16.678 14.5052C16.5042 14.2616 16.4068 13.9692 16.3929 13.663ZM25.4193 13.5377C25.4193 12.6746 25.9478 12.0969 26.6989 12.1387C27.0257 12.1456 27.3317 12.3127 27.5264 12.5772C27.9228 13.1061 27.9228 14.004 27.5195 14.526C27.13 15.0202 26.4068 15.1037 25.9131 14.714C25.8366 14.6583 25.774 14.5887 25.7183 14.5121C25.5097 14.2268 25.4124 13.8857 25.4193 13.5377Z" fill="#FDFEFE"/>
<path d="M4.5917 0.0695801H27.4081C29.9046 0.0695801 31.9283 2.09502 31.9283 4.59375V25.6833C31.9283 28.1821 29.9046 30.2075 27.4081 30.2075H4.5917C2.09518 30.2075 0.0715332 28.1821 0.0715332 25.6833V4.59375C0.0715332 2.09502 2.09518 0.0695801 4.5917 0.0695801Z" stroke="#0180C7" stroke-miterlimit="10"/>
</g>
<defs>
<clipPath id="clip0_290_384">
<rect width="32" height="30.3885" rx="4" fill="white"/>
</clipPath>
</defs>
</svg>
